<?xml version="1.0" encoding="UTF-8" standalone="no"?>
<!DOCTYPE svg PUBLIC "-//W3C//DTD SVG 1.1//EN"
 "http://www.w3.org/Graphics/SVG/1.1/DTD/svg11.dtd">
<!-- Generated by graphviz version 12.2.1 (0)
 -->
<!-- Title: Entity Relationship Diagram created by erdantic Pages: 1 -->
<svg width="2081pt" height="1020pt"
 viewBox="0.00 0.00 2081.00 1019.50" xmlns="http://www.w3.org/2000/svg" xmlns:xlink="http://www.w3.org/1999/xlink">
<g id="graph0" class="graph" transform="scale(1 1) rotate(0) translate(4 1015.5)">
<title>Entity Relationship Diagram created by erdantic</title>
<polygon fill="white" stroke="none" points="-4,4 -4,-1015.5 2077,-1015.5 2077,4 -4,4"/>
<text text-anchor="middle" x="1036.5" y="-5.95" font-family="Times New Roman,Times,Liberation Serif,serif" font-size="9.00" fill="#a8a8a8">Created by erdantic v1.2.1 &lt;https://github.com/drivendataorg/erdantic&gt;</text>
<!-- document_processor.models.DocIR -->
<g id="node1" class="node">
<title>document_processor.models.DocIR</title>
<g id="a_node1"><a xlink:title="document_processor.models.DocIR&#10;&#10;Top&#45;level structural document IR.&#10;">
<polygon fill="none" stroke="black" points="0,-989 0,-1011.5 197.25,-1011.5 197.25,-989 0,-989"/>
<text text-anchor="start" x="79.88" y="-996.2" font-family="Times New Roman,Times,Liberation Serif,serif" font-weight="bold" font-size="14.00">DocIR</text>
<polygon fill="none" stroke="black" points="0,-966.5 0,-989 97.5,-989 97.5,-966.5 0,-966.5"/>
<text text-anchor="start" x="30.38" y="-972.7" font-family="Times New Roman,Times,Liberation Serif,serif" font-size="14.00">doc_id</text>
<polygon fill="none" stroke="black" points="97.5,-966.5 97.5,-989 197.25,-989 197.25,-966.5 97.5,-966.5"/>
<text text-anchor="start" x="120.75" y="-972.7" font-family="Times New Roman,Times,Liberation Serif,serif" font-size="14.00">str | None</text>
<polygon fill="none" stroke="black" points="0,-944 0,-966.5 97.5,-966.5 97.5,-944 0,-944"/>
<text text-anchor="start" x="16.12" y="-950.2" font-family="Times New Roman,Times,Liberation Serif,serif" font-size="14.00">source_path</text>
<polygon fill="none" stroke="black" points="97.5,-944 97.5,-966.5 197.25,-966.5 197.25,-944 97.5,-944"/>
<text text-anchor="start" x="120.75" y="-950.2" font-family="Times New Roman,Times,Liberation Serif,serif" font-size="14.00">str | None</text>
<polygon fill="none" stroke="black" points="0,-921.5 0,-944 97.5,-944 97.5,-921.5 0,-921.5"/>
<text text-anchor="start" x="3" y="-927.7" font-family="Times New Roman,Times,Liberation Serif,serif" font-size="14.00">source_doc_type</text>
<polygon fill="none" stroke="black" points="97.5,-921.5 97.5,-944 197.25,-944 197.25,-921.5 97.5,-921.5"/>
<text text-anchor="start" x="120.75" y="-927.7" font-family="Times New Roman,Times,Liberation Serif,serif" font-size="14.00">str | None</text>
<polygon fill="none" stroke="black" points="0,-899 0,-921.5 97.5,-921.5 97.5,-899 0,-899"/>
<text text-anchor="start" x="24" y="-905.2" font-family="Times New Roman,Times,Liberation Serif,serif" font-size="14.00">metadata</text>
<polygon fill="none" stroke="black" points="97.5,-899 97.5,-921.5 197.25,-921.5 197.25,-899 97.5,-899"/>
<text text-anchor="start" x="111.38" y="-905.2" font-family="Times New Roman,Times,Liberation Serif,serif" font-size="14.00">dict[str, Any]</text>
<polygon fill="none" stroke="black" points="0,-876.5 0,-899 97.5,-899 97.5,-876.5 0,-876.5"/>
<text text-anchor="start" x="19.12" y="-882.7" font-family="Times New Roman,Times,Liberation Serif,serif" font-size="14.00">paragraphs</text>
<polygon fill="none" stroke="black" points="97.5,-876.5 97.5,-899 197.25,-899 197.25,-876.5 97.5,-876.5"/>
<text text-anchor="start" x="100.5" y="-882.7" font-family="Times New Roman,Times,Liberation Serif,serif" font-size="14.00">list[ParagraphIR]</text>
</a>
</g>
</g>
<!-- document_processor.models.ParagraphIR -->
<g id="node2" class="node">
<title>document_processor.models.ParagraphIR</title>
<g id="a_node2"><a xlink:title="document_processor.models.ParagraphIR&#10;&#10;Structural paragraph unit.&#10;">
<polygon fill="none" stroke="black" points="305.25,-876.5 305.25,-899 519.75,-899 519.75,-876.5 305.25,-876.5"/>
<text text-anchor="start" x="373.88" y="-883.7" font-family="Times New Roman,Times,Liberation Serif,serif" font-weight="bold" font-size="14.00">ParagraphIR</text>
<polygon fill="none" stroke="black" points="305.25,-854 305.25,-876.5 399.75,-876.5 399.75,-854 305.25,-854"/>
<text text-anchor="start" x="333.38" y="-860.2" font-family="Times New Roman,Times,Liberation Serif,serif" font-size="14.00">unit_id</text>
<polygon fill="none" stroke="black" points="399.75,-854 399.75,-876.5 519.75,-876.5 519.75,-854 399.75,-854"/>
<text text-anchor="start" x="453" y="-860.2" font-family="Times New Roman,Times,Liberation Serif,serif" font-size="14.00">str</text>
<polygon fill="none" stroke="black" points="305.25,-831.5 305.25,-854 399.75,-854 399.75,-831.5 305.25,-831.5"/>
<text text-anchor="start" x="342.38" y="-837.7" font-family="Times New Roman,Times,Liberation Serif,serif" font-size="14.00">text</text>
<polygon fill="none" stroke="black" points="399.75,-831.5 399.75,-854 519.75,-854 519.75,-831.5 399.75,-831.5"/>
<text text-anchor="start" x="453" y="-837.7" font-family="Times New Roman,Times,Liberation Serif,serif" font-size="14.00">str</text>
<polygon fill="none" stroke="black" points="305.25,-809 305.25,-831.5 399.75,-831.5 399.75,-809 305.25,-809"/>
<text text-anchor="start" x="308.25" y="-815.2" font-family="Times New Roman,Times,Liberation Serif,serif" font-size="14.00">normalized_text</text>
<polygon fill="none" stroke="black" points="399.75,-809 399.75,-831.5 519.75,-831.5 519.75,-809 399.75,-809"/>
<text text-anchor="start" x="453" y="-815.2" font-family="Times New Roman,Times,Liberation Serif,serif" font-size="14.00">str</text>
<polygon fill="none" stroke="black" points="305.25,-786.5 305.25,-809 399.75,-809 399.75,-786.5 305.25,-786.5"/>
<text text-anchor="start" x="319.88" y="-792.7" font-family="Times New Roman,Times,Liberation Serif,serif" font-size="14.00">source_type</text>
<polygon fill="none" stroke="black" points="399.75,-786.5 399.75,-809 519.75,-809 519.75,-786.5 399.75,-786.5"/>
<text text-anchor="start" x="427.5" y="-792.7" font-family="Times New Roman,Times,Liberation Serif,serif" font-size="14.00">SourceType</text>
<polygon fill="none" stroke="black" points="305.25,-764 305.25,-786.5 399.75,-786.5 399.75,-764 305.25,-764"/>
<text text-anchor="start" x="324.75" y="-770.2" font-family="Times New Roman,Times,Liberation Serif,serif" font-size="14.00">para_style</text>
<polygon fill="none" stroke="black" points="399.75,-764 399.75,-786.5 519.75,-786.5 519.75,-764 399.75,-764"/>
<text text-anchor="start" x="402.75" y="-770.2" font-family="Times New Roman,Times,Liberation Serif,serif" font-size="14.00">ParaStyleInfo | None</text>
<polygon fill="none" stroke="black" points="305.25,-741.5 305.25,-764 399.75,-764 399.75,-741.5 305.25,-741.5"/>
<text text-anchor="start" x="340.88" y="-747.7" font-family="Times New Roman,Times,Liberation Serif,serif" font-size="14.00">runs</text>
<polygon fill="none" stroke="black" points="399.75,-741.5 399.75,-764 519.75,-764 519.75,-741.5 399.75,-741.5"/>
<text text-anchor="start" x="429" y="-747.7" font-family="Times New Roman,Times,Liberation Serif,serif" font-size="14.00">list[RunIR]</text>
<polygon fill="none" stroke="black" points="305.25,-719 305.25,-741.5 399.75,-741.5 399.75,-719 305.25,-719"/>
<text text-anchor="start" x="336.75" y="-725.2" font-family="Times New Roman,Times,Liberation Serif,serif" font-size="14.00">tables</text>
<polygon fill="none" stroke="black" points="399.75,-719 399.75,-741.5 519.75,-741.5 519.75,-719 399.75,-719"/>
<text text-anchor="start" x="425.25" y="-725.2" font-family="Times New Roman,Times,Liberation Serif,serif" font-size="14.00">list[TableIR]</text>
</a>
</g>
</g>
<!-- document_processor.models.DocIR&#45;&gt;document_processor.models.ParagraphIR -->
<g id="edge1" class="edge">
<title>document_processor.models.DocIR:e&#45;&gt;document_processor.models.ParagraphIR:w</title>
<path fill="none" stroke="black" d="M207.12,-887.75C242.17,-887.75 256.92,-887.75 289.89,-887.75"/>
<polyline fill="none" stroke="black" points="197.25,-887.75 202.25,-887.75"/>
<polyline fill="none" stroke="black" points="202.25,-887.75 207.25,-887.75"/>
<polygon fill="black" stroke="black" points="294.92,-887.75 304.92,-892.25 300.25,-887.75 304.58,-887.75 304.58,-887.75 304.58,-887.75 300.25,-887.75 304.92,-883.25 294.92,-887.75"/>
<polyline fill="none" stroke="black" points="293.7,-887.75 288.7,-887.75"/>
</g>
<!-- document_processor.models.RunIR -->
<g id="node3" class="node">
<title>document_processor.models.RunIR</title>
<g id="a_node3"><a xlink:title="document_processor.models.RunIR&#10;&#10;Smallest style&#45;preserving text unit.&#10;">
<polygon fill="none" stroke="black" points="1603.5,-310.75 1603.5,-333.25 1816.5,-333.25 1816.5,-310.75 1603.5,-310.75"/>
<text text-anchor="start" x="1690.12" y="-317.95" font-family="Times New Roman,Times,Liberation Serif,serif" font-weight="bold" font-size="14.00">RunIR</text>
<polygon fill="none" stroke="black" points="1603.5,-288.25 1603.5,-310.75 1698,-310.75 1698,-288.25 1603.5,-288.25"/>
<text text-anchor="start" x="1631.62" y="-294.45" font-family="Times New Roman,Times,Liberation Serif,serif" font-size="14.00">unit_id</text>
<polygon fill="none" stroke="black" points="1698,-288.25 1698,-310.75 1816.5,-310.75 1816.5,-288.25 1698,-288.25"/>
<text text-anchor="start" x="1750.5" y="-294.45" font-family="Times New Roman,Times,Liberation Serif,serif" font-size="14.00">str</text>
<polygon fill="none" stroke="black" points="1603.5,-265.75 1603.5,-288.25 1698,-288.25 1698,-265.75 1603.5,-265.75"/>
<text text-anchor="start" x="1640.62" y="-271.95" font-family="Times New Roman,Times,Liberation Serif,serif" font-size="14.00">text</text>
<polygon fill="none" stroke="black" points="1698,-265.75 1698,-288.25 1816.5,-288.25 1816.5,-265.75 1698,-265.75"/>
<text text-anchor="start" x="1750.5" y="-271.95" font-family="Times New Roman,Times,Liberation Serif,serif" font-size="14.00">str</text>
<polygon fill="none" stroke="black" points="1603.5,-243.25 1603.5,-265.75 1698,-265.75 1698,-243.25 1603.5,-243.25"/>
<text text-anchor="start" x="1606.5" y="-249.45" font-family="Times New Roman,Times,Liberation Serif,serif" font-size="14.00">normalized_text</text>
<polygon fill="none" stroke="black" points="1698,-243.25 1698,-265.75 1816.5,-265.75 1816.5,-243.25 1698,-243.25"/>
<text text-anchor="start" x="1750.5" y="-249.45" font-family="Times New Roman,Times,Liberation Serif,serif" font-size="14.00">str</text>
<polygon fill="none" stroke="black" points="1603.5,-220.75 1603.5,-243.25 1698,-243.25 1698,-220.75 1603.5,-220.75"/>
<text text-anchor="start" x="1625.62" y="-226.95" font-family="Times New Roman,Times,Liberation Serif,serif" font-size="14.00">run_style</text>
<polygon fill="none" stroke="black" points="1698,-220.75 1698,-243.25 1816.5,-243.25 1816.5,-220.75 1698,-220.75"/>
<text text-anchor="start" x="1701" y="-226.95" font-family="Times New Roman,Times,Liberation Serif,serif" font-size="14.00">RunStyleInfo | None</text>
</a>
</g>
</g>
<!-- document_processor.models.ParagraphIR&#45;&gt;document_processor.models.RunIR -->
<g id="edge2" class="edge">
<title>document_processor.models.ParagraphIR:e&#45;&gt;document_processor.models.RunIR:w</title>
<path fill="none" stroke="black" d="M529.38,-752.28C603.66,-744.58 565.44,-644.99 627.75,-589 738.79,-489.22 788.09,-491.55 926.25,-435 1079.02,-372.47 1117.91,-350.48 1281,-325 1417.5,-303.67 1457.31,-320.67 1588.37,-321.93"/>
<polyline fill="none" stroke="black" points="519.75,-752.75 524.74,-752.5"/>
<polyline fill="none" stroke="black" points="524.74,-752.5 529.74,-752.26"/>
<polygon fill="black" stroke="black" points="1593.17,-321.95 1603.14,-326.5 1598.5,-321.98 1602.83,-322 1602.83,-322 1602.83,-322 1598.5,-321.98 1603.19,-317.5 1593.17,-321.95"/>
<polyline fill="none" stroke="black" points="1591.95,-321.94 1586.95,-321.92"/>
</g>
<!-- document_processor.models.TableIR -->
<g id="node4" class="node">
<title>document_processor.models.TableIR</title>
<g id="a_node4"><a xlink:title="document_processor.models.TableIR&#10;&#10;Nested table node under a paragraph.&#10;">
<polygon fill="none" stroke="black" points="627.75,-719 627.75,-741.5 818.25,-741.5 818.25,-719 627.75,-719"/>
<text text-anchor="start" x="699.38" y="-726.2" font-family="Times New Roman,Times,Liberation Serif,serif" font-weight="bold" font-size="14.00">TableIR</text>
<polygon fill="none" stroke="black" points="627.75,-696.5 627.75,-719 692.25,-719 692.25,-696.5 627.75,-696.5"/>
<text text-anchor="start" x="640.88" y="-702.7" font-family="Times New Roman,Times,Liberation Serif,serif" font-size="14.00">unit_id</text>
<polygon fill="none" stroke="black" points="692.25,-696.5 692.25,-719 818.25,-719 818.25,-696.5 692.25,-696.5"/>
<text text-anchor="start" x="748.5" y="-702.7" font-family="Times New Roman,Times,Liberation Serif,serif" font-size="14.00">str</text>
<polygon fill="none" stroke="black" points="627.75,-674 627.75,-696.5 692.25,-696.5 692.25,-674 627.75,-674"/>
<text text-anchor="start" x="631.12" y="-680.2" font-family="Times New Roman,Times,Liberation Serif,serif" font-size="14.00">row_count</text>
<polygon fill="none" stroke="black" points="692.25,-674 692.25,-696.5 818.25,-696.5 818.25,-674 692.25,-674"/>
<text text-anchor="start" x="748.12" y="-680.2" font-family="Times New Roman,Times,Liberation Serif,serif" font-size="14.00">int</text>
<polygon fill="none" stroke="black" points="627.75,-651.5 627.75,-674 692.25,-674 692.25,-651.5 627.75,-651.5"/>
<text text-anchor="start" x="633.38" y="-657.7" font-family="Times New Roman,Times,Liberation Serif,serif" font-size="14.00">col_count</text>
<polygon fill="none" stroke="black" points="692.25,-651.5 692.25,-674 818.25,-674 818.25,-651.5 692.25,-651.5"/>
<text text-anchor="start" x="748.12" y="-657.7" font-family="Times New Roman,Times,Liberation Serif,serif" font-size="14.00">int</text>
<polygon fill="none" stroke="black" points="627.75,-629 627.75,-651.5 692.25,-651.5 692.25,-629 627.75,-629"/>
<text text-anchor="start" x="630.75" y="-635.2" font-family="Times New Roman,Times,Liberation Serif,serif" font-size="14.00">table_style</text>
<polygon fill="none" stroke="black" points="692.25,-629 692.25,-651.5 818.25,-651.5 818.25,-629 692.25,-629"/>
<text text-anchor="start" x="695.25" y="-635.2" font-family="Times New Roman,Times,Liberation Serif,serif" font-size="14.00">TableStyleInfo | None</text>
<polygon fill="none" stroke="black" points="627.75,-606.5 627.75,-629 692.25,-629 692.25,-606.5 627.75,-606.5"/>
<text text-anchor="start" x="647.62" y="-612.7" font-family="Times New Roman,Times,Liberation Serif,serif" font-size="14.00">cells</text>
<polygon fill="none" stroke="black" points="692.25,-606.5 692.25,-629 818.25,-629 818.25,-606.5 692.25,-606.5"/>
<text text-anchor="start" x="709.5" y="-612.7" font-family="Times New Roman,Times,Liberation Serif,serif" font-size="14.00">list[TableCellIR]</text>
</a>
</g>
</g>
<!-- document_processor.models.ParagraphIR&#45;&gt;document_processor.models.TableIR -->
<g id="edge3" class="edge">
<title>document_processor.models.ParagraphIR:e&#45;&gt;document_processor.models.TableIR:w</title>
<path fill="none" stroke="black" d="M529.62,-730.25C564.67,-730.25 579.42,-730.25 612.39,-730.25"/>
<polyline fill="none" stroke="black" points="519.75,-730.25 524.75,-730.25"/>
<polyline fill="none" stroke="black" points="524.75,-730.25 529.75,-730.25"/>
<polygon fill="black" stroke="black" points="617.42,-730.25 627.42,-734.75 622.75,-730.25 627.08,-730.25 627.08,-730.25 627.08,-730.25 622.75,-730.25 627.42,-725.75 617.42,-730.25"/>
<polyline fill="none" stroke="black" points="616.2,-730.25 611.2,-730.25"/>
</g>
<!-- document_processor.style_types.ParaStyleInfo -->
<g id="node5" class="node">
<title>document_processor.style_types.ParaStyleInfo</title>
<g id="a_node5"><a xlink:title="document_processor.style_types.ParaStyleInfo&#10;&#10;Paragraph&#45;level formatting.&#10;">
<polygon fill="none" stroke="black" points="1618.5,-616 1618.5,-638.5 1801.5,-638.5 1801.5,-616 1618.5,-616"/>
<text text-anchor="start" x="1669.88" y="-623.2" font-family="Times New Roman,Times,Liberation Serif,serif" font-weight="bold" font-size="14.00">ParaStyleInfo</text>
<polygon fill="none" stroke="black" points="1618.5,-593.5 1618.5,-616 1731,-616 1731,-593.5 1618.5,-593.5"/>
<text text-anchor="start" x="1661.25" y="-599.7" font-family="Times New Roman,Times,Liberation Serif,serif" font-size="14.00">align</text>
<polygon fill="none" stroke="black" points="1731,-593.5 1731,-616 1801.5,-616 1801.5,-593.5 1731,-593.5"/>
<text text-anchor="start" x="1739.62" y="-599.7" font-family="Times New Roman,Times,Liberation Serif,serif" font-size="14.00">str | None</text>
<polygon fill="none" stroke="black" points="1618.5,-571 1618.5,-593.5 1731,-593.5 1731,-571 1618.5,-571"/>
<text text-anchor="start" x="1636.88" y="-577.2" font-family="Times New Roman,Times,Liberation Serif,serif" font-size="14.00">left_indent_pt</text>
<polygon fill="none" stroke="black" points="1731,-571 1731,-593.5 1801.5,-593.5 1801.5,-571 1731,-571"/>
<text text-anchor="start" x="1734" y="-577.2" font-family="Times New Roman,Times,Liberation Serif,serif" font-size="14.00">float | None</text>
<polygon fill="none" stroke="black" points="1618.5,-548.5 1618.5,-571 1731,-571 1731,-548.5 1618.5,-548.5"/>
<text text-anchor="start" x="1633.12" y="-554.7" font-family="Times New Roman,Times,Liberation Serif,serif" font-size="14.00">right_indent_pt</text>
<polygon fill="none" stroke="black" points="1731,-548.5 1731,-571 1801.5,-571 1801.5,-548.5 1731,-548.5"/>
<text text-anchor="start" x="1734" y="-554.7" font-family="Times New Roman,Times,Liberation Serif,serif" font-size="14.00">float | None</text>
<polygon fill="none" stroke="black" points="1618.5,-526 1618.5,-548.5 1731,-548.5 1731,-526 1618.5,-526"/>
<text text-anchor="start" x="1621.5" y="-532.2" font-family="Times New Roman,Times,Liberation Serif,serif" font-size="14.00">first_line_indent_pt</text>
<polygon fill="none" stroke="black" points="1731,-526 1731,-548.5 1801.5,-548.5 1801.5,-526 1731,-526"/>
<text text-anchor="start" x="1734" y="-532.2" font-family="Times New Roman,Times,Liberation Serif,serif" font-size="14.00">float | None</text>
<polygon fill="none" stroke="black" points="1618.5,-503.5 1618.5,-526 1731,-526 1731,-503.5 1618.5,-503.5"/>
<text text-anchor="start" x="1624.12" y="-509.7" font-family="Times New Roman,Times,Liberation Serif,serif" font-size="14.00">hanging_indent_pt</text>
<polygon fill="none" stroke="black" points="1731,-503.5 1731,-526 1801.5,-526 1801.5,-503.5 1731,-503.5"/>
<text text-anchor="start" x="1734" y="-509.7" font-family="Times New Roman,Times,Liberation Serif,serif" font-size="14.00">float | None</text>
</a>
</g>
</g>
<!-- document_processor.models.ParagraphIR&#45;&gt;document_processor.style_types.ParaStyleInfo -->
<g id="edge4" class="edge">
<title>document_processor.models.ParagraphIR:e&#45;&gt;document_processor.style_types.ParaStyleInfo:w</title>
<path fill="none" stroke="black" d="M529.55,-775.28C955.71,-777.64 1102.26,-933.07 1495.5,-758 1563.15,-727.89 1541.65,-640.4 1602.67,-628.58"/>
<polyline fill="none" stroke="black" points="519.75,-775.25 524.75,-775.26"/>
<polyline fill="none" stroke="black" points="524.75,-775.26 529.75,-775.28"/>
<polyline fill="none" stroke="black" points="1617.5,-627.25 1612.52,-627.7"/>
<polygon fill="black" stroke="black" points="1611.08,-622.8 1611.97,-632.76 1609.98,-632.94 1609.09,-622.98 1611.08,-622.8"/>
<polyline fill="none" stroke="black" points="1612.52,-627.7 1607.54,-628.14"/>
<polygon fill="black" stroke="black" points="1606.1,-623.25 1606.99,-633.21 1605,-633.39 1604.11,-623.43 1606.1,-623.25"/>
<polyline fill="none" stroke="black" points="1607.54,-628.14 1602.56,-628.59"/>
</g>
<!-- document_processor.style_types.RunStyleInfo -->
<g id="node6" class="node">
<title>document_processor.style_types.RunStyleInfo</title>
<g id="a_node6"><a xlink:title="document_processor.style_types.RunStyleInfo&#10;&#10;Text&#45;level formatting for a single run.&#10;">
<polygon fill="none" stroke="black" points="1924.5,-221 1924.5,-243.5 2073,-243.5 2073,-221 1924.5,-221"/>
<text text-anchor="start" x="1960.12" y="-228.2" font-family="Times New Roman,Times,Liberation Serif,serif" font-weight="bold" font-size="14.00">RunStyleInfo</text>
<polygon fill="none" stroke="black" points="1924.5,-198.5 1924.5,-221 2002.5,-221 2002.5,-198.5 1924.5,-198.5"/>
<text text-anchor="start" x="1951.5" y="-204.7" font-family="Times New Roman,Times,Liberation Serif,serif" font-size="14.00">bold</text>
<polygon fill="none" stroke="black" points="2002.5,-198.5 2002.5,-221 2073,-221 2073,-198.5 2002.5,-198.5"/>
<text text-anchor="start" x="2025.75" y="-204.7" font-family="Times New Roman,Times,Liberation Serif,serif" font-size="14.00">bool</text>
<polygon fill="none" stroke="black" points="1924.5,-176 1924.5,-198.5 2002.5,-198.5 2002.5,-176 1924.5,-176"/>
<text text-anchor="start" x="1950" y="-182.2" font-family="Times New Roman,Times,Liberation Serif,serif" font-size="14.00">italic</text>
<polygon fill="none" stroke="black" points="2002.5,-176 2002.5,-198.5 2073,-198.5 2073,-176 2002.5,-176"/>
<text text-anchor="start" x="2025.75" y="-182.2" font-family="Times New Roman,Times,Liberation Serif,serif" font-size="14.00">bool</text>
<polygon fill="none" stroke="black" points="1924.5,-153.5 1924.5,-176 2002.5,-176 2002.5,-153.5 1924.5,-153.5"/>
<text text-anchor="start" x="1938" y="-159.7" font-family="Times New Roman,Times,Liberation Serif,serif" font-size="14.00">underline</text>
<polygon fill="none" stroke="black" points="2002.5,-153.5 2002.5,-176 2073,-176 2073,-153.5 2002.5,-153.5"/>
<text text-anchor="start" x="2025.75" y="-159.7" font-family="Times New Roman,Times,Liberation Serif,serif" font-size="14.00">bool</text>
<polygon fill="none" stroke="black" points="1924.5,-131 1924.5,-153.5 2002.5,-153.5 2002.5,-131 1924.5,-131"/>
<text text-anchor="start" x="1927.5" y="-137.2" font-family="Times New Roman,Times,Liberation Serif,serif" font-size="14.00">strikethrough</text>
<polygon fill="none" stroke="black" points="2002.5,-131 2002.5,-153.5 2073,-153.5 2073,-131 2002.5,-131"/>
<text text-anchor="start" x="2025.75" y="-137.2" font-family="Times New Roman,Times,Liberation Serif,serif" font-size="14.00">bool</text>
<polygon fill="none" stroke="black" points="1924.5,-108.5 1924.5,-131 2002.5,-131 2002.5,-108.5 1924.5,-108.5"/>
<text text-anchor="start" x="1933.88" y="-114.7" font-family="Times New Roman,Times,Liberation Serif,serif" font-size="14.00">superscript</text>
<polygon fill="none" stroke="black" points="2002.5,-108.5 2002.5,-131 2073,-131 2073,-108.5 2002.5,-108.5"/>
<text text-anchor="start" x="2025.75" y="-114.7" font-family="Times New Roman,Times,Liberation Serif,serif" font-size="14.00">bool</text>
<polygon fill="none" stroke="black" points="1924.5,-86 1924.5,-108.5 2002.5,-108.5 2002.5,-86 1924.5,-86"/>
<text text-anchor="start" x="1939.12" y="-92.2" font-family="Times New Roman,Times,Liberation Serif,serif" font-size="14.00">subscript</text>
<polygon fill="none" stroke="black" points="2002.5,-86 2002.5,-108.5 2073,-108.5 2073,-86 2002.5,-86"/>
<text text-anchor="start" x="2025.75" y="-92.2" font-family="Times New Roman,Times,Liberation Serif,serif" font-size="14.00">bool</text>
<polygon fill="none" stroke="black" points="1924.5,-63.5 1924.5,-86 2002.5,-86 2002.5,-63.5 1924.5,-63.5"/>
<text text-anchor="start" x="1949.62" y="-69.7" font-family="Times New Roman,Times,Liberation Serif,serif" font-size="14.00">color</text>
<polygon fill="none" stroke="black" points="2002.5,-63.5 2002.5,-86 2073,-86 2073,-63.5 2002.5,-63.5"/>
<text text-anchor="start" x="2011.12" y="-69.7" font-family="Times New Roman,Times,Liberation Serif,serif" font-size="14.00">str | None</text>
<polygon fill="none" stroke="black" points="1924.5,-41 1924.5,-63.5 2002.5,-63.5 2002.5,-41 1924.5,-41"/>
<text text-anchor="start" x="1939.12" y="-47.2" font-family="Times New Roman,Times,Liberation Serif,serif" font-size="14.00">highlight</text>
<polygon fill="none" stroke="black" points="2002.5,-41 2002.5,-63.5 2073,-63.5 2073,-41 2002.5,-41"/>
<text text-anchor="start" x="2011.12" y="-47.2" font-family="Times New Roman,Times,Liberation Serif,serif" font-size="14.00">str | None</text>
<polygon fill="none" stroke="black" points="1924.5,-18.5 1924.5,-41 2002.5,-41 2002.5,-18.5 1924.5,-18.5"/>
<text text-anchor="start" x="1944.38" y="-24.7" font-family="Times New Roman,Times,Liberation Serif,serif" font-size="14.00">size_pt</text>
<polygon fill="none" stroke="black" points="2002.5,-18.5 2002.5,-41 2073,-41 2073,-18.5 2002.5,-18.5"/>
<text text-anchor="start" x="2005.5" y="-24.7" font-family="Times New Roman,Times,Liberation Serif,serif" font-size="14.00">float | None</text>
</a>
</g>
</g>
<!-- document_processor.models.RunIR&#45;&gt;document_processor.style_types.RunStyleInfo -->
<g id="edge5" class="edge">
<title>document_processor.models.RunIR:e&#45;&gt;document_processor.style_types.RunStyleInfo:w</title>
<path fill="none" stroke="black" d="M1826.37,-232C1861.57,-232.03 1876.3,-232.2 1909.58,-232.24"/>
<polyline fill="none" stroke="black" points="1816.5,-232 1821.5,-232"/>
<polyline fill="none" stroke="black" points="1821.5,-232 1826.5,-232"/>
<polyline fill="none" stroke="black" points="1924.5,-232.25 1919.5,-232.25"/>
<polygon fill="black" stroke="black" points="1918.5,-227.25 1918.5,-237.25 1916.5,-237.25 1916.5,-227.25 1918.5,-227.25"/>
<polyline fill="none" stroke="black" points="1919.5,-232.25 1914.5,-232.24"/>
<polygon fill="black" stroke="black" points="1913.5,-227.24 1913.5,-237.24 1911.5,-237.24 1911.5,-227.24 1913.5,-227.24"/>
<polyline fill="none" stroke="black" points="1914.5,-232.24 1909.5,-232.24"/>
</g>
<!-- document_processor.models.TableCellIR -->
<g id="node7" class="node">
<title>document_processor.models.TableCellIR</title>
<g id="a_node7"><a xlink:title="document_processor.models.TableCellIR&#10;&#10;Table cell node.&#10;">
<polygon fill="none" stroke="black" points="926.25,-610.5 926.25,-633 1173,-633 1173,-610.5 926.25,-610.5"/>
<text text-anchor="start" x="1014.38" y="-617.7" font-family="Times New Roman,Times,Liberation Serif,serif" font-weight="bold" font-size="14.00">TableCellIR</text>
<polygon fill="none" stroke="black" points="926.25,-588 926.25,-610.5 1020.75,-610.5 1020.75,-588 926.25,-588"/>
<text text-anchor="start" x="954.38" y="-594.2" font-family="Times New Roman,Times,Liberation Serif,serif" font-size="14.00">unit_id</text>
<polygon fill="none" stroke="black" points="1020.75,-588 1020.75,-610.5 1173,-610.5 1173,-588 1020.75,-588"/>
<text text-anchor="start" x="1090.12" y="-594.2" font-family="Times New Roman,Times,Liberation Serif,serif" font-size="14.00">str</text>
<polygon fill="none" stroke="black" points="926.25,-565.5 926.25,-588 1020.75,-588 1020.75,-565.5 926.25,-565.5"/>
<text text-anchor="start" x="944.62" y="-571.7" font-family="Times New Roman,Times,Liberation Serif,serif" font-size="14.00">row_index</text>
<polygon fill="none" stroke="black" points="1020.75,-565.5 1020.75,-588 1173,-588 1173,-565.5 1020.75,-565.5"/>
<text text-anchor="start" x="1089.75" y="-571.7" font-family="Times New Roman,Times,Liberation Serif,serif" font-size="14.00">int</text>
<polygon fill="none" stroke="black" points="926.25,-543 926.25,-565.5 1020.75,-565.5 1020.75,-543 926.25,-543"/>
<text text-anchor="start" x="946.88" y="-549.2" font-family="Times New Roman,Times,Liberation Serif,serif" font-size="14.00">col_index</text>
<polygon fill="none" stroke="black" points="1020.75,-543 1020.75,-565.5 1173,-565.5 1173,-543 1020.75,-543"/>
<text text-anchor="start" x="1089.75" y="-549.2" font-family="Times New Roman,Times,Liberation Serif,serif" font-size="14.00">int</text>
<polygon fill="none" stroke="black" points="926.25,-520.5 926.25,-543 1020.75,-543 1020.75,-520.5 926.25,-520.5"/>
<text text-anchor="start" x="963.38" y="-526.7" font-family="Times New Roman,Times,Liberation Serif,serif" font-size="14.00">text</text>
<polygon fill="none" stroke="black" points="1020.75,-520.5 1020.75,-543 1173,-543 1173,-520.5 1020.75,-520.5"/>
<text text-anchor="start" x="1090.12" y="-526.7" font-family="Times New Roman,Times,Liberation Serif,serif" font-size="14.00">str</text>
<polygon fill="none" stroke="black" points="926.25,-498 926.25,-520.5 1020.75,-520.5 1020.75,-498 926.25,-498"/>
<text text-anchor="start" x="929.25" y="-504.2" font-family="Times New Roman,Times,Liberation Serif,serif" font-size="14.00">normalized_text</text>
<polygon fill="none" stroke="black" points="1020.75,-498 1020.75,-520.5 1173,-520.5 1173,-498 1020.75,-498"/>
<text text-anchor="start" x="1090.12" y="-504.2" font-family="Times New Roman,Times,Liberation Serif,serif" font-size="14.00">str</text>
<polygon fill="none" stroke="black" points="926.25,-475.5 926.25,-498 1020.75,-498 1020.75,-475.5 926.25,-475.5"/>
<text text-anchor="start" x="947.62" y="-481.7" font-family="Times New Roman,Times,Liberation Serif,serif" font-size="14.00">cell_style</text>
<polygon fill="none" stroke="black" points="1020.75,-475.5 1020.75,-498 1173,-498 1173,-475.5 1020.75,-475.5"/>
<text text-anchor="start" x="1040.62" y="-481.7" font-family="Times New Roman,Times,Liberation Serif,serif" font-size="14.00">CellStyleInfo | None</text>
<polygon fill="none" stroke="black" points="926.25,-453 926.25,-475.5 1020.75,-475.5 1020.75,-453 926.25,-453"/>
<text text-anchor="start" x="943.88" y="-459.2" font-family="Times New Roman,Times,Liberation Serif,serif" font-size="14.00">paragraphs</text>
<polygon fill="none" stroke="black" points="1020.75,-453 1020.75,-475.5 1173,-475.5 1173,-453 1020.75,-453"/>
<text text-anchor="start" x="1023.75" y="-459.2" font-family="Times New Roman,Times,Liberation Serif,serif" font-size="14.00">list[TableCellParagraphIR]</text>
</a>
</g>
</g>
<!-- document_processor.models.TableIR&#45;&gt;document_processor.models.TableCellIR -->
<g id="edge10" class="edge">
<title>document_processor.models.TableIR:e&#45;&gt;document_processor.models.TableCellIR:w</title>
<path fill="none" stroke="black" d="M828.13,-617.81C863.19,-618.25 877.9,-620.94 910.88,-621.6"/>
<polyline fill="none" stroke="black" points="818.25,-617.75 823.25,-617.78"/>
<polyline fill="none" stroke="black" points="823.25,-617.78 828.25,-617.81"/>
<polygon fill="black" stroke="black" points="915.92,-621.65 925.87,-626.25 921.25,-621.7 925.58,-621.74 925.58,-621.74 925.58,-621.74 921.25,-621.7 925.96,-617.25 915.92,-621.65"/>
<polyline fill="none" stroke="black" points="914.7,-621.64 909.7,-621.59"/>
</g>
<!-- document_processor.style_types.TableStyleInfo -->
<g id="node10" class="node">
<title>document_processor.style_types.TableStyleInfo</title>
<g id="a_node10"><a xlink:title="document_processor.style_types.TableStyleInfo&#10;&#10;Table&#45;level metadata.&#10;">
<polygon fill="none" stroke="black" points="1004.25,-714.25 1004.25,-736.75 1095,-736.75 1095,-714.25 1004.25,-714.25"/>
<text text-anchor="start" x="1007.25" y="-721.45" font-family="Times New Roman,Times,Liberation Serif,serif" font-weight="bold" font-size="14.00">TableStyleInfo</text>
<polygon fill="none" stroke="black" points="1004.25,-691.75 1004.25,-714.25 1071.38,-714.25 1071.38,-691.75 1004.25,-691.75"/>
<text text-anchor="start" x="1008.94" y="-697.95" font-family="Times New Roman,Times,Liberation Serif,serif" font-size="14.00">row_count</text>
<polygon fill="none" stroke="black" points="1071.38,-691.75 1071.38,-714.25 1095,-714.25 1095,-691.75 1071.38,-691.75"/>
<text text-anchor="start" x="1076.06" y="-697.95" font-family="Times New Roman,Times,Liberation Serif,serif" font-size="14.00">int</text>
<polygon fill="none" stroke="black" points="1004.25,-669.25 1004.25,-691.75 1071.38,-691.75 1071.38,-669.25 1004.25,-669.25"/>
<text text-anchor="start" x="1011.19" y="-675.45" font-family="Times New Roman,Times,Liberation Serif,serif" font-size="14.00">col_count</text>
<polygon fill="none" stroke="black" points="1071.38,-669.25 1071.38,-691.75 1095,-691.75 1095,-669.25 1071.38,-669.25"/>
<text text-anchor="start" x="1076.06" y="-675.45" font-family="Times New Roman,Times,Liberation Serif,serif" font-size="14.00">int</text>
</a>
</g>
</g>
<!-- document_processor.models.TableIR&#45;&gt;document_processor.style_types.TableStyleInfo -->
<g id="edge11" class="edge">
<title>document_processor.models.TableIR:e&#45;&gt;document_processor.style_types.TableStyleInfo:w</title>
<path fill="none" stroke="black" d="M827.98,-640.59C904.43,-646.12 915.02,-716.49 988.72,-724.72"/>
<polyline fill="none" stroke="black" points="818.25,-640.25 823.25,-640.43"/>
<polyline fill="none" stroke="black" points="823.25,-640.43 828.24,-640.6"/>
<polyline fill="none" stroke="black" points="1003.25,-725.5 998.26,-725.23"/>
<polygon fill="black" stroke="black" points="997.53,-720.18 996.99,-730.17 994.99,-730.06 995.53,-720.08 997.53,-720.18"/>
<polyline fill="none" stroke="black" points="998.26,-725.23 993.26,-724.96"/>
<polygon fill="black" stroke="black" points="992.54,-719.91 992,-729.9 990,-729.79 990.54,-719.81 992.54,-719.91"/>
<polyline fill="none" stroke="black" points="993.26,-724.96 988.27,-724.69"/>
</g>
<!-- document_processor.models.TableCellParagraphIR -->
<g id="node8" class="node">
<title>document_processor.models.TableCellParagraphIR</title>
<g id="a_node8"><a xlink:title="document_processor.models.TableCellParagraphIR&#10;&#10;Paragraph inside a table cell.&#10;">
<polygon fill="none" stroke="black" points="1281,-456 1281,-478.5 1495.5,-478.5 1495.5,-456 1281,-456"/>
<text text-anchor="start" x="1321.88" y="-463.2" font-family="Times New Roman,Times,Liberation Serif,serif" font-weight="bold" font-size="14.00">TableCellParagraphIR</text>
<polygon fill="none" stroke="black" points="1281,-433.5 1281,-456 1375.5,-456 1375.5,-433.5 1281,-433.5"/>
<text text-anchor="start" x="1309.12" y="-439.7" font-family="Times New Roman,Times,Liberation Serif,serif" font-size="14.00">unit_id</text>
<polygon fill="none" stroke="black" points="1375.5,-433.5 1375.5,-456 1495.5,-456 1495.5,-433.5 1375.5,-433.5"/>
<text text-anchor="start" x="1428.75" y="-439.7" font-family="Times New Roman,Times,Liberation Serif,serif" font-size="14.00">str</text>
<polygon fill="none" stroke="black" points="1281,-411 1281,-433.5 1375.5,-433.5 1375.5,-411 1281,-411"/>
<text text-anchor="start" x="1318.12" y="-417.2" font-family="Times New Roman,Times,Liberation Serif,serif" font-size="14.00">text</text>
<polygon fill="none" stroke="black" points="1375.5,-411 1375.5,-433.5 1495.5,-433.5 1495.5,-411 1375.5,-411"/>
<text text-anchor="start" x="1428.75" y="-417.2" font-family="Times New Roman,Times,Liberation Serif,serif" font-size="14.00">str</text>
<polygon fill="none" stroke="black" points="1281,-388.5 1281,-411 1375.5,-411 1375.5,-388.5 1281,-388.5"/>
<text text-anchor="start" x="1284" y="-394.7" font-family="Times New Roman,Times,Liberation Serif,serif" font-size="14.00">normalized_text</text>
<polygon fill="none" stroke="black" points="1375.5,-388.5 1375.5,-411 1495.5,-411 1495.5,-388.5 1375.5,-388.5"/>
<text text-anchor="start" x="1428.75" y="-394.7" font-family="Times New Roman,Times,Liberation Serif,serif" font-size="14.00">str</text>
<polygon fill="none" stroke="black" points="1281,-366 1281,-388.5 1375.5,-388.5 1375.5,-366 1281,-366"/>
<text text-anchor="start" x="1300.5" y="-372.2" font-family="Times New Roman,Times,Liberation Serif,serif" font-size="14.00">para_style</text>
<polygon fill="none" stroke="black" points="1375.5,-366 1375.5,-388.5 1495.5,-388.5 1495.5,-366 1375.5,-366"/>
<text text-anchor="start" x="1378.5" y="-372.2" font-family="Times New Roman,Times,Liberation Serif,serif" font-size="14.00">ParaStyleInfo | None</text>
<polygon fill="none" stroke="black" points="1281,-343.5 1281,-366 1375.5,-366 1375.5,-343.5 1281,-343.5"/>
<text text-anchor="start" x="1316.62" y="-349.7" font-family="Times New Roman,Times,Liberation Serif,serif" font-size="14.00">runs</text>
<polygon fill="none" stroke="black" points="1375.5,-343.5 1375.5,-366 1495.5,-366 1495.5,-343.5 1375.5,-343.5"/>
<text text-anchor="start" x="1404.75" y="-349.7" font-family="Times New Roman,Times,Liberation Serif,serif" font-size="14.00">list[RunIR]</text>
</a>
</g>
</g>
<!-- document_processor.models.TableCellIR&#45;&gt;document_processor.models.TableCellParagraphIR -->
<g id="edge6" class="edge">
<title>document_processor.models.TableCellIR:e&#45;&gt;document_processor.models.TableCellParagraphIR:w</title>
<path fill="none" stroke="black" d="M1182.87,-464.29C1217.93,-464.62 1232.66,-466.64 1265.64,-467.14"/>
<polyline fill="none" stroke="black" points="1173,-464.25 1178,-464.27"/>
<polyline fill="none" stroke="black" points="1178,-464.27 1183,-464.3"/>
<polygon fill="black" stroke="black" points="1270.67,-467.17 1280.63,-471.75 1276,-467.21 1280.33,-467.25 1280.33,-467.25 1280.33,-467.25 1276,-467.21 1280.7,-462.75 1270.67,-467.17"/>
<polyline fill="none" stroke="black" points="1269.45,-467.17 1264.45,-467.13"/>
</g>
<!-- document_processor.style_types.CellStyleInfo -->
<g id="node9" class="node">
<title>document_processor.style_types.CellStyleInfo</title>
<g id="a_node9"><a xlink:title="document_processor.style_types.CellStyleInfo&#10;&#10;Table cell formatting.&#10;">
<polygon fill="none" stroke="black" points="1311.38,-717 1311.38,-739.5 1465.12,-739.5 1465.12,-717 1311.38,-717"/>
<text text-anchor="start" x="1350.38" y="-724.2" font-family="Times New Roman,Times,Liberation Serif,serif" font-weight="bold" font-size="14.00">CellStyleInfo</text>
<polygon fill="none" stroke="black" points="1311.38,-694.5 1311.38,-717 1405.88,-717 1405.88,-694.5 1311.38,-694.5"/>
<text text-anchor="start" x="1326.75" y="-700.7" font-family="Times New Roman,Times,Liberation Serif,serif" font-size="14.00">background</text>
<polygon fill="none" stroke="black" points="1405.88,-694.5 1405.88,-717 1465.12,-717 1465.12,-694.5 1405.88,-694.5"/>
<text text-anchor="start" x="1408.88" y="-700.7" font-family="Times New Roman,Times,Liberation Serif,serif" font-size="14.00">str | None</text>
<polygon fill="none" stroke="black" points="1311.38,-672 1311.38,-694.5 1405.88,-694.5 1405.88,-672 1311.38,-672"/>
<text text-anchor="start" x="1321.5" y="-678.2" font-family="Times New Roman,Times,Liberation Serif,serif" font-size="14.00">vertical_align</text>
<polygon fill="none" stroke="black" points="1405.88,-672 1405.88,-694.5 1465.12,-694.5 1465.12,-672 1405.88,-672"/>
<text text-anchor="start" x="1408.88" y="-678.2" font-family="Times New Roman,Times,Liberation Serif,serif" font-size="14.00">str | None</text>
<polygon fill="none" stroke="black" points="1311.38,-649.5 1311.38,-672 1405.88,-672 1405.88,-649.5 1311.38,-649.5"/>
<text text-anchor="start" x="1314.38" y="-655.7" font-family="Times New Roman,Times,Liberation Serif,serif" font-size="14.00">horizontal_align</text>
<polygon fill="none" stroke="black" points="1405.88,-649.5 1405.88,-672 1465.12,-672 1465.12,-649.5 1405.88,-649.5"/>
<text text-anchor="start" x="1408.88" y="-655.7" font-family="Times New Roman,Times,Liberation Serif,serif" font-size="14.00">str | None</text>
<polygon fill="none" stroke="black" points="1311.38,-627 1311.38,-649.5 1405.88,-649.5 1405.88,-627 1311.38,-627"/>
<text text-anchor="start" x="1329" y="-633.2" font-family="Times New Roman,Times,Liberation Serif,serif" font-size="14.00">border_top</text>
<polygon fill="none" stroke="black" points="1405.88,-627 1405.88,-649.5 1465.12,-649.5 1465.12,-627 1405.88,-627"/>
<text text-anchor="start" x="1408.88" y="-633.2" font-family="Times New Roman,Times,Liberation Serif,serif" font-size="14.00">str | None</text>
<polygon fill="none" stroke="black" points="1311.38,-604.5 1311.38,-627 1405.88,-627 1405.88,-604.5 1311.38,-604.5"/>
<text text-anchor="start" x="1318.12" y="-610.7" font-family="Times New Roman,Times,Liberation Serif,serif" font-size="14.00">border_bottom</text>
<polygon fill="none" stroke="black" points="1405.88,-604.5 1405.88,-627 1465.12,-627 1465.12,-604.5 1405.88,-604.5"/>
<text text-anchor="start" x="1408.88" y="-610.7" font-family="Times New Roman,Times,Liberation Serif,serif" font-size="14.00">str | None</text>
<polygon fill="none" stroke="black" points="1311.38,-582 1311.38,-604.5 1405.88,-604.5 1405.88,-582 1311.38,-582"/>
<text text-anchor="start" x="1328.62" y="-588.2" font-family="Times New Roman,Times,Liberation Serif,serif" font-size="14.00">border_left</text>
<polygon fill="none" stroke="black" points="1405.88,-582 1405.88,-604.5 1465.12,-604.5 1465.12,-582 1405.88,-582"/>
<text text-anchor="start" x="1408.88" y="-588.2" font-family="Times New Roman,Times,Liberation Serif,serif" font-size="14.00">str | None</text>
<polygon fill="none" stroke="black" points="1311.38,-559.5 1311.38,-582 1405.88,-582 1405.88,-559.5 1311.38,-559.5"/>
<text text-anchor="start" x="1324.88" y="-565.7" font-family="Times New Roman,Times,Liberation Serif,serif" font-size="14.00">border_right</text>
<polygon fill="none" stroke="black" points="1405.88,-559.5 1405.88,-582 1465.12,-582 1465.12,-559.5 1405.88,-559.5"/>
<text text-anchor="start" x="1408.88" y="-565.7" font-family="Times New Roman,Times,Liberation Serif,serif" font-size="14.00">str | None</text>
<polygon fill="none" stroke="black" points="1311.38,-537 1311.38,-559.5 1405.88,-559.5 1405.88,-537 1311.38,-537"/>
<text text-anchor="start" x="1335.75" y="-543.2" font-family="Times New Roman,Times,Liberation Serif,serif" font-size="14.00">rowspan</text>
<polygon fill="none" stroke="black" points="1405.88,-537 1405.88,-559.5 1465.12,-559.5 1465.12,-537 1405.88,-537"/>
<text text-anchor="start" x="1428.38" y="-543.2" font-family="Times New Roman,Times,Liberation Serif,serif" font-size="14.00">int</text>
<polygon fill="none" stroke="black" points="1311.38,-514.5 1311.38,-537 1405.88,-537 1405.88,-514.5 1311.38,-514.5"/>
<text text-anchor="start" x="1338" y="-520.7" font-family="Times New Roman,Times,Liberation Serif,serif" font-size="14.00">colspan</text>
<polygon fill="none" stroke="black" points="1405.88,-514.5 1405.88,-537 1465.12,-537 1465.12,-514.5 1405.88,-514.5"/>
<text text-anchor="start" x="1428.38" y="-520.7" font-family="Times New Roman,Times,Liberation Serif,serif" font-size="14.00">int</text>
</a>
</g>
</g>
<!-- document_processor.models.TableCellIR&#45;&gt;document_processor.style_types.CellStyleInfo -->
<g id="edge7" class="edge">
<title>document_processor.models.TableCellIR:e&#45;&gt;document_processor.style_types.CellStyleInfo:w</title>
<path fill="none" stroke="black" d="M1182.94,-487.32C1285.63,-499.65 1198.96,-708.2 1295.5,-726.91"/>
<polyline fill="none" stroke="black" points="1173,-486.75 1177.99,-487.04"/>
<polyline fill="none" stroke="black" points="1177.99,-487.04 1182.98,-487.32"/>
<polyline fill="none" stroke="black" points="1310.38,-728.25 1305.4,-727.8"/>
<polygon fill="black" stroke="black" points="1304.85,-722.73 1303.95,-732.69 1301.96,-732.51 1302.86,-722.55 1304.85,-722.73"/>
<polyline fill="none" stroke="black" points="1305.4,-727.8 1300.42,-727.35"/>
<polygon fill="black" stroke="black" points="1299.87,-722.28 1298.97,-732.24 1296.98,-732.06 1297.88,-722.1 1299.87,-722.28"/>
<polyline fill="none" stroke="black" points="1300.42,-727.35 1295.44,-726.9"/>
</g>
<!-- document_processor.models.TableCellParagraphIR&#45;&gt;document_processor.models.RunIR -->
<g id="edge8" class="edge">
<title>document_processor.models.TableCellParagraphIR:e&#45;&gt;document_processor.models.RunIR:w</title>
<path fill="none" stroke="black" d="M1505.48,-354.29C1542.09,-350.77 1554.11,-328.3 1588.51,-323.08"/>
<polyline fill="none" stroke="black" points="1495.5,-354.75 1500.49,-354.52"/>
<polyline fill="none" stroke="black" points="1500.49,-354.52 1505.49,-354.29"/>
<polygon fill="black" stroke="black" points="1593.19,-322.74 1603.49,-326.51 1598.51,-322.36 1602.83,-322.05 1602.83,-322.05 1602.83,-322.05 1598.51,-322.36 1602.84,-317.54 1593.19,-322.74"/>
<polyline fill="none" stroke="black" points="1591.98,-322.83 1586.99,-323.19"/>
</g>
<!-- document_processor.models.TableCellParagraphIR&#45;&gt;document_processor.style_types.ParaStyleInfo -->
<g id="edge9" class="edge">
<title>document_processor.models.TableCellParagraphIR:e&#45;&gt;document_processor.style_types.ParaStyleInfo:w</title>
<path fill="none" stroke="black" d="M1505.42,-377.84C1607.44,-390.61 1507.24,-606.49 1602.69,-625.86"/>
<polyline fill="none" stroke="black" points="1495.5,-377.25 1500.49,-377.55"/>
<polyline fill="none" stroke="black" points="1500.49,-377.55 1505.48,-377.84"/>
<polyline fill="none" stroke="black" points="1617.5,-627.25 1612.52,-626.78"/>
<polygon fill="black" stroke="black" points="1611.99,-621.71 1611.06,-631.67 1609.07,-631.48 1610,-621.53 1611.99,-621.71"/>
<polyline fill="none" stroke="black" points="1612.52,-626.78 1607.54,-626.32"/>
<polygon fill="black" stroke="black" points="1607.01,-621.25 1606.08,-631.2 1604.09,-631.02 1605.02,-621.06 1607.01,-621.25"/>
<polyline fill="none" stroke="black" points="1607.54,-626.32 1602.57,-625.85"/>
</g>
</g>
</svg>
