<?xml version="1.0" encoding="UTF-8" standalone="no"?>
<!DOCTYPE svg PUBLIC "-//W3C//DTD SVG 1.1//EN"
 "http://www.w3.org/Graphics/SVG/1.1/DTD/svg11.dtd">
<!-- Generated by graphviz version 14.1.4 (0)
 -->
<!-- Title: document_processor Pages: 1 -->
<svg width="6187pt" height="592pt"
 viewBox="0.00 0.00 6187.00 592.00" xmlns="http://www.w3.org/2000/svg" xmlns:xlink="http://www.w3.org/1999/xlink">
<g id="graph0" class="graph" transform="scale(1 1) rotate(0) translate(4 587.98)">
<title>document_processor</title>
<polygon fill="white" stroke="none" points="-4,4 -4,-587.98 6183.25,-587.98 6183.25,4 -4,4"/>
<!-- document_processor.models.RunIR -->
<g id="node1" class="node">
<title>document_processor.models.RunIR</title>
<polygon fill="none" stroke="black" points="4552.25,-417.83 4552.25,-485.83 5114.5,-485.83 5114.5,-417.83 4552.25,-417.83"/>
<text xml:space="preserve" text-anchor="middle" x="4574.5" y="-448.33" font-family="Helvetica,sans-Serif" font-size="10.00">RunIR</text>
<polyline fill="none" stroke="black" points="4596.75,-417.83 4596.75,-485.83"/>
<text xml:space="preserve" text-anchor="middle" x="4617.88" y="-448.33" font-family="Helvetica,sans-Serif" font-size="10.00">Fields</text>
<polyline fill="none" stroke="black" points="4639,-417.83 4639,-485.83"/>
<text xml:space="preserve" text-anchor="start" x="4647" y="-472.33" font-family="Helvetica,sans-Serif" font-size="10.00">meta: T | NoneType</text>
<text xml:space="preserve" text-anchor="start" x="4647" y="-460.33" font-family="Helvetica,sans-Serif" font-size="10.00">node_id: str | NoneType</text>
<text xml:space="preserve" text-anchor="start" x="4647" y="-448.33" font-family="Helvetica,sans-Serif" font-size="10.00">text: str</text>
<text xml:space="preserve" text-anchor="start" x="4647" y="-436.33" font-family="Helvetica,sans-Serif" font-size="10.00">run_style: RunStyleInfo | NoneType</text>
<text xml:space="preserve" text-anchor="start" x="4647" y="-424.33" font-family="Helvetica,sans-Serif" font-size="10.00">native_anchor: NativeAnchor | NoneType</text>
<polyline fill="none" stroke="black" points="4833.5,-417.83 4833.5,-485.83"/>
<text xml:space="preserve" text-anchor="middle" x="4860.25" y="-448.33" font-family="Helvetica,sans-Serif" font-size="10.00">Methods</text>
<polyline fill="none" stroke="black" points="4887,-417.83 4887,-485.83"/>
<text xml:space="preserve" text-anchor="start" x="4895" y="-448.33" font-family="Helvetica,sans-Serif" font-size="10.00">model_post_init(_RunIR__context: Any) &#45;&gt; None</text>
</g>
<!-- document_processor.style_types.RunStyleInfo -->
<g id="node8" class="node">
<title>document_processor.style_types.RunStyleInfo</title>
<polygon fill="none" stroke="black" points="5428.38,-364.83 5428.38,-480.83 5668.38,-480.83 5668.38,-364.83 5428.38,-364.83"/>
<text xml:space="preserve" text-anchor="middle" x="5464.88" y="-419.33" font-family="Helvetica,sans-Serif" font-size="10.00">RunStyleInfo</text>
<polyline fill="none" stroke="black" points="5501.38,-364.83 5501.38,-480.83"/>
<text xml:space="preserve" text-anchor="middle" x="5522.5" y="-419.33" font-family="Helvetica,sans-Serif" font-size="10.00">Fields</text>
<polyline fill="none" stroke="black" points="5543.62,-364.83 5543.62,-480.83"/>
<text xml:space="preserve" text-anchor="start" x="5551.62" y="-467.33" font-family="Helvetica,sans-Serif" font-size="10.00">bold: bool</text>
<text xml:space="preserve" text-anchor="start" x="5551.62" y="-455.33" font-family="Helvetica,sans-Serif" font-size="10.00">italic: bool</text>
<text xml:space="preserve" text-anchor="start" x="5551.62" y="-443.33" font-family="Helvetica,sans-Serif" font-size="10.00">underline: bool</text>
<text xml:space="preserve" text-anchor="start" x="5551.62" y="-431.33" font-family="Helvetica,sans-Serif" font-size="10.00">strikethrough: bool</text>
<text xml:space="preserve" text-anchor="start" x="5551.62" y="-419.33" font-family="Helvetica,sans-Serif" font-size="10.00">superscript: bool</text>
<text xml:space="preserve" text-anchor="start" x="5551.62" y="-407.33" font-family="Helvetica,sans-Serif" font-size="10.00">subscript: bool</text>
<text xml:space="preserve" text-anchor="start" x="5551.62" y="-395.33" font-family="Helvetica,sans-Serif" font-size="10.00">color: str | NoneType</text>
<text xml:space="preserve" text-anchor="start" x="5551.62" y="-383.33" font-family="Helvetica,sans-Serif" font-size="10.00">highlight: str | NoneType</text>
<text xml:space="preserve" text-anchor="start" x="5551.62" y="-371.33" font-family="Helvetica,sans-Serif" font-size="10.00">size_pt: float | NoneType</text>
</g>
<!-- document_processor.models.RunIR&#45;&gt;document_processor.style_types.RunStyleInfo -->
<g id="edge8" class="edge">
<title>document_processor.models.RunIR&#45;&gt;document_processor.style_types.RunStyleInfo</title>
<path fill="none" stroke="black" d="M5114.89,-440.42C5219.06,-436.19 5332.29,-431.58 5416.76,-428.15"/>
<polygon fill="black" stroke="black" points="5416.86,-431.64 5426.71,-427.74 5416.58,-424.65 5416.86,-431.64"/>
</g>
<!-- document_processor.models.ImageAsset -->
<g id="node2" class="node">
<title>document_processor.models.ImageAsset</title>
<polygon fill="none" stroke="black" points="3308.75,-87.83 3308.75,-167.83 4378,-167.83 4378,-87.83 3308.75,-87.83"/>
<text xml:space="preserve" text-anchor="middle" x="3343" y="-124.33" font-family="Helvetica,sans-Serif" font-size="10.00">ImageAsset</text>
<polyline fill="none" stroke="black" points="3377.25,-87.83 3377.25,-167.83"/>
<text xml:space="preserve" text-anchor="middle" x="3398.38" y="-124.33" font-family="Helvetica,sans-Serif" font-size="10.00">Fields</text>
<polyline fill="none" stroke="black" points="3419.5,-87.83 3419.5,-167.83"/>
<text xml:space="preserve" text-anchor="start" x="3427.5" y="-154.33" font-family="Helvetica,sans-Serif" font-size="10.00">meta: T | NoneType</text>
<text xml:space="preserve" text-anchor="start" x="3427.5" y="-142.33" font-family="Helvetica,sans-Serif" font-size="10.00">mime_type: str</text>
<text xml:space="preserve" text-anchor="start" x="3427.5" y="-130.33" font-family="Helvetica,sans-Serif" font-size="10.00">filename: str | NoneType</text>
<text xml:space="preserve" text-anchor="start" x="3427.5" y="-118.33" font-family="Helvetica,sans-Serif" font-size="10.00">data_base64: str</text>
<text xml:space="preserve" text-anchor="start" x="3427.5" y="-106.33" font-family="Helvetica,sans-Serif" font-size="10.00">intrinsic_width_px: int | NoneType</text>
<text xml:space="preserve" text-anchor="start" x="3427.5" y="-94.33" font-family="Helvetica,sans-Serif" font-size="10.00">intrinsic_height_px: int | NoneType</text>
<polyline fill="none" stroke="black" points="3585.5,-87.83 3585.5,-167.83"/>
<text xml:space="preserve" text-anchor="middle" x="3612.25" y="-124.33" font-family="Helvetica,sans-Serif" font-size="10.00">Methods</text>
<polyline fill="none" stroke="black" points="3639,-87.83 3639,-167.83"/>
<text xml:space="preserve" text-anchor="start" x="3647" y="-136.33" font-family="Helvetica,sans-Serif" font-size="10.00">from_bytes(data: bytes, mime_type: str, filename: str | None = None, intrinsic_width_px: int | None = None, intrinsic_height_px: int | None = None) &#45;&gt; &#39;ImageAsset[T]&#39;</text>
<text xml:space="preserve" text-anchor="start" x="3647" y="-124.33" font-family="Helvetica,sans-Serif" font-size="10.00">bytes_data() &#45;&gt; bytes</text>
<text xml:space="preserve" text-anchor="start" x="3647" y="-112.33" font-family="Helvetica,sans-Serif" font-size="10.00">as_data_url() &#45;&gt; str</text>
</g>
<!-- document_processor.models.ImageIR -->
<g id="node3" class="node">
<title>document_processor.models.ImageIR</title>
<polygon fill="none" stroke="black" points="4543.25,-192.83 4543.25,-284.83 5123.5,-284.83 5123.5,-192.83 4543.25,-192.83"/>
<text xml:space="preserve" text-anchor="middle" x="4570" y="-235.33" font-family="Helvetica,sans-Serif" font-size="10.00">ImageIR</text>
<polyline fill="none" stroke="black" points="4596.75,-192.83 4596.75,-284.83"/>
<text xml:space="preserve" text-anchor="middle" x="4617.88" y="-235.33" font-family="Helvetica,sans-Serif" font-size="10.00">Fields</text>
<polyline fill="none" stroke="black" points="4639,-192.83 4639,-284.83"/>
<text xml:space="preserve" text-anchor="start" x="4647" y="-271.33" font-family="Helvetica,sans-Serif" font-size="10.00">node_id: str | NoneType</text>
<text xml:space="preserve" text-anchor="start" x="4647" y="-259.33" font-family="Helvetica,sans-Serif" font-size="10.00">image_id: str</text>
<text xml:space="preserve" text-anchor="start" x="4647" y="-247.33" font-family="Helvetica,sans-Serif" font-size="10.00">alt_text: str | NoneType</text>
<text xml:space="preserve" text-anchor="start" x="4647" y="-235.33" font-family="Helvetica,sans-Serif" font-size="10.00">title: str | NoneType</text>
<text xml:space="preserve" text-anchor="start" x="4647" y="-223.33" font-family="Helvetica,sans-Serif" font-size="10.00">display_width_pt: float | NoneType</text>
<text xml:space="preserve" text-anchor="start" x="4647" y="-211.33" font-family="Helvetica,sans-Serif" font-size="10.00">display_height_pt: float | NoneType</text>
<text xml:space="preserve" text-anchor="start" x="4647" y="-199.33" font-family="Helvetica,sans-Serif" font-size="10.00">native_anchor: NativeAnchor | NoneType</text>
<polyline fill="none" stroke="black" points="4833.5,-192.83 4833.5,-284.83"/>
<text xml:space="preserve" text-anchor="middle" x="4860.25" y="-235.33" font-family="Helvetica,sans-Serif" font-size="10.00">Methods</text>
<polyline fill="none" stroke="black" points="4887,-192.83 4887,-284.83"/>
<text xml:space="preserve" text-anchor="start" x="4895" y="-235.33" font-family="Helvetica,sans-Serif" font-size="10.00">model_post_init(_ImageIR__context: Any) &#45;&gt; None</text>
</g>
<!-- document_processor.models.ParagraphIR -->
<g id="node4" class="node">
<title>document_processor.models.ParagraphIR</title>
<polygon fill="none" stroke="black" points="3428.12,-186.83 3428.12,-290.83 4258.62,-290.83 4258.62,-186.83 3428.12,-186.83"/>
<text xml:space="preserve" text-anchor="middle" x="3463.5" y="-235.33" font-family="Helvetica,sans-Serif" font-size="10.00">ParagraphIR</text>
<polyline fill="none" stroke="black" points="3498.88,-186.83 3498.88,-290.83"/>
<text xml:space="preserve" text-anchor="middle" x="3520" y="-235.33" font-family="Helvetica,sans-Serif" font-size="10.00">Fields</text>
<polyline fill="none" stroke="black" points="3541.12,-186.83 3541.12,-290.83"/>
<text xml:space="preserve" text-anchor="start" x="3549.12" y="-277.33" font-family="Helvetica,sans-Serif" font-size="10.00">meta: T | NoneType</text>
<text xml:space="preserve" text-anchor="start" x="3549.12" y="-265.33" font-family="Helvetica,sans-Serif" font-size="10.00">node_id: str | NoneType</text>
<text xml:space="preserve" text-anchor="start" x="3549.12" y="-253.33" font-family="Helvetica,sans-Serif" font-size="10.00">text: str</text>
<text xml:space="preserve" text-anchor="start" x="3549.12" y="-241.33" font-family="Helvetica,sans-Serif" font-size="10.00">page_number: int | NoneType</text>
<text xml:space="preserve" text-anchor="start" x="3549.12" y="-229.33" font-family="Helvetica,sans-Serif" font-size="10.00">column_layout: ColumnLayoutInfo | NoneType</text>
<text xml:space="preserve" text-anchor="start" x="3549.12" y="-217.33" font-family="Helvetica,sans-Serif" font-size="10.00">para_style: ParaStyleInfo | NoneType</text>
<text xml:space="preserve" text-anchor="start" x="3549.12" y="-205.33" font-family="Helvetica,sans-Serif" font-size="10.00">content: list[RunIR | ImageIR | TableIR]</text>
<text xml:space="preserve" text-anchor="start" x="3549.12" y="-193.33" font-family="Helvetica,sans-Serif" font-size="10.00">native_anchor: NativeAnchor | NoneType</text>
<polyline fill="none" stroke="black" points="3758.12,-186.83 3758.12,-290.83"/>
<text xml:space="preserve" text-anchor="middle" x="3788.25" y="-235.33" font-family="Helvetica,sans-Serif" font-size="10.00">Properties</text>
<polyline fill="none" stroke="black" points="3818.38,-186.83 3818.38,-290.83"/>
<text xml:space="preserve" text-anchor="start" x="3826.38" y="-247.33" font-family="Helvetica,sans-Serif" font-size="10.00">@ runs: property</text>
<text xml:space="preserve" text-anchor="start" x="3826.38" y="-235.33" font-family="Helvetica,sans-Serif" font-size="10.00">@ images: property</text>
<text xml:space="preserve" text-anchor="start" x="3826.38" y="-223.33" font-family="Helvetica,sans-Serif" font-size="10.00">@ tables: property</text>
<polyline fill="none" stroke="black" points="3920.62,-186.83 3920.62,-290.83"/>
<text xml:space="preserve" text-anchor="middle" x="3947.38" y="-235.33" font-family="Helvetica,sans-Serif" font-size="10.00">Methods</text>
<polyline fill="none" stroke="black" points="3974.12,-186.83 3974.12,-290.83"/>
<text xml:space="preserve" text-anchor="start" x="3982.12" y="-265.33" font-family="Helvetica,sans-Serif" font-size="10.00">model_post_init(_ParagraphIR__context: Any) &#45;&gt; None</text>
<text xml:space="preserve" text-anchor="start" x="3982.12" y="-253.33" font-family="Helvetica,sans-Serif" font-size="10.00">append_content(node: &#39;ParagraphContentNode&#39;) &#45;&gt; None</text>
<text xml:space="preserve" text-anchor="start" x="3982.12" y="-241.33" font-family="Helvetica,sans-Serif" font-size="10.00">extend_content(nodes: list[&#39;ParagraphContentNode&#39;]) &#45;&gt; None</text>
<text xml:space="preserve" text-anchor="start" x="3982.12" y="-229.33" font-family="Helvetica,sans-Serif" font-size="10.00">sort_content(key) &#45;&gt; None</text>
<text xml:space="preserve" text-anchor="start" x="3982.12" y="-217.33" font-family="Helvetica,sans-Serif" font-size="10.00">iter_all_runs(include_table_runs: bool = True)</text>
<text xml:space="preserve" text-anchor="start" x="3982.12" y="-205.33" font-family="Helvetica,sans-Serif" font-size="10.00">recompute_text() &#45;&gt; None</text>
</g>
<!-- document_processor.models.ParagraphIR&#45;&gt;document_processor.models.RunIR -->
<g id="edge3" class="edge">
<title>document_processor.models.ParagraphIR&#45;&gt;document_processor.models.RunIR</title>
<path fill="none" stroke="black" d="M4259.09,-273.04C4302.21,-289.11 4342.98,-310.79 4378,-339.83 4394.9,-353.85 4380.3,-370.49 4396,-385.83 4417.32,-406.67 4429.99,-401.97 4459,-408.83 4485.35,-415.07 4512.96,-420.41 4540.74,-424.99"/>
<polygon fill="black" stroke="black" points="4539.88,-428.39 4550.31,-426.53 4541,-421.48 4539.88,-428.39"/>
</g>
<!-- document_processor.models.ParagraphIR&#45;&gt;document_processor.models.ImageIR -->
<g id="edge4" class="edge">
<title>document_processor.models.ParagraphIR&#45;&gt;document_processor.models.ImageIR</title>
<path fill="none" stroke="black" d="M4259.08,-238.83C4350.43,-238.83 4445.49,-238.83 4531.33,-238.83"/>
<polygon fill="black" stroke="black" points="4531.33,-242.33 4541.33,-238.83 4531.33,-235.33 4531.33,-242.33"/>
</g>
<!-- document_processor.models.TableIR -->
<g id="node6" class="node">
<title>document_processor.models.TableIR</title>
<polygon fill="none" stroke="black" points="4459,-81.83 4459,-173.83 5207.75,-173.83 5207.75,-81.83 4459,-81.83"/>
<text xml:space="preserve" text-anchor="middle" x="4483.88" y="-124.33" font-family="Helvetica,sans-Serif" font-size="10.00">TableIR</text>
<polyline fill="none" stroke="black" points="4508.75,-81.83 4508.75,-173.83"/>
<text xml:space="preserve" text-anchor="middle" x="4529.88" y="-124.33" font-family="Helvetica,sans-Serif" font-size="10.00">Fields</text>
<polyline fill="none" stroke="black" points="4551,-81.83 4551,-173.83"/>
<text xml:space="preserve" text-anchor="start" x="4559" y="-160.33" font-family="Helvetica,sans-Serif" font-size="10.00">meta: T | NoneType</text>
<text xml:space="preserve" text-anchor="start" x="4559" y="-148.33" font-family="Helvetica,sans-Serif" font-size="10.00">node_id: str | NoneType</text>
<text xml:space="preserve" text-anchor="start" x="4559" y="-136.33" font-family="Helvetica,sans-Serif" font-size="10.00">row_count: int</text>
<text xml:space="preserve" text-anchor="start" x="4559" y="-124.33" font-family="Helvetica,sans-Serif" font-size="10.00">col_count: int</text>
<text xml:space="preserve" text-anchor="start" x="4559" y="-112.33" font-family="Helvetica,sans-Serif" font-size="10.00">table_style: TableStyleInfo | NoneType</text>
<text xml:space="preserve" text-anchor="start" x="4559" y="-100.33" font-family="Helvetica,sans-Serif" font-size="10.00">cells: list[TableCellIR]</text>
<text xml:space="preserve" text-anchor="start" x="4559" y="-88.33" font-family="Helvetica,sans-Serif" font-size="10.00">native_anchor: NativeAnchor | NoneType</text>
<polyline fill="none" stroke="black" points="4745.5,-81.83 4745.5,-173.83"/>
<text xml:space="preserve" text-anchor="middle" x="4775.62" y="-124.33" font-family="Helvetica,sans-Serif" font-size="10.00">Properties</text>
<polyline fill="none" stroke="black" points="4805.75,-81.83 4805.75,-173.83"/>
<text xml:space="preserve" text-anchor="start" x="4813.75" y="-124.33" font-family="Helvetica,sans-Serif" font-size="10.00">@ markdown: property</text>
<polyline fill="none" stroke="black" points="4921.5,-81.83 4921.5,-173.83"/>
<text xml:space="preserve" text-anchor="middle" x="4948.25" y="-124.33" font-family="Helvetica,sans-Serif" font-size="10.00">Methods</text>
<polyline fill="none" stroke="black" points="4975,-81.83 4975,-173.83"/>
<text xml:space="preserve" text-anchor="start" x="4983" y="-124.33" font-family="Helvetica,sans-Serif" font-size="10.00">model_post_init(_TableIR__context: Any) &#45;&gt; None</text>
</g>
<!-- document_processor.models.ParagraphIR&#45;&gt;document_processor.models.TableIR -->
<g id="edge5" class="edge">
<title>document_processor.models.ParagraphIR&#45;&gt;document_processor.models.TableIR</title>
<path fill="none" stroke="black" d="M4259.08,-192.24C4321.6,-185.22 4385.86,-178 4447.71,-171.05"/>
<polygon fill="black" stroke="black" points="4447.78,-174.56 4457.32,-169.97 4447,-167.61 4447.78,-174.56"/>
</g>
<!-- document_processor.style_types.ParaStyleInfo -->
<g id="node9" class="node">
<title>document_processor.style_types.ParaStyleInfo</title>
<polygon fill="none" stroke="black" points="5402.12,-277.83 5402.12,-345.83 5694.62,-345.83 5694.62,-277.83 5402.12,-277.83"/>
<text xml:space="preserve" text-anchor="middle" x="5439.75" y="-308.33" font-family="Helvetica,sans-Serif" font-size="10.00">ParaStyleInfo</text>
<polyline fill="none" stroke="black" points="5477.38,-277.83 5477.38,-345.83"/>
<text xml:space="preserve" text-anchor="middle" x="5498.5" y="-308.33" font-family="Helvetica,sans-Serif" font-size="10.00">Fields</text>
<polyline fill="none" stroke="black" points="5519.62,-277.83 5519.62,-345.83"/>
<text xml:space="preserve" text-anchor="start" x="5527.62" y="-332.33" font-family="Helvetica,sans-Serif" font-size="10.00">align: str | NoneType</text>
<text xml:space="preserve" text-anchor="start" x="5527.62" y="-320.33" font-family="Helvetica,sans-Serif" font-size="10.00">left_indent_pt: float | NoneType</text>
<text xml:space="preserve" text-anchor="start" x="5527.62" y="-308.33" font-family="Helvetica,sans-Serif" font-size="10.00">right_indent_pt: float | NoneType</text>
<text xml:space="preserve" text-anchor="start" x="5527.62" y="-296.33" font-family="Helvetica,sans-Serif" font-size="10.00">first_line_indent_pt: float | NoneType</text>
<text xml:space="preserve" text-anchor="start" x="5527.62" y="-284.33" font-family="Helvetica,sans-Serif" font-size="10.00">hanging_indent_pt: float | NoneType</text>
</g>
<!-- document_processor.models.ParagraphIR&#45;&gt;document_processor.style_types.ParaStyleInfo -->
<g id="edge9" class="edge">
<title>document_processor.models.ParagraphIR&#45;&gt;document_processor.style_types.ParaStyleInfo</title>
<path fill="none" stroke="black" d="M4258.99,-280.89C4325.8,-286.44 4394.27,-291.38 4459,-294.83 4790.22,-312.48 5178.88,-313.92 5390.52,-313.08"/>
<polygon fill="black" stroke="black" points="5390.52,-316.58 5400.5,-313.04 5390.49,-309.58 5390.52,-316.58"/>
</g>
<!-- document_processor.models.TableCellIR -->
<g id="node5" class="node">
<title>document_processor.models.TableCellIR</title>
<polygon fill="none" stroke="black" points="5244.75,-75.83 5244.75,-179.83 5852,-179.83 5852,-75.83 5244.75,-75.83"/>
<text xml:space="preserve" text-anchor="middle" x="5278.25" y="-124.33" font-family="Helvetica,sans-Serif" font-size="10.00">TableCellIR</text>
<polyline fill="none" stroke="black" points="5311.75,-75.83 5311.75,-179.83"/>
<text xml:space="preserve" text-anchor="middle" x="5332.88" y="-124.33" font-family="Helvetica,sans-Serif" font-size="10.00">Fields</text>
<polyline fill="none" stroke="black" points="5354,-75.83 5354,-179.83"/>
<text xml:space="preserve" text-anchor="start" x="5362" y="-166.33" font-family="Helvetica,sans-Serif" font-size="10.00">meta: T | NoneType</text>
<text xml:space="preserve" text-anchor="start" x="5362" y="-154.33" font-family="Helvetica,sans-Serif" font-size="10.00">node_id: str | NoneType</text>
<text xml:space="preserve" text-anchor="start" x="5362" y="-142.33" font-family="Helvetica,sans-Serif" font-size="10.00">row_index: int</text>
<text xml:space="preserve" text-anchor="start" x="5362" y="-130.33" font-family="Helvetica,sans-Serif" font-size="10.00">col_index: int</text>
<text xml:space="preserve" text-anchor="start" x="5362" y="-118.33" font-family="Helvetica,sans-Serif" font-size="10.00">text: str</text>
<text xml:space="preserve" text-anchor="start" x="5362" y="-106.33" font-family="Helvetica,sans-Serif" font-size="10.00">cell_style: CellStyleInfo | NoneType</text>
<text xml:space="preserve" text-anchor="start" x="5362" y="-94.33" font-family="Helvetica,sans-Serif" font-size="10.00">paragraphs: list[ParagraphIR]</text>
<text xml:space="preserve" text-anchor="start" x="5362" y="-82.33" font-family="Helvetica,sans-Serif" font-size="10.00">native_anchor: NativeAnchor | NoneType</text>
<polyline fill="none" stroke="black" points="5548.5,-75.83 5548.5,-179.83"/>
<text xml:space="preserve" text-anchor="middle" x="5575.25" y="-124.33" font-family="Helvetica,sans-Serif" font-size="10.00">Methods</text>
<polyline fill="none" stroke="black" points="5602,-75.83 5602,-179.83"/>
<text xml:space="preserve" text-anchor="start" x="5610" y="-130.33" font-family="Helvetica,sans-Serif" font-size="10.00">model_post_init(_TableCellIR__context: Any) &#45;&gt; None</text>
<text xml:space="preserve" text-anchor="start" x="5610" y="-118.33" font-family="Helvetica,sans-Serif" font-size="10.00">recompute_text() &#45;&gt; None</text>
</g>
<!-- document_processor.models.TableCellIR&#45;&gt;document_processor.models.ParagraphIR -->
<g id="edge7" class="edge">
<title>document_processor.models.TableCellIR&#45;&gt;document_processor.models.ParagraphIR</title>
<path fill="none" stroke="black" d="M5244.47,-75.34C5232.09,-74 5219.81,-72.82 5207.75,-71.83 4876.08,-44.67 4757.65,74.97 4459,-71.83 4406.11,-97.83 4429.3,-147.82 4378,-176.83 4344.33,-195.88 4307.56,-210.37 4269.58,-221.3"/>
<polygon fill="black" stroke="black" points="4269,-217.83 4260.3,-223.89 4270.87,-224.58 4269,-217.83"/>
</g>
<!-- document_processor.style_types.CellStyleInfo -->
<g id="node10" class="node">
<title>document_processor.style_types.CellStyleInfo</title>
<polygon fill="none" stroke="black" points="5889,-214.83 5889,-426.83 6179.25,-426.83 6179.25,-214.83 5889,-214.83"/>
<text xml:space="preserve" text-anchor="middle" x="5925.12" y="-317.33" font-family="Helvetica,sans-Serif" font-size="10.00">CellStyleInfo</text>
<polyline fill="none" stroke="black" points="5961.25,-214.83 5961.25,-426.83"/>
<text xml:space="preserve" text-anchor="middle" x="5982.38" y="-317.33" font-family="Helvetica,sans-Serif" font-size="10.00">Fields</text>
<polyline fill="none" stroke="black" points="6003.5,-214.83 6003.5,-426.83"/>
<text xml:space="preserve" text-anchor="start" x="6011.5" y="-413.33" font-family="Helvetica,sans-Serif" font-size="10.00">background: str | NoneType</text>
<text xml:space="preserve" text-anchor="start" x="6011.5" y="-401.33" font-family="Helvetica,sans-Serif" font-size="10.00">vertical_align: str | NoneType</text>
<text xml:space="preserve" text-anchor="start" x="6011.5" y="-389.33" font-family="Helvetica,sans-Serif" font-size="10.00">horizontal_align: str | NoneType</text>
<text xml:space="preserve" text-anchor="start" x="6011.5" y="-377.33" font-family="Helvetica,sans-Serif" font-size="10.00">width_pt: float | NoneType</text>
<text xml:space="preserve" text-anchor="start" x="6011.5" y="-365.33" font-family="Helvetica,sans-Serif" font-size="10.00">height_pt: float | NoneType</text>
<text xml:space="preserve" text-anchor="start" x="6011.5" y="-353.33" font-family="Helvetica,sans-Serif" font-size="10.00">padding_top_pt: float | NoneType</text>
<text xml:space="preserve" text-anchor="start" x="6011.5" y="-341.33" font-family="Helvetica,sans-Serif" font-size="10.00">padding_right_pt: float | NoneType</text>
<text xml:space="preserve" text-anchor="start" x="6011.5" y="-329.33" font-family="Helvetica,sans-Serif" font-size="10.00">padding_bottom_pt: float | NoneType</text>
<text xml:space="preserve" text-anchor="start" x="6011.5" y="-317.33" font-family="Helvetica,sans-Serif" font-size="10.00">padding_left_pt: float | NoneType</text>
<text xml:space="preserve" text-anchor="start" x="6011.5" y="-305.33" font-family="Helvetica,sans-Serif" font-size="10.00">border_top: str | NoneType</text>
<text xml:space="preserve" text-anchor="start" x="6011.5" y="-293.33" font-family="Helvetica,sans-Serif" font-size="10.00">border_bottom: str | NoneType</text>
<text xml:space="preserve" text-anchor="start" x="6011.5" y="-281.33" font-family="Helvetica,sans-Serif" font-size="10.00">border_left: str | NoneType</text>
<text xml:space="preserve" text-anchor="start" x="6011.5" y="-269.33" font-family="Helvetica,sans-Serif" font-size="10.00">border_right: str | NoneType</text>
<text xml:space="preserve" text-anchor="start" x="6011.5" y="-257.33" font-family="Helvetica,sans-Serif" font-size="10.00">diagonal_tl_br: str | NoneType</text>
<text xml:space="preserve" text-anchor="start" x="6011.5" y="-245.33" font-family="Helvetica,sans-Serif" font-size="10.00">diagonal_tr_bl: str | NoneType</text>
<text xml:space="preserve" text-anchor="start" x="6011.5" y="-233.33" font-family="Helvetica,sans-Serif" font-size="10.00">rowspan: int</text>
<text xml:space="preserve" text-anchor="start" x="6011.5" y="-221.33" font-family="Helvetica,sans-Serif" font-size="10.00">colspan: int</text>
</g>
<!-- document_processor.models.TableCellIR&#45;&gt;document_processor.style_types.CellStyleInfo -->
<g id="edge10" class="edge">
<title>document_processor.models.TableCellIR&#45;&gt;document_processor.style_types.CellStyleInfo</title>
<path fill="none" stroke="black" d="M5823.22,-180.28C5833.03,-183.89 5842.66,-187.73 5852,-191.83 5863.35,-196.81 5874.69,-202.57 5885.87,-208.84"/>
<polygon fill="black" stroke="black" points="5883.91,-211.75 5894.32,-213.71 5887.41,-205.69 5883.91,-211.75"/>
</g>
<!-- document_processor.models.TableIR&#45;&gt;document_processor.models.TableCellIR -->
<g id="edge6" class="edge">
<title>document_processor.models.TableIR&#45;&gt;document_processor.models.TableCellIR</title>
<path fill="none" stroke="black" d="M5208.1,-127.83C5216.43,-127.83 5224.75,-127.83 5233.04,-127.83"/>
<polygon fill="black" stroke="black" points="5232.8,-131.33 5242.8,-127.83 5232.8,-124.33 5232.8,-131.33"/>
</g>
<!-- document_processor.style_types.TableStyleInfo -->
<g id="node11" class="node">
<title>document_processor.style_types.TableStyleInfo</title>
<polygon fill="none" stroke="black" points="5421.62,-201.83 5421.62,-257.83 5675.12,-257.83 5675.12,-201.83 5421.62,-201.83"/>
<text xml:space="preserve" text-anchor="middle" x="5460.75" y="-226.33" font-family="Helvetica,sans-Serif" font-size="10.00">TableStyleInfo</text>
<polyline fill="none" stroke="black" points="5499.88,-201.83 5499.88,-257.83"/>
<text xml:space="preserve" text-anchor="middle" x="5521" y="-226.33" font-family="Helvetica,sans-Serif" font-size="10.00">Fields</text>
<polyline fill="none" stroke="black" points="5542.12,-201.83 5542.12,-257.83"/>
<text xml:space="preserve" text-anchor="start" x="5550.12" y="-244.33" font-family="Helvetica,sans-Serif" font-size="10.00">row_count: int</text>
<text xml:space="preserve" text-anchor="start" x="5550.12" y="-232.33" font-family="Helvetica,sans-Serif" font-size="10.00">col_count: int</text>
<text xml:space="preserve" text-anchor="start" x="5550.12" y="-220.33" font-family="Helvetica,sans-Serif" font-size="10.00">width_pt: float | NoneType</text>
<text xml:space="preserve" text-anchor="start" x="5550.12" y="-208.33" font-family="Helvetica,sans-Serif" font-size="10.00">height_pt: float | NoneType</text>
</g>
<!-- document_processor.models.TableIR&#45;&gt;document_processor.style_types.TableStyleInfo -->
<g id="edge11" class="edge">
<title>document_processor.models.TableIR&#45;&gt;document_processor.style_types.TableStyleInfo</title>
<path fill="none" stroke="black" d="M5152.18,-174.33C5170.99,-177.18 5189.62,-180.03 5207.75,-182.83 5224.21,-185.38 5228.27,-186.38 5244.75,-188.83 5298.74,-196.87 5358.24,-205.07 5410.1,-212"/>
<polygon fill="black" stroke="black" points="5409.51,-215.46 5419.88,-213.31 5410.43,-208.52 5409.51,-215.46"/>
</g>
<!-- document_processor.models.DocIR -->
<g id="node7" class="node">
<title>document_processor.models.DocIR</title>
<polygon fill="none" stroke="black" points="1724.25,-87.83 1724.25,-191.83 3271.75,-191.83 3271.75,-87.83 1724.25,-87.83"/>
<text xml:space="preserve" text-anchor="middle" x="1746.5" y="-136.33" font-family="Helvetica,sans-Serif" font-size="10.00">DocIR</text>
<polyline fill="none" stroke="black" points="1768.75,-87.83 1768.75,-191.83"/>
<text xml:space="preserve" text-anchor="middle" x="1789.88" y="-136.33" font-family="Helvetica,sans-Serif" font-size="10.00">Fields</text>
<polyline fill="none" stroke="black" points="1811,-87.83 1811,-191.83"/>
<text xml:space="preserve" text-anchor="start" x="1819" y="-178.33" font-family="Helvetica,sans-Serif" font-size="10.00">meta: T | NoneType</text>
<text xml:space="preserve" text-anchor="start" x="1819" y="-166.33" font-family="Helvetica,sans-Serif" font-size="10.00">identity_version: int</text>
<text xml:space="preserve" text-anchor="start" x="1819" y="-154.33" font-family="Helvetica,sans-Serif" font-size="10.00">doc_id: str | NoneType</text>
<text xml:space="preserve" text-anchor="start" x="1819" y="-142.33" font-family="Helvetica,sans-Serif" font-size="10.00">source_path: str | NoneType</text>
<text xml:space="preserve" text-anchor="start" x="1819" y="-130.33" font-family="Helvetica,sans-Serif" font-size="10.00">source_doc_type: str | NoneType</text>
<text xml:space="preserve" text-anchor="start" x="1819" y="-118.33" font-family="Helvetica,sans-Serif" font-size="10.00">assets: dict[str, ImageAsset]</text>
<text xml:space="preserve" text-anchor="start" x="1819" y="-106.33" font-family="Helvetica,sans-Serif" font-size="10.00">pages: list[PageInfo]</text>
<text xml:space="preserve" text-anchor="start" x="1819" y="-94.33" font-family="Helvetica,sans-Serif" font-size="10.00">paragraphs: list[ParagraphIR]</text>
<polyline fill="none" stroke="black" points="1971,-87.83 1971,-191.83"/>
<text xml:space="preserve" text-anchor="middle" x="2001.12" y="-136.33" font-family="Helvetica,sans-Serif" font-size="10.00">Properties</text>
<polyline fill="none" stroke="black" points="2031.25,-87.83 2031.25,-191.83"/>
<text xml:space="preserve" text-anchor="start" x="2039.25" y="-136.33" font-family="Helvetica,sans-Serif" font-size="10.00">@ has_page_metadata: property</text>
<polyline fill="none" stroke="black" points="2189.75,-87.83 2189.75,-191.83"/>
<text xml:space="preserve" text-anchor="middle" x="2216.5" y="-136.33" font-family="Helvetica,sans-Serif" font-size="10.00">Methods</text>
<polyline fill="none" stroke="black" points="2243.25,-87.83 2243.25,-191.83"/>
<text xml:space="preserve" text-anchor="start" x="2251.25" y="-166.33" font-family="Helvetica,sans-Serif" font-size="10.00">model_post_init(_DocIR__context: Any) &#45;&gt; None</text>
<text xml:space="preserve" text-anchor="start" x="2251.25" y="-154.33" font-family="Helvetica,sans-Serif" font-size="10.00">get_image_asset(image_or_id: ImageIR | str) &#45;&gt; ImageAsset[T] | None</text>
<text xml:space="preserve" text-anchor="start" x="2251.25" y="-142.33" font-family="Helvetica,sans-Serif" font-size="10.00">ensure_node_identity() &#45;&gt; &#39;DocIR&#39;</text>
<text xml:space="preserve" text-anchor="start" x="2251.25" y="-130.33" font-family="Helvetica,sans-Serif" font-size="10.00">from_file(source: str | Path | bytes | BinaryIO, doc_type: str = &#39;auto&#39;, include_tables: bool = True, skip_empty: bool = False, metadata: dict[str, Any] | None = None, doc_id: str | None = None, **doc_kwargs: Any) &#45;&gt; &#39;DocIR&#39;</text>
<text xml:space="preserve" text-anchor="start" x="2251.25" y="-118.33" font-family="Helvetica,sans-Serif" font-size="10.00">from_mapping(mapping: dict[str, str], style_map = None, source_path: str | Path | None = None, source_doc_type: str | None = None, metadata: dict[str, Any] | None = None, doc_id: str | None = None, **doc_kwargs: Any) &#45;&gt; &#39;DocIR&#39;</text>
<text xml:space="preserve" text-anchor="start" x="2251.25" y="-106.33" font-family="Helvetica,sans-Serif" font-size="10.00">to_html(title: str | None = None, debug_layout: bool = False) &#45;&gt; str</text>
</g>
<!-- document_processor.models.DocIR&#45;&gt;document_processor.models.ImageAsset -->
<g id="edge2" class="edge">
<title>document_processor.models.DocIR&#45;&gt;document_processor.models.ImageAsset</title>
<path fill="none" stroke="black" d="M3272.18,-132.93C3280.5,-132.85 3288.81,-132.78 3297.08,-132.7"/>
<polygon fill="black" stroke="black" points="3296.87,-136.21 3306.84,-132.62 3296.81,-129.21 3296.87,-136.21"/>
</g>
<!-- document_processor.models.DocIR&#45;&gt;document_processor.models.ParagraphIR -->
<g id="edge1" class="edge">
<title>document_processor.models.DocIR&#45;&gt;document_processor.models.ParagraphIR</title>
<path fill="none" stroke="black" d="M3211.01,-192.3C3281.13,-197.47 3350.67,-202.6 3416.55,-207.45"/>
<polygon fill="black" stroke="black" points="3416.21,-210.94 3426.44,-208.18 3416.72,-203.95 3416.21,-210.94"/>
</g>
<!-- document_processor.style_types.StyleMap -->
<g id="node12" class="node">
<title>document_processor.style_types.StyleMap</title>
<polygon fill="none" stroke="black" points="4699.5,-342.83 4699.5,-398.83 4967.25,-398.83 4967.25,-342.83 4699.5,-342.83"/>
<text xml:space="preserve" text-anchor="middle" x="4728.12" y="-367.33" font-family="Helvetica,sans-Serif" font-size="10.00">StyleMap</text>
<polyline fill="none" stroke="black" points="4756.75,-342.83 4756.75,-398.83"/>
<text xml:space="preserve" text-anchor="middle" x="4777.88" y="-367.33" font-family="Helvetica,sans-Serif" font-size="10.00">Fields</text>
<polyline fill="none" stroke="black" points="4799,-342.83 4799,-398.83"/>
<text xml:space="preserve" text-anchor="start" x="4807" y="-385.33" font-family="Helvetica,sans-Serif" font-size="10.00">runs: dict[str, RunStyleInfo]</text>
<text xml:space="preserve" text-anchor="start" x="4807" y="-373.33" font-family="Helvetica,sans-Serif" font-size="10.00">paragraphs: dict[str, ParaStyleInfo]</text>
<text xml:space="preserve" text-anchor="start" x="4807" y="-361.33" font-family="Helvetica,sans-Serif" font-size="10.00">cells: dict[str, CellStyleInfo]</text>
<text xml:space="preserve" text-anchor="start" x="4807" y="-349.33" font-family="Helvetica,sans-Serif" font-size="10.00">tables: dict[str, TableStyleInfo]</text>
</g>
<!-- document_processor.style_types.StyleMap&#45;&gt;document_processor.style_types.RunStyleInfo -->
<g id="edge12" class="edge">
<title>document_processor.style_types.StyleMap&#45;&gt;document_processor.style_types.RunStyleInfo</title>
<path fill="none" stroke="black" d="M4967.65,-380.55C5096.08,-389.92 5289.18,-404 5416.72,-413.3"/>
<polygon fill="black" stroke="black" points="5416.35,-416.79 5426.58,-414.02 5416.86,-409.8 5416.35,-416.79"/>
</g>
<!-- document_processor.style_types.StyleMap&#45;&gt;document_processor.style_types.ParaStyleInfo -->
<g id="edge13" class="edge">
<title>document_processor.style_types.StyleMap&#45;&gt;document_processor.style_types.ParaStyleInfo</title>
<path fill="none" stroke="black" d="M4967.65,-359.8C5087.57,-349.88 5263.88,-335.29 5390.54,-324.81"/>
<polygon fill="black" stroke="black" points="5390.69,-328.31 5400.37,-324 5390.11,-321.33 5390.69,-328.31"/>
</g>
<!-- document_processor.style_types.StyleMap&#45;&gt;document_processor.style_types.CellStyleInfo -->
<g id="edge14" class="edge">
<title>document_processor.style_types.StyleMap&#45;&gt;document_processor.style_types.CellStyleInfo</title>
<path fill="none" stroke="black" d="M4967.63,-353.38C5044.54,-350.37 5139.28,-359.52 5207.75,-408.83 5240.19,-432.2 5211.16,-469.14 5244.75,-490.83 5471.46,-637.26 5601.05,-590.15 5852,-490.83 5883.34,-478.43 5912.43,-457.75 5937.72,-435.01"/>
<polygon fill="black" stroke="black" points="5940.07,-437.61 5945.04,-428.25 5935.32,-432.46 5940.07,-437.61"/>
</g>
<!-- document_processor.style_types.StyleMap&#45;&gt;document_processor.style_types.TableStyleInfo -->
<g id="edge15" class="edge">
<title>document_processor.style_types.StyleMap&#45;&gt;document_processor.style_types.TableStyleInfo</title>
<path fill="none" stroke="black" d="M4967.53,-357.26C5040.64,-346.5 5131.65,-327.61 5207.75,-294.83 5226.21,-286.88 5226.01,-276.11 5244.75,-268.83 5296.73,-248.65 5357.13,-238.47 5410.24,-233.48"/>
<polygon fill="black" stroke="black" points="5410.29,-236.99 5419.94,-232.63 5409.67,-230.02 5410.29,-236.99"/>
</g>
<!-- document_processor.core.document_ir_parser -->
<g id="node13" class="node">
<title>document_processor.core.document_ir_parser</title>
<path fill="none" stroke="black" d="M12,-121.83C12,-121.83 1624.5,-121.83 1624.5,-121.83 1630.5,-121.83 1636.5,-127.83 1636.5,-133.83 1636.5,-133.83 1636.5,-145.83 1636.5,-145.83 1636.5,-151.83 1630.5,-157.83 1624.5,-157.83 1624.5,-157.83 12,-157.83 12,-157.83 6,-157.83 0,-151.83 0,-145.83 0,-145.83 0,-133.83 0,-133.83 0,-127.83 6,-121.83 12,-121.83"/>
<text xml:space="preserve" text-anchor="middle" x="50.75" y="-136.33" font-family="Helvetica,sans-Serif" font-size="10.00">document_ir_parser</text>
<polyline fill="none" stroke="black" points="101.5,-121.83 101.5,-157.83"/>
<text xml:space="preserve" text-anchor="middle" x="130.88" y="-136.33" font-family="Helvetica,sans-Serif" font-size="10.00">Functions</text>
<polyline fill="none" stroke="black" points="160.25,-121.83 160.25,-157.83"/>
<text xml:space="preserve" text-anchor="start" x="168.25" y="-136.33" font-family="Helvetica,sans-Serif" font-size="10.00">build_doc_ir_from_file(source: &#39;HwpxDocument | DocxDocument | str | Path | bytes&#39;, doc_type: DocType, include_tables: bool = True, skip_empty: bool = False, source_path: str | Path | None = None, metadata: dict[str, Any] | None = None, doc_id: str | None = None, doc_cls: type[DocIR] | None = None, **doc_kwargs: Any) &#45;&gt; DocIR</text>
</g>
<!-- document_processor.core.document_ir_parser&#45;&gt;document_processor.models.DocIR -->
<g id="edge16" class="edge">
<title>document_processor.core.document_ir_parser&#45;&gt;document_processor.models.DocIR</title>
<path fill="none" stroke="black" stroke-dasharray="5,2" d="M1636.93,-139.83C1662.23,-139.83 1687.55,-139.83 1712.81,-139.83"/>
<polygon fill="black" stroke="black" points="1712.51,-143.33 1722.51,-139.83 1712.51,-136.33 1712.51,-143.33"/>
<text xml:space="preserve" text-anchor="middle" x="1680.38" y="-141.78" font-family="Helvetica,sans-Serif" font-size="9.00">uses models</text>
</g>
<!-- document_processor.core.docx_structured_exporter -->
<g id="node14" class="node">
<title>document_processor.core.docx_structured_exporter</title>
<path fill="none" stroke="black" d="M408.38,-176.83C408.38,-176.83 1228.12,-176.83 1228.12,-176.83 1234.12,-176.83 1240.12,-182.83 1240.12,-188.83 1240.12,-188.83 1240.12,-200.83 1240.12,-200.83 1240.12,-206.83 1234.12,-212.83 1228.12,-212.83 1228.12,-212.83 408.38,-212.83 408.38,-212.83 402.38,-212.83 396.38,-206.83 396.38,-200.83 396.38,-200.83 396.38,-188.83 396.38,-188.83 396.38,-182.83 402.38,-176.83 408.38,-176.83"/>
<text xml:space="preserve" text-anchor="middle" x="459.5" y="-191.33" font-family="Helvetica,sans-Serif" font-size="10.00">docx_structured_exporter</text>
<polyline fill="none" stroke="black" points="522.62,-176.83 522.62,-212.83"/>
<text xml:space="preserve" text-anchor="middle" x="552" y="-191.33" font-family="Helvetica,sans-Serif" font-size="10.00">Functions</text>
<polyline fill="none" stroke="black" points="581.38,-176.83 581.38,-212.83"/>
<text xml:space="preserve" text-anchor="start" x="589.38" y="-197.33" font-family="Helvetica,sans-Serif" font-size="10.00">export_docx_structured_mapping(source: &#39;DocxDocument | str | Path | bytes&#39;, include_tables: bool = True, skip_empty: bool = False) &#45;&gt; dict[str, str]</text>
<text xml:space="preserve" text-anchor="start" x="589.38" y="-185.33" font-family="Helvetica,sans-Serif" font-size="10.00">export_structured_mapping(source: &#39;DocxDocument | str | Path | bytes&#39;, include_tables: bool = True, skip_empty: bool = False) &#45;&gt; dict[str, str]</text>
</g>
<!-- document_processor.core.hwp_converter -->
<g id="node15" class="node">
<title>document_processor.core.hwp_converter</title>
<path fill="none" stroke="black" d="M623.25,-231.83C623.25,-231.83 1013.25,-231.83 1013.25,-231.83 1019.25,-231.83 1025.25,-237.83 1025.25,-243.83 1025.25,-243.83 1025.25,-255.83 1025.25,-255.83 1025.25,-261.83 1019.25,-267.83 1013.25,-267.83 1013.25,-267.83 623.25,-267.83 623.25,-267.83 617.25,-267.83 611.25,-261.83 611.25,-255.83 611.25,-255.83 611.25,-243.83 611.25,-243.83 611.25,-237.83 617.25,-231.83 623.25,-231.83"/>
<text xml:space="preserve" text-anchor="middle" x="651.12" y="-246.33" font-family="Helvetica,sans-Serif" font-size="10.00">hwp_converter</text>
<polyline fill="none" stroke="black" points="691,-231.83 691,-267.83"/>
<text xml:space="preserve" text-anchor="middle" x="720.38" y="-246.33" font-family="Helvetica,sans-Serif" font-size="10.00">Functions</text>
<polyline fill="none" stroke="black" points="749.75,-231.83 749.75,-267.83"/>
<text xml:space="preserve" text-anchor="start" x="757.75" y="-252.33" font-family="Helvetica,sans-Serif" font-size="10.00">convert_hwp_to_hwpx_bytes(hwp_path: str | Path) &#45;&gt; bytes</text>
<text xml:space="preserve" text-anchor="start" x="757.75" y="-240.33" font-family="Helvetica,sans-Serif" font-size="10.00">patch_hwpx_container(hwpx_path: str | Path) &#45;&gt; None</text>
</g>
<!-- document_processor.core.hwpx_structured_exporter -->
<g id="node16" class="node">
<title>document_processor.core.hwpx_structured_exporter</title>
<path fill="none" stroke="black" d="M466.5,-286.83C466.5,-286.83 1170,-286.83 1170,-286.83 1176,-286.83 1182,-292.83 1182,-298.83 1182,-298.83 1182,-310.83 1182,-310.83 1182,-316.83 1176,-322.83 1170,-322.83 1170,-322.83 466.5,-322.83 466.5,-322.83 460.5,-322.83 454.5,-316.83 454.5,-310.83 454.5,-310.83 454.5,-298.83 454.5,-298.83 454.5,-292.83 460.5,-286.83 466.5,-286.83"/>
<text xml:space="preserve" text-anchor="middle" x="518.75" y="-301.33" font-family="Helvetica,sans-Serif" font-size="10.00">hwpx_structured_exporter</text>
<polyline fill="none" stroke="black" points="583,-286.83 583,-322.83"/>
<text xml:space="preserve" text-anchor="middle" x="612.38" y="-301.33" font-family="Helvetica,sans-Serif" font-size="10.00">Functions</text>
<polyline fill="none" stroke="black" points="641.75,-286.83 641.75,-322.83"/>
<text xml:space="preserve" text-anchor="start" x="649.75" y="-307.33" font-family="Helvetica,sans-Serif" font-size="10.00">export_hwpx_structured_mapping(source: &#39;HwpxDocument | str | Path | bytes&#39;, skip_empty: bool = False) &#45;&gt; dict[str, str]</text>
<text xml:space="preserve" text-anchor="start" x="649.75" y="-295.33" font-family="Helvetica,sans-Serif" font-size="10.00">export_structured_mapping(source: &#39;HwpxDocument | str | Path | bytes&#39;, skip_empty: bool = False) &#45;&gt; dict[str, str]</text>
</g>
<!-- document_processor.core.structured_mapping_exporter -->
<g id="node17" class="node">
<title>document_processor.core.structured_mapping_exporter</title>
<path fill="none" stroke="black" d="M311.25,-341.83C311.25,-341.83 1325.25,-341.83 1325.25,-341.83 1331.25,-341.83 1337.25,-347.83 1337.25,-353.83 1337.25,-353.83 1337.25,-365.83 1337.25,-365.83 1337.25,-371.83 1331.25,-377.83 1325.25,-377.83 1325.25,-377.83 311.25,-377.83 311.25,-377.83 305.25,-377.83 299.25,-371.83 299.25,-365.83 299.25,-365.83 299.25,-353.83 299.25,-353.83 299.25,-347.83 305.25,-341.83 311.25,-341.83"/>
<text xml:space="preserve" text-anchor="middle" x="370.25" y="-356.33" font-family="Helvetica,sans-Serif" font-size="10.00">structured_mapping_exporter</text>
<polyline fill="none" stroke="black" points="441.25,-341.83 441.25,-377.83"/>
<text xml:space="preserve" text-anchor="middle" x="470.62" y="-356.33" font-family="Helvetica,sans-Serif" font-size="10.00">Functions</text>
<polyline fill="none" stroke="black" points="500,-341.83 500,-377.83"/>
<text xml:space="preserve" text-anchor="start" x="508" y="-356.33" font-family="Helvetica,sans-Serif" font-size="10.00">export_structured_mapping(source: &#39;HwpxDocument | DocxDocument | str | Path | bytes&#39;, doc_type: DocType = &#39;auto&#39;, skip_empty: bool = False, include_tables: bool = True) &#45;&gt; dict[str, str]</text>
</g>
<!-- document_processor.core.style_extractor -->
<g id="node18" class="node">
<title>document_processor.core.style_extractor</title>
<path fill="none" stroke="black" d="M3457.88,-348.83C3457.88,-348.83 4228.88,-348.83 4228.88,-348.83 4234.88,-348.83 4240.88,-354.83 4240.88,-360.83 4240.88,-360.83 4240.88,-380.83 4240.88,-380.83 4240.88,-386.83 4234.88,-392.83 4228.88,-392.83 4228.88,-392.83 3457.88,-392.83 3457.88,-392.83 3451.88,-392.83 3445.88,-386.83 3445.88,-380.83 3445.88,-380.83 3445.88,-360.83 3445.88,-360.83 3445.88,-354.83 3451.88,-348.83 3457.88,-348.83"/>
<text xml:space="preserve" text-anchor="middle" x="3486.12" y="-367.33" font-family="Helvetica,sans-Serif" font-size="10.00">style_extractor</text>
<polyline fill="none" stroke="black" points="3526.38,-348.83 3526.38,-392.83"/>
<text xml:space="preserve" text-anchor="middle" x="3555.75" y="-367.33" font-family="Helvetica,sans-Serif" font-size="10.00">Functions</text>
<polyline fill="none" stroke="black" points="3585.12,-348.83 3585.12,-392.83"/>
<text xml:space="preserve" text-anchor="start" x="3593.12" y="-379.33" font-family="Helvetica,sans-Serif" font-size="10.00">extract_styles(source: &#39;HwpxDocument | DocxDocument | str | Path | bytes&#39;, doc_type: DocType = &#39;auto&#39;, include_tables: bool = True) &#45;&gt; StyleMap</text>
<text xml:space="preserve" text-anchor="start" x="3593.12" y="-367.33" font-family="Helvetica,sans-Serif" font-size="10.00">extract_styles_docx(source: &#39;DocxDocument | str | Path | bytes&#39;, include_tables: bool = True) &#45;&gt; StyleMap</text>
<text xml:space="preserve" text-anchor="start" x="3593.12" y="-355.33" font-family="Helvetica,sans-Serif" font-size="10.00">extract_styles_hwpx(source: &#39;HwpxDocument | str | Path | bytes&#39;) &#45;&gt; StyleMap</text>
</g>
<!-- document_processor.core.style_extractor&#45;&gt;document_processor.style_types.StyleMap -->
<g id="edge17" class="edge">
<title>document_processor.core.style_extractor&#45;&gt;document_processor.style_types.StyleMap</title>
<path fill="none" stroke="black" stroke-dasharray="5,2" d="M4241.25,-370.83C4399,-370.83 4570.5,-370.83 4687.95,-370.83"/>
<polygon fill="black" stroke="black" points="4687.63,-374.33 4697.63,-370.83 4687.63,-367.33 4687.63,-374.33"/>
<text xml:space="preserve" text-anchor="middle" x="4418.5" y="-372.78" font-family="Helvetica,sans-Serif" font-size="9.00">uses styles</text>
</g>
</g>
</svg>
