<?xml version="1.0" encoding="UTF-8" standalone="no"?>
<!DOCTYPE svg PUBLIC "-//W3C//DTD SVG 1.1//EN"
 "http://www.w3.org/Graphics/SVG/1.1/DTD/svg11.dtd">
<!-- Generated by graphviz version 14.1.4 (0)
 -->
<!-- Title: document_processor Pages: 1 -->
<svg width="5745pt" height="517pt"
 viewBox="0.00 0.00 5745.00 517.00" xmlns="http://www.w3.org/2000/svg" xmlns:xlink="http://www.w3.org/1999/xlink">
<g id="graph0" class="graph" transform="scale(1 1) rotate(0) translate(4 513.29)">
<title>document_processor</title>
<polygon fill="white" stroke="none" points="-4,4 -4,-513.29 5741,-513.29 5741,4 -4,4"/>
<!-- document_processor.models.RunIR -->
<g id="node1" class="node">
<title>document_processor.models.RunIR</title>
<polygon fill="none" stroke="black" points="4555.62,-362.96 4555.62,-418.96 4813.62,-418.96 4813.62,-362.96 4555.62,-362.96"/>
<text xml:space="preserve" text-anchor="middle" x="4577.88" y="-387.46" font-family="Helvetica,sans-Serif" font-size="10.00">RunIR</text>
<polyline fill="none" stroke="black" points="4600.12,-362.96 4600.12,-418.96"/>
<text xml:space="preserve" text-anchor="middle" x="4621.25" y="-387.46" font-family="Helvetica,sans-Serif" font-size="10.00">Fields</text>
<polyline fill="none" stroke="black" points="4642.38,-362.96 4642.38,-418.96"/>
<text xml:space="preserve" text-anchor="start" x="4650.38" y="-405.46" font-family="Helvetica,sans-Serif" font-size="10.00">meta: T | NoneType</text>
<text xml:space="preserve" text-anchor="start" x="4650.38" y="-393.46" font-family="Helvetica,sans-Serif" font-size="10.00">unit_id: str</text>
<text xml:space="preserve" text-anchor="start" x="4650.38" y="-381.46" font-family="Helvetica,sans-Serif" font-size="10.00">text: str</text>
<text xml:space="preserve" text-anchor="start" x="4650.38" y="-369.46" font-family="Helvetica,sans-Serif" font-size="10.00">run_style: RunStyleInfo | NoneType</text>
</g>
<!-- document_processor.style_types.RunStyleInfo -->
<g id="node8" class="node">
<title>document_processor.style_types.RunStyleInfo</title>
<polygon fill="none" stroke="black" points="5058.5,-311.96 5058.5,-427.96 5298.5,-427.96 5298.5,-311.96 5058.5,-311.96"/>
<text xml:space="preserve" text-anchor="middle" x="5095" y="-366.46" font-family="Helvetica,sans-Serif" font-size="10.00">RunStyleInfo</text>
<polyline fill="none" stroke="black" points="5131.5,-311.96 5131.5,-427.96"/>
<text xml:space="preserve" text-anchor="middle" x="5152.62" y="-366.46" font-family="Helvetica,sans-Serif" font-size="10.00">Fields</text>
<polyline fill="none" stroke="black" points="5173.75,-311.96 5173.75,-427.96"/>
<text xml:space="preserve" text-anchor="start" x="5181.75" y="-414.46" font-family="Helvetica,sans-Serif" font-size="10.00">bold: bool</text>
<text xml:space="preserve" text-anchor="start" x="5181.75" y="-402.46" font-family="Helvetica,sans-Serif" font-size="10.00">italic: bool</text>
<text xml:space="preserve" text-anchor="start" x="5181.75" y="-390.46" font-family="Helvetica,sans-Serif" font-size="10.00">underline: bool</text>
<text xml:space="preserve" text-anchor="start" x="5181.75" y="-378.46" font-family="Helvetica,sans-Serif" font-size="10.00">strikethrough: bool</text>
<text xml:space="preserve" text-anchor="start" x="5181.75" y="-366.46" font-family="Helvetica,sans-Serif" font-size="10.00">superscript: bool</text>
<text xml:space="preserve" text-anchor="start" x="5181.75" y="-354.46" font-family="Helvetica,sans-Serif" font-size="10.00">subscript: bool</text>
<text xml:space="preserve" text-anchor="start" x="5181.75" y="-342.46" font-family="Helvetica,sans-Serif" font-size="10.00">color: str | NoneType</text>
<text xml:space="preserve" text-anchor="start" x="5181.75" y="-330.46" font-family="Helvetica,sans-Serif" font-size="10.00">highlight: str | NoneType</text>
<text xml:space="preserve" text-anchor="start" x="5181.75" y="-318.46" font-family="Helvetica,sans-Serif" font-size="10.00">size_pt: float | NoneType</text>
</g>
<!-- document_processor.models.RunIR&#45;&gt;document_processor.style_types.RunStyleInfo -->
<g id="edge8" class="edge">
<title>document_processor.models.RunIR&#45;&gt;document_processor.style_types.RunStyleInfo</title>
<path fill="none" stroke="black" d="M4813.9,-385.48C4885.63,-382.42 4974.84,-378.61 5046.95,-375.54"/>
<polygon fill="black" stroke="black" points="5047.01,-379.04 5056.85,-375.11 5046.71,-372.04 5047.01,-379.04"/>
</g>
<!-- document_processor.models.ImageAsset -->
<g id="node2" class="node">
<title>document_processor.models.ImageAsset</title>
<polygon fill="none" stroke="black" points="3308.75,-44.96 3308.75,-124.96 4378,-124.96 4378,-44.96 3308.75,-44.96"/>
<text xml:space="preserve" text-anchor="middle" x="3343" y="-81.46" font-family="Helvetica,sans-Serif" font-size="10.00">ImageAsset</text>
<polyline fill="none" stroke="black" points="3377.25,-44.96 3377.25,-124.96"/>
<text xml:space="preserve" text-anchor="middle" x="3398.38" y="-81.46" font-family="Helvetica,sans-Serif" font-size="10.00">Fields</text>
<polyline fill="none" stroke="black" points="3419.5,-44.96 3419.5,-124.96"/>
<text xml:space="preserve" text-anchor="start" x="3427.5" y="-111.46" font-family="Helvetica,sans-Serif" font-size="10.00">meta: T | NoneType</text>
<text xml:space="preserve" text-anchor="start" x="3427.5" y="-99.46" font-family="Helvetica,sans-Serif" font-size="10.00">mime_type: str</text>
<text xml:space="preserve" text-anchor="start" x="3427.5" y="-87.46" font-family="Helvetica,sans-Serif" font-size="10.00">filename: str | NoneType</text>
<text xml:space="preserve" text-anchor="start" x="3427.5" y="-75.46" font-family="Helvetica,sans-Serif" font-size="10.00">data_base64: str</text>
<text xml:space="preserve" text-anchor="start" x="3427.5" y="-63.46" font-family="Helvetica,sans-Serif" font-size="10.00">intrinsic_width_px: int | NoneType</text>
<text xml:space="preserve" text-anchor="start" x="3427.5" y="-51.46" font-family="Helvetica,sans-Serif" font-size="10.00">intrinsic_height_px: int | NoneType</text>
<polyline fill="none" stroke="black" points="3585.5,-44.96 3585.5,-124.96"/>
<text xml:space="preserve" text-anchor="middle" x="3612.25" y="-81.46" font-family="Helvetica,sans-Serif" font-size="10.00">Methods</text>
<polyline fill="none" stroke="black" points="3639,-44.96 3639,-124.96"/>
<text xml:space="preserve" text-anchor="start" x="3647" y="-93.46" font-family="Helvetica,sans-Serif" font-size="10.00">from_bytes(data: bytes, mime_type: str, filename: str | None = None, intrinsic_width_px: int | None = None, intrinsic_height_px: int | None = None) &#45;&gt; &#39;ImageAsset[T]&#39;</text>
<text xml:space="preserve" text-anchor="start" x="3647" y="-81.46" font-family="Helvetica,sans-Serif" font-size="10.00">bytes_data() &#45;&gt; bytes</text>
<text xml:space="preserve" text-anchor="start" x="3647" y="-69.46" font-family="Helvetica,sans-Serif" font-size="10.00">as_data_url() &#45;&gt; str</text>
</g>
<!-- document_processor.models.ImageIR -->
<g id="node3" class="node">
<title>document_processor.models.ImageIR</title>
<polygon fill="none" stroke="black" points="4552.25,-149.96 4552.25,-229.96 4817,-229.96 4817,-149.96 4552.25,-149.96"/>
<text xml:space="preserve" text-anchor="middle" x="4579" y="-186.46" font-family="Helvetica,sans-Serif" font-size="10.00">ImageIR</text>
<polyline fill="none" stroke="black" points="4605.75,-149.96 4605.75,-229.96"/>
<text xml:space="preserve" text-anchor="middle" x="4626.88" y="-186.46" font-family="Helvetica,sans-Serif" font-size="10.00">Fields</text>
<polyline fill="none" stroke="black" points="4648,-149.96 4648,-229.96"/>
<text xml:space="preserve" text-anchor="start" x="4656" y="-216.46" font-family="Helvetica,sans-Serif" font-size="10.00">unit_id: str</text>
<text xml:space="preserve" text-anchor="start" x="4656" y="-204.46" font-family="Helvetica,sans-Serif" font-size="10.00">image_id: str</text>
<text xml:space="preserve" text-anchor="start" x="4656" y="-192.46" font-family="Helvetica,sans-Serif" font-size="10.00">alt_text: str | NoneType</text>
<text xml:space="preserve" text-anchor="start" x="4656" y="-180.46" font-family="Helvetica,sans-Serif" font-size="10.00">title: str | NoneType</text>
<text xml:space="preserve" text-anchor="start" x="4656" y="-168.46" font-family="Helvetica,sans-Serif" font-size="10.00">display_width_pt: float | NoneType</text>
<text xml:space="preserve" text-anchor="start" x="4656" y="-156.46" font-family="Helvetica,sans-Serif" font-size="10.00">display_height_pt: float | NoneType</text>
</g>
<!-- document_processor.models.ParagraphIR -->
<g id="node4" class="node">
<title>document_processor.models.ParagraphIR</title>
<polygon fill="none" stroke="black" points="3428.12,-143.96 3428.12,-235.96 4258.62,-235.96 4258.62,-143.96 3428.12,-143.96"/>
<text xml:space="preserve" text-anchor="middle" x="3463.5" y="-186.46" font-family="Helvetica,sans-Serif" font-size="10.00">ParagraphIR</text>
<polyline fill="none" stroke="black" points="3498.88,-143.96 3498.88,-235.96"/>
<text xml:space="preserve" text-anchor="middle" x="3520" y="-186.46" font-family="Helvetica,sans-Serif" font-size="10.00">Fields</text>
<polyline fill="none" stroke="black" points="3541.12,-143.96 3541.12,-235.96"/>
<text xml:space="preserve" text-anchor="start" x="3549.12" y="-222.46" font-family="Helvetica,sans-Serif" font-size="10.00">meta: T | NoneType</text>
<text xml:space="preserve" text-anchor="start" x="3549.12" y="-210.46" font-family="Helvetica,sans-Serif" font-size="10.00">unit_id: str</text>
<text xml:space="preserve" text-anchor="start" x="3549.12" y="-198.46" font-family="Helvetica,sans-Serif" font-size="10.00">text: str</text>
<text xml:space="preserve" text-anchor="start" x="3549.12" y="-186.46" font-family="Helvetica,sans-Serif" font-size="10.00">page_number: int | NoneType</text>
<text xml:space="preserve" text-anchor="start" x="3549.12" y="-174.46" font-family="Helvetica,sans-Serif" font-size="10.00">column_layout: ColumnLayoutInfo | NoneType</text>
<text xml:space="preserve" text-anchor="start" x="3549.12" y="-162.46" font-family="Helvetica,sans-Serif" font-size="10.00">para_style: ParaStyleInfo | NoneType</text>
<text xml:space="preserve" text-anchor="start" x="3549.12" y="-150.46" font-family="Helvetica,sans-Serif" font-size="10.00">content: list[RunIR | ImageIR | TableIR]</text>
<polyline fill="none" stroke="black" points="3758.12,-143.96 3758.12,-235.96"/>
<text xml:space="preserve" text-anchor="middle" x="3788.25" y="-186.46" font-family="Helvetica,sans-Serif" font-size="10.00">Properties</text>
<polyline fill="none" stroke="black" points="3818.38,-143.96 3818.38,-235.96"/>
<text xml:space="preserve" text-anchor="start" x="3826.38" y="-198.46" font-family="Helvetica,sans-Serif" font-size="10.00">@ runs: property</text>
<text xml:space="preserve" text-anchor="start" x="3826.38" y="-186.46" font-family="Helvetica,sans-Serif" font-size="10.00">@ images: property</text>
<text xml:space="preserve" text-anchor="start" x="3826.38" y="-174.46" font-family="Helvetica,sans-Serif" font-size="10.00">@ tables: property</text>
<polyline fill="none" stroke="black" points="3920.62,-143.96 3920.62,-235.96"/>
<text xml:space="preserve" text-anchor="middle" x="3947.38" y="-186.46" font-family="Helvetica,sans-Serif" font-size="10.00">Methods</text>
<polyline fill="none" stroke="black" points="3974.12,-143.96 3974.12,-235.96"/>
<text xml:space="preserve" text-anchor="start" x="3982.12" y="-210.46" font-family="Helvetica,sans-Serif" font-size="10.00">append_content(node: &#39;ParagraphContentNode&#39;) &#45;&gt; None</text>
<text xml:space="preserve" text-anchor="start" x="3982.12" y="-198.46" font-family="Helvetica,sans-Serif" font-size="10.00">extend_content(nodes: list[&#39;ParagraphContentNode&#39;]) &#45;&gt; None</text>
<text xml:space="preserve" text-anchor="start" x="3982.12" y="-186.46" font-family="Helvetica,sans-Serif" font-size="10.00">sort_content(key) &#45;&gt; None</text>
<text xml:space="preserve" text-anchor="start" x="3982.12" y="-174.46" font-family="Helvetica,sans-Serif" font-size="10.00">iter_all_runs(include_table_runs: bool = True)</text>
<text xml:space="preserve" text-anchor="start" x="3982.12" y="-162.46" font-family="Helvetica,sans-Serif" font-size="10.00">recompute_text() &#45;&gt; None</text>
</g>
<!-- document_processor.models.ParagraphIR&#45;&gt;document_processor.models.RunIR -->
<g id="edge3" class="edge">
<title>document_processor.models.ParagraphIR&#45;&gt;document_processor.models.RunIR</title>
<path fill="none" stroke="black" d="M4258.92,-219.22C4302.07,-234.85 4342.9,-256.17 4378,-284.96 4394.97,-298.88 4380.3,-315.62 4396,-330.96 4417.32,-351.8 4430.17,-346.39 4459,-353.96 4486.25,-361.11 4515.74,-367.15 4544.12,-372.14"/>
<polygon fill="black" stroke="black" points="4543.41,-375.57 4553.86,-373.82 4544.59,-368.67 4543.41,-375.57"/>
</g>
<!-- document_processor.models.ParagraphIR&#45;&gt;document_processor.models.ImageIR -->
<g id="edge4" class="edge">
<title>document_processor.models.ParagraphIR&#45;&gt;document_processor.models.ImageIR</title>
<path fill="none" stroke="black" d="M4259.08,-189.96C4360.44,-189.96 4462.17,-189.96 4540.64,-189.96"/>
<polygon fill="black" stroke="black" points="4540.53,-193.46 4550.53,-189.96 4540.53,-186.46 4540.53,-193.46"/>
</g>
<!-- document_processor.models.TableIR -->
<g id="node6" class="node">
<title>document_processor.models.TableIR</title>
<polygon fill="none" stroke="black" points="4459,-50.96 4459,-130.96 4910.25,-130.96 4910.25,-50.96 4459,-50.96"/>
<text xml:space="preserve" text-anchor="middle" x="4483.88" y="-87.46" font-family="Helvetica,sans-Serif" font-size="10.00">TableIR</text>
<polyline fill="none" stroke="black" points="4508.75,-50.96 4508.75,-130.96"/>
<text xml:space="preserve" text-anchor="middle" x="4529.88" y="-87.46" font-family="Helvetica,sans-Serif" font-size="10.00">Fields</text>
<polyline fill="none" stroke="black" points="4551,-50.96 4551,-130.96"/>
<text xml:space="preserve" text-anchor="start" x="4559" y="-117.46" font-family="Helvetica,sans-Serif" font-size="10.00">meta: T | NoneType</text>
<text xml:space="preserve" text-anchor="start" x="4559" y="-105.46" font-family="Helvetica,sans-Serif" font-size="10.00">unit_id: str</text>
<text xml:space="preserve" text-anchor="start" x="4559" y="-93.46" font-family="Helvetica,sans-Serif" font-size="10.00">row_count: int</text>
<text xml:space="preserve" text-anchor="start" x="4559" y="-81.46" font-family="Helvetica,sans-Serif" font-size="10.00">col_count: int</text>
<text xml:space="preserve" text-anchor="start" x="4559" y="-69.46" font-family="Helvetica,sans-Serif" font-size="10.00">table_style: TableStyleInfo | NoneType</text>
<text xml:space="preserve" text-anchor="start" x="4559" y="-57.46" font-family="Helvetica,sans-Serif" font-size="10.00">cells: list[TableCellIR]</text>
<polyline fill="none" stroke="black" points="4734.25,-50.96 4734.25,-130.96"/>
<text xml:space="preserve" text-anchor="middle" x="4764.38" y="-87.46" font-family="Helvetica,sans-Serif" font-size="10.00">Properties</text>
<polyline fill="none" stroke="black" points="4794.5,-50.96 4794.5,-130.96"/>
<text xml:space="preserve" text-anchor="start" x="4802.5" y="-87.46" font-family="Helvetica,sans-Serif" font-size="10.00">@ markdown: property</text>
</g>
<!-- document_processor.models.ParagraphIR&#45;&gt;document_processor.models.TableIR -->
<g id="edge5" class="edge">
<title>document_processor.models.ParagraphIR&#45;&gt;document_processor.models.TableIR</title>
<path fill="none" stroke="black" d="M4258.94,-147.9C4299.2,-143.38 4339.4,-138.7 4378,-133.96 4400.61,-131.18 4424.14,-128.14 4447.66,-125"/>
<polygon fill="black" stroke="black" points="4447.89,-128.51 4457.33,-123.71 4446.96,-121.57 4447.89,-128.51"/>
</g>
<!-- document_processor.style_types.ParaStyleInfo -->
<g id="node9" class="node">
<title>document_processor.style_types.ParaStyleInfo</title>
<polygon fill="none" stroke="black" points="5032.25,-224.96 5032.25,-292.96 5324.75,-292.96 5324.75,-224.96 5032.25,-224.96"/>
<text xml:space="preserve" text-anchor="middle" x="5069.88" y="-255.46" font-family="Helvetica,sans-Serif" font-size="10.00">ParaStyleInfo</text>
<polyline fill="none" stroke="black" points="5107.5,-224.96 5107.5,-292.96"/>
<text xml:space="preserve" text-anchor="middle" x="5128.62" y="-255.46" font-family="Helvetica,sans-Serif" font-size="10.00">Fields</text>
<polyline fill="none" stroke="black" points="5149.75,-224.96 5149.75,-292.96"/>
<text xml:space="preserve" text-anchor="start" x="5157.75" y="-279.46" font-family="Helvetica,sans-Serif" font-size="10.00">align: str | NoneType</text>
<text xml:space="preserve" text-anchor="start" x="5157.75" y="-267.46" font-family="Helvetica,sans-Serif" font-size="10.00">left_indent_pt: float | NoneType</text>
<text xml:space="preserve" text-anchor="start" x="5157.75" y="-255.46" font-family="Helvetica,sans-Serif" font-size="10.00">right_indent_pt: float | NoneType</text>
<text xml:space="preserve" text-anchor="start" x="5157.75" y="-243.46" font-family="Helvetica,sans-Serif" font-size="10.00">first_line_indent_pt: float | NoneType</text>
<text xml:space="preserve" text-anchor="start" x="5157.75" y="-231.46" font-family="Helvetica,sans-Serif" font-size="10.00">hanging_indent_pt: float | NoneType</text>
</g>
<!-- document_processor.models.ParagraphIR&#45;&gt;document_processor.style_types.ParaStyleInfo -->
<g id="edge9" class="edge">
<title>document_processor.models.ParagraphIR&#45;&gt;document_processor.style_types.ParaStyleInfo</title>
<path fill="none" stroke="black" d="M4259.09,-226.81C4325.89,-231.85 4394.32,-236.48 4459,-239.96 4652.24,-250.37 4875.03,-255.14 5020.66,-257.28"/>
<polygon fill="black" stroke="black" points="5020.32,-260.78 5030.37,-257.42 5020.42,-253.78 5020.32,-260.78"/>
</g>
<!-- document_processor.models.TableCellIR -->
<g id="node5" class="node">
<title>document_processor.models.TableCellIR</title>
<polygon fill="none" stroke="black" points="4947.25,-38.96 4947.25,-130.96 5409.75,-130.96 5409.75,-38.96 4947.25,-38.96"/>
<text xml:space="preserve" text-anchor="middle" x="4980.75" y="-81.46" font-family="Helvetica,sans-Serif" font-size="10.00">TableCellIR</text>
<polyline fill="none" stroke="black" points="5014.25,-38.96 5014.25,-130.96"/>
<text xml:space="preserve" text-anchor="middle" x="5035.38" y="-81.46" font-family="Helvetica,sans-Serif" font-size="10.00">Fields</text>
<polyline fill="none" stroke="black" points="5056.5,-38.96 5056.5,-130.96"/>
<text xml:space="preserve" text-anchor="start" x="5064.5" y="-117.46" font-family="Helvetica,sans-Serif" font-size="10.00">meta: T | NoneType</text>
<text xml:space="preserve" text-anchor="start" x="5064.5" y="-105.46" font-family="Helvetica,sans-Serif" font-size="10.00">unit_id: str</text>
<text xml:space="preserve" text-anchor="start" x="5064.5" y="-93.46" font-family="Helvetica,sans-Serif" font-size="10.00">row_index: int</text>
<text xml:space="preserve" text-anchor="start" x="5064.5" y="-81.46" font-family="Helvetica,sans-Serif" font-size="10.00">col_index: int</text>
<text xml:space="preserve" text-anchor="start" x="5064.5" y="-69.46" font-family="Helvetica,sans-Serif" font-size="10.00">text: str</text>
<text xml:space="preserve" text-anchor="start" x="5064.5" y="-57.46" font-family="Helvetica,sans-Serif" font-size="10.00">cell_style: CellStyleInfo | NoneType</text>
<text xml:space="preserve" text-anchor="start" x="5064.5" y="-45.46" font-family="Helvetica,sans-Serif" font-size="10.00">paragraphs: list[ParagraphIR]</text>
<polyline fill="none" stroke="black" points="5228.5,-38.96 5228.5,-130.96"/>
<text xml:space="preserve" text-anchor="middle" x="5255.25" y="-81.46" font-family="Helvetica,sans-Serif" font-size="10.00">Methods</text>
<polyline fill="none" stroke="black" points="5282,-38.96 5282,-130.96"/>
<text xml:space="preserve" text-anchor="start" x="5290" y="-81.46" font-family="Helvetica,sans-Serif" font-size="10.00">recompute_text() &#45;&gt; None</text>
</g>
<!-- document_processor.models.TableCellIR&#45;&gt;document_processor.models.ParagraphIR -->
<g id="edge7" class="edge">
<title>document_processor.models.TableCellIR&#45;&gt;document_processor.models.ParagraphIR</title>
<path fill="none" stroke="black" d="M4947.1,-44.6C4934.66,-43.18 4922.32,-41.95 4910.25,-40.96 4710.36,-24.62 4641.54,42.12 4459,-40.96 4409.11,-63.67 4426.63,-108.68 4378,-133.96 4344.1,-151.59 4307.36,-165 4269.57,-175.1"/>
<polygon fill="black" stroke="black" points="4269.15,-171.59 4260.34,-177.48 4270.9,-178.37 4269.15,-171.59"/>
</g>
<!-- document_processor.style_types.CellStyleInfo -->
<g id="node10" class="node">
<title>document_processor.style_types.CellStyleInfo</title>
<polygon fill="none" stroke="black" points="5446.75,-164.96 5446.75,-376.96 5737,-376.96 5737,-164.96 5446.75,-164.96"/>
<text xml:space="preserve" text-anchor="middle" x="5482.88" y="-267.46" font-family="Helvetica,sans-Serif" font-size="10.00">CellStyleInfo</text>
<polyline fill="none" stroke="black" points="5519,-164.96 5519,-376.96"/>
<text xml:space="preserve" text-anchor="middle" x="5540.12" y="-267.46" font-family="Helvetica,sans-Serif" font-size="10.00">Fields</text>
<polyline fill="none" stroke="black" points="5561.25,-164.96 5561.25,-376.96"/>
<text xml:space="preserve" text-anchor="start" x="5569.25" y="-363.46" font-family="Helvetica,sans-Serif" font-size="10.00">background: str | NoneType</text>
<text xml:space="preserve" text-anchor="start" x="5569.25" y="-351.46" font-family="Helvetica,sans-Serif" font-size="10.00">vertical_align: str | NoneType</text>
<text xml:space="preserve" text-anchor="start" x="5569.25" y="-339.46" font-family="Helvetica,sans-Serif" font-size="10.00">horizontal_align: str | NoneType</text>
<text xml:space="preserve" text-anchor="start" x="5569.25" y="-327.46" font-family="Helvetica,sans-Serif" font-size="10.00">width_pt: float | NoneType</text>
<text xml:space="preserve" text-anchor="start" x="5569.25" y="-315.46" font-family="Helvetica,sans-Serif" font-size="10.00">height_pt: float | NoneType</text>
<text xml:space="preserve" text-anchor="start" x="5569.25" y="-303.46" font-family="Helvetica,sans-Serif" font-size="10.00">padding_top_pt: float | NoneType</text>
<text xml:space="preserve" text-anchor="start" x="5569.25" y="-291.46" font-family="Helvetica,sans-Serif" font-size="10.00">padding_right_pt: float | NoneType</text>
<text xml:space="preserve" text-anchor="start" x="5569.25" y="-279.46" font-family="Helvetica,sans-Serif" font-size="10.00">padding_bottom_pt: float | NoneType</text>
<text xml:space="preserve" text-anchor="start" x="5569.25" y="-267.46" font-family="Helvetica,sans-Serif" font-size="10.00">padding_left_pt: float | NoneType</text>
<text xml:space="preserve" text-anchor="start" x="5569.25" y="-255.46" font-family="Helvetica,sans-Serif" font-size="10.00">border_top: str | NoneType</text>
<text xml:space="preserve" text-anchor="start" x="5569.25" y="-243.46" font-family="Helvetica,sans-Serif" font-size="10.00">border_bottom: str | NoneType</text>
<text xml:space="preserve" text-anchor="start" x="5569.25" y="-231.46" font-family="Helvetica,sans-Serif" font-size="10.00">border_left: str | NoneType</text>
<text xml:space="preserve" text-anchor="start" x="5569.25" y="-219.46" font-family="Helvetica,sans-Serif" font-size="10.00">border_right: str | NoneType</text>
<text xml:space="preserve" text-anchor="start" x="5569.25" y="-207.46" font-family="Helvetica,sans-Serif" font-size="10.00">diagonal_tl_br: str | NoneType</text>
<text xml:space="preserve" text-anchor="start" x="5569.25" y="-195.46" font-family="Helvetica,sans-Serif" font-size="10.00">diagonal_tr_bl: str | NoneType</text>
<text xml:space="preserve" text-anchor="start" x="5569.25" y="-183.46" font-family="Helvetica,sans-Serif" font-size="10.00">rowspan: int</text>
<text xml:space="preserve" text-anchor="start" x="5569.25" y="-171.46" font-family="Helvetica,sans-Serif" font-size="10.00">colspan: int</text>
</g>
<!-- document_processor.models.TableCellIR&#45;&gt;document_processor.style_types.CellStyleInfo -->
<g id="edge10" class="edge">
<title>document_processor.models.TableCellIR&#45;&gt;document_processor.style_types.CellStyleInfo</title>
<path fill="none" stroke="black" d="M5389.65,-131.41C5396.49,-134.11 5403.21,-136.96 5409.75,-139.96 5421.74,-145.46 5433.73,-151.81 5445.52,-158.69"/>
<polygon fill="black" stroke="black" points="5443.7,-161.67 5454.08,-163.8 5447.29,-155.67 5443.7,-161.67"/>
</g>
<!-- document_processor.models.TableIR&#45;&gt;document_processor.models.TableCellIR -->
<g id="edge6" class="edge">
<title>document_processor.models.TableIR&#45;&gt;document_processor.models.TableCellIR</title>
<path fill="none" stroke="black" d="M4910.69,-88.22C4918.95,-88.11 4927.24,-88.01 4935.53,-87.91"/>
<polygon fill="black" stroke="black" points="4935.35,-91.42 4945.31,-87.79 4935.27,-84.42 4935.35,-91.42"/>
</g>
<!-- document_processor.style_types.TableStyleInfo -->
<g id="node11" class="node">
<title>document_processor.style_types.TableStyleInfo</title>
<polygon fill="none" stroke="black" points="5051.75,-149.96 5051.75,-205.96 5305.25,-205.96 5305.25,-149.96 5051.75,-149.96"/>
<text xml:space="preserve" text-anchor="middle" x="5090.88" y="-174.46" font-family="Helvetica,sans-Serif" font-size="10.00">TableStyleInfo</text>
<polyline fill="none" stroke="black" points="5130,-149.96 5130,-205.96"/>
<text xml:space="preserve" text-anchor="middle" x="5151.12" y="-174.46" font-family="Helvetica,sans-Serif" font-size="10.00">Fields</text>
<polyline fill="none" stroke="black" points="5172.25,-149.96 5172.25,-205.96"/>
<text xml:space="preserve" text-anchor="start" x="5180.25" y="-192.46" font-family="Helvetica,sans-Serif" font-size="10.00">row_count: int</text>
<text xml:space="preserve" text-anchor="start" x="5180.25" y="-180.46" font-family="Helvetica,sans-Serif" font-size="10.00">col_count: int</text>
<text xml:space="preserve" text-anchor="start" x="5180.25" y="-168.46" font-family="Helvetica,sans-Serif" font-size="10.00">width_pt: float | NoneType</text>
<text xml:space="preserve" text-anchor="start" x="5180.25" y="-156.46" font-family="Helvetica,sans-Serif" font-size="10.00">height_pt: float | NoneType</text>
</g>
<!-- document_processor.models.TableIR&#45;&gt;document_processor.style_types.TableStyleInfo -->
<g id="edge11" class="edge">
<title>document_processor.models.TableIR&#45;&gt;document_processor.style_types.TableStyleInfo</title>
<path fill="none" stroke="black" d="M4899.72,-131.45C4915.8,-134.37 4931.78,-137.24 4947.25,-139.96 4977.28,-145.25 5009.55,-150.71 5040.15,-155.79"/>
<polygon fill="black" stroke="black" points="5039.41,-159.22 5049.85,-157.4 5040.55,-152.31 5039.41,-159.22"/>
</g>
<!-- document_processor.models.DocIR -->
<g id="node7" class="node">
<title>document_processor.models.DocIR</title>
<polygon fill="none" stroke="black" points="1724.25,-50.96 1724.25,-142.96 3271.75,-142.96 3271.75,-50.96 1724.25,-50.96"/>
<text xml:space="preserve" text-anchor="middle" x="1746.5" y="-93.46" font-family="Helvetica,sans-Serif" font-size="10.00">DocIR</text>
<polyline fill="none" stroke="black" points="1768.75,-50.96 1768.75,-142.96"/>
<text xml:space="preserve" text-anchor="middle" x="1789.88" y="-93.46" font-family="Helvetica,sans-Serif" font-size="10.00">Fields</text>
<polyline fill="none" stroke="black" points="1811,-50.96 1811,-142.96"/>
<text xml:space="preserve" text-anchor="start" x="1819" y="-129.46" font-family="Helvetica,sans-Serif" font-size="10.00">meta: T | NoneType</text>
<text xml:space="preserve" text-anchor="start" x="1819" y="-117.46" font-family="Helvetica,sans-Serif" font-size="10.00">doc_id: str | NoneType</text>
<text xml:space="preserve" text-anchor="start" x="1819" y="-105.46" font-family="Helvetica,sans-Serif" font-size="10.00">source_path: str | NoneType</text>
<text xml:space="preserve" text-anchor="start" x="1819" y="-93.46" font-family="Helvetica,sans-Serif" font-size="10.00">source_doc_type: str | NoneType</text>
<text xml:space="preserve" text-anchor="start" x="1819" y="-81.46" font-family="Helvetica,sans-Serif" font-size="10.00">assets: dict[str, ImageAsset]</text>
<text xml:space="preserve" text-anchor="start" x="1819" y="-69.46" font-family="Helvetica,sans-Serif" font-size="10.00">pages: list[PageInfo]</text>
<text xml:space="preserve" text-anchor="start" x="1819" y="-57.46" font-family="Helvetica,sans-Serif" font-size="10.00">paragraphs: list[ParagraphIR]</text>
<polyline fill="none" stroke="black" points="1971,-50.96 1971,-142.96"/>
<text xml:space="preserve" text-anchor="middle" x="2001.12" y="-93.46" font-family="Helvetica,sans-Serif" font-size="10.00">Properties</text>
<polyline fill="none" stroke="black" points="2031.25,-50.96 2031.25,-142.96"/>
<text xml:space="preserve" text-anchor="start" x="2039.25" y="-93.46" font-family="Helvetica,sans-Serif" font-size="10.00">@ has_page_metadata: property</text>
<polyline fill="none" stroke="black" points="2189.75,-50.96 2189.75,-142.96"/>
<text xml:space="preserve" text-anchor="middle" x="2216.5" y="-93.46" font-family="Helvetica,sans-Serif" font-size="10.00">Methods</text>
<polyline fill="none" stroke="black" points="2243.25,-50.96 2243.25,-142.96"/>
<text xml:space="preserve" text-anchor="start" x="2251.25" y="-111.46" font-family="Helvetica,sans-Serif" font-size="10.00">get_image_asset(image_or_id: ImageIR | str) &#45;&gt; ImageAsset[T] | None</text>
<text xml:space="preserve" text-anchor="start" x="2251.25" y="-99.46" font-family="Helvetica,sans-Serif" font-size="10.00">from_file(source: str | Path | bytes | BinaryIO, doc_type: str = &#39;auto&#39;, include_tables: bool = True, skip_empty: bool = False, metadata: dict[str, Any] | None = None, doc_id: str | None = None, **doc_kwargs: Any) &#45;&gt; &#39;DocIR&#39;</text>
<text xml:space="preserve" text-anchor="start" x="2251.25" y="-87.46" font-family="Helvetica,sans-Serif" font-size="10.00">from_mapping(mapping: dict[str, str], style_map = None, source_path: str | Path | None = None, source_doc_type: str | None = None, metadata: dict[str, Any] | None = None, doc_id: str | None = None, **doc_kwargs: Any) &#45;&gt; &#39;DocIR&#39;</text>
<text xml:space="preserve" text-anchor="start" x="2251.25" y="-75.46" font-family="Helvetica,sans-Serif" font-size="10.00">to_html(title: str | None = None, debug_layout: bool = False) &#45;&gt; str</text>
</g>
<!-- document_processor.models.DocIR&#45;&gt;document_processor.models.ImageAsset -->
<g id="edge2" class="edge">
<title>document_processor.models.DocIR&#45;&gt;document_processor.models.ImageAsset</title>
<path fill="none" stroke="black" d="M3272.18,-90.05C3280.5,-89.98 3288.81,-89.91 3297.08,-89.83"/>
<polygon fill="black" stroke="black" points="3296.87,-93.33 3306.84,-89.74 3296.81,-86.33 3296.87,-93.33"/>
</g>
<!-- document_processor.models.DocIR&#45;&gt;document_processor.models.ParagraphIR -->
<g id="edge1" class="edge">
<title>document_processor.models.DocIR&#45;&gt;document_processor.models.ParagraphIR</title>
<path fill="none" stroke="black" d="M3170.69,-143.46C3254.48,-149.26 3338.27,-155.06 3416.85,-160.5"/>
<polygon fill="black" stroke="black" points="3416.17,-163.96 3426.39,-161.16 3416.65,-156.98 3416.17,-163.96"/>
</g>
<!-- document_processor.style_types.StyleMap -->
<g id="node12" class="node">
<title>document_processor.style_types.StyleMap</title>
<polygon fill="none" stroke="black" points="4550.75,-287.96 4550.75,-343.96 4818.5,-343.96 4818.5,-287.96 4550.75,-287.96"/>
<text xml:space="preserve" text-anchor="middle" x="4579.38" y="-312.46" font-family="Helvetica,sans-Serif" font-size="10.00">StyleMap</text>
<polyline fill="none" stroke="black" points="4608,-287.96 4608,-343.96"/>
<text xml:space="preserve" text-anchor="middle" x="4629.12" y="-312.46" font-family="Helvetica,sans-Serif" font-size="10.00">Fields</text>
<polyline fill="none" stroke="black" points="4650.25,-287.96 4650.25,-343.96"/>
<text xml:space="preserve" text-anchor="start" x="4658.25" y="-330.46" font-family="Helvetica,sans-Serif" font-size="10.00">runs: dict[str, RunStyleInfo]</text>
<text xml:space="preserve" text-anchor="start" x="4658.25" y="-318.46" font-family="Helvetica,sans-Serif" font-size="10.00">paragraphs: dict[str, ParaStyleInfo]</text>
<text xml:space="preserve" text-anchor="start" x="4658.25" y="-306.46" font-family="Helvetica,sans-Serif" font-size="10.00">cells: dict[str, CellStyleInfo]</text>
<text xml:space="preserve" text-anchor="start" x="4658.25" y="-294.46" font-family="Helvetica,sans-Serif" font-size="10.00">tables: dict[str, TableStyleInfo]</text>
</g>
<!-- document_processor.style_types.StyleMap&#45;&gt;document_processor.style_types.RunStyleInfo -->
<g id="edge12" class="edge">
<title>document_processor.style_types.StyleMap&#45;&gt;document_processor.style_types.RunStyleInfo</title>
<path fill="none" stroke="black" d="M4818.73,-330.57C4889.63,-338.36 4976.49,-347.89 5046.98,-355.63"/>
<polygon fill="black" stroke="black" points="5046.33,-359.08 5056.65,-356.69 5047.09,-352.12 5046.33,-359.08"/>
</g>
<!-- document_processor.style_types.StyleMap&#45;&gt;document_processor.style_types.ParaStyleInfo -->
<g id="edge13" class="edge">
<title>document_processor.style_types.StyleMap&#45;&gt;document_processor.style_types.ParaStyleInfo</title>
<path fill="none" stroke="black" d="M4818.73,-300.54C4881,-293.32 4955.58,-284.68 5020.57,-277.15"/>
<polygon fill="black" stroke="black" points="5020.72,-280.65 5030.25,-276.03 5019.91,-273.7 5020.72,-280.65"/>
</g>
<!-- document_processor.style_types.StyleMap&#45;&gt;document_processor.style_types.CellStyleInfo -->
<g id="edge14" class="edge">
<title>document_processor.style_types.StyleMap&#45;&gt;document_processor.style_types.CellStyleInfo</title>
<path fill="none" stroke="black" d="M4818.95,-316.88C4851.44,-322.64 4884.27,-333.73 4910.25,-353.96 4942.43,-379.03 4913.08,-415.67 4947.25,-437.96 5119.42,-550.26 5218.29,-512.76 5409.75,-437.96 5440.17,-426.08 5468.56,-406.42 5493.43,-384.69"/>
<polygon fill="black" stroke="black" points="5495.49,-387.54 5500.6,-378.26 5490.81,-382.33 5495.49,-387.54"/>
</g>
<!-- document_processor.style_types.StyleMap&#45;&gt;document_processor.style_types.TableStyleInfo -->
<g id="edge15" class="edge">
<title>document_processor.style_types.StyleMap&#45;&gt;document_processor.style_types.TableStyleInfo</title>
<path fill="none" stroke="black" d="M4787.27,-287.49C4826.56,-274.97 4871.34,-258.8 4910.25,-239.96 4927.89,-231.42 4928.97,-223.04 4947.25,-215.96 4976.48,-204.64 5009.08,-196.69 5040.34,-191.11"/>
<polygon fill="black" stroke="black" points="5040.57,-194.62 5049.84,-189.49 5039.39,-187.72 5040.57,-194.62"/>
</g>
<!-- document_processor.core.document_ir_parser -->
<g id="node13" class="node">
<title>document_processor.core.document_ir_parser</title>
<path fill="none" stroke="black" d="M12,-78.96C12,-78.96 1624.5,-78.96 1624.5,-78.96 1630.5,-78.96 1636.5,-84.96 1636.5,-90.96 1636.5,-90.96 1636.5,-102.96 1636.5,-102.96 1636.5,-108.96 1630.5,-114.96 1624.5,-114.96 1624.5,-114.96 12,-114.96 12,-114.96 6,-114.96 0,-108.96 0,-102.96 0,-102.96 0,-90.96 0,-90.96 0,-84.96 6,-78.96 12,-78.96"/>
<text xml:space="preserve" text-anchor="middle" x="50.75" y="-93.46" font-family="Helvetica,sans-Serif" font-size="10.00">document_ir_parser</text>
<polyline fill="none" stroke="black" points="101.5,-78.96 101.5,-114.96"/>
<text xml:space="preserve" text-anchor="middle" x="130.88" y="-93.46" font-family="Helvetica,sans-Serif" font-size="10.00">Functions</text>
<polyline fill="none" stroke="black" points="160.25,-78.96 160.25,-114.96"/>
<text xml:space="preserve" text-anchor="start" x="168.25" y="-93.46" font-family="Helvetica,sans-Serif" font-size="10.00">build_doc_ir_from_file(source: &#39;HwpxDocument | DocxDocument | str | Path | bytes&#39;, doc_type: DocType, include_tables: bool = True, skip_empty: bool = False, source_path: str | Path | None = None, metadata: dict[str, Any] | None = None, doc_id: str | None = None, doc_cls: type[DocIR] | None = None, **doc_kwargs: Any) &#45;&gt; DocIR</text>
</g>
<!-- document_processor.core.document_ir_parser&#45;&gt;document_processor.models.DocIR -->
<g id="edge16" class="edge">
<title>document_processor.core.document_ir_parser&#45;&gt;document_processor.models.DocIR</title>
<path fill="none" stroke="black" stroke-dasharray="5,2" d="M1636.93,-96.96C1662.23,-96.96 1687.55,-96.96 1712.81,-96.96"/>
<polygon fill="black" stroke="black" points="1712.51,-100.46 1722.51,-96.96 1712.51,-93.46 1712.51,-100.46"/>
<text xml:space="preserve" text-anchor="middle" x="1680.38" y="-98.91" font-family="Helvetica,sans-Serif" font-size="9.00">uses models</text>
</g>
<!-- document_processor.core.docx_structured_exporter -->
<g id="node14" class="node">
<title>document_processor.core.docx_structured_exporter</title>
<path fill="none" stroke="black" d="M408.38,-133.96C408.38,-133.96 1228.12,-133.96 1228.12,-133.96 1234.12,-133.96 1240.12,-139.96 1240.12,-145.96 1240.12,-145.96 1240.12,-157.96 1240.12,-157.96 1240.12,-163.96 1234.12,-169.96 1228.12,-169.96 1228.12,-169.96 408.38,-169.96 408.38,-169.96 402.38,-169.96 396.38,-163.96 396.38,-157.96 396.38,-157.96 396.38,-145.96 396.38,-145.96 396.38,-139.96 402.38,-133.96 408.38,-133.96"/>
<text xml:space="preserve" text-anchor="middle" x="459.5" y="-148.46" font-family="Helvetica,sans-Serif" font-size="10.00">docx_structured_exporter</text>
<polyline fill="none" stroke="black" points="522.62,-133.96 522.62,-169.96"/>
<text xml:space="preserve" text-anchor="middle" x="552" y="-148.46" font-family="Helvetica,sans-Serif" font-size="10.00">Functions</text>
<polyline fill="none" stroke="black" points="581.38,-133.96 581.38,-169.96"/>
<text xml:space="preserve" text-anchor="start" x="589.38" y="-154.46" font-family="Helvetica,sans-Serif" font-size="10.00">export_docx_structured_mapping(source: &#39;DocxDocument | str | Path | bytes&#39;, include_tables: bool = True, skip_empty: bool = False) &#45;&gt; dict[str, str]</text>
<text xml:space="preserve" text-anchor="start" x="589.38" y="-142.46" font-family="Helvetica,sans-Serif" font-size="10.00">export_structured_mapping(source: &#39;DocxDocument | str | Path | bytes&#39;, include_tables: bool = True, skip_empty: bool = False) &#45;&gt; dict[str, str]</text>
</g>
<!-- document_processor.core.hwp_converter -->
<g id="node15" class="node">
<title>document_processor.core.hwp_converter</title>
<path fill="none" stroke="black" d="M623.25,-188.96C623.25,-188.96 1013.25,-188.96 1013.25,-188.96 1019.25,-188.96 1025.25,-194.96 1025.25,-200.96 1025.25,-200.96 1025.25,-212.96 1025.25,-212.96 1025.25,-218.96 1019.25,-224.96 1013.25,-224.96 1013.25,-224.96 623.25,-224.96 623.25,-224.96 617.25,-224.96 611.25,-218.96 611.25,-212.96 611.25,-212.96 611.25,-200.96 611.25,-200.96 611.25,-194.96 617.25,-188.96 623.25,-188.96"/>
<text xml:space="preserve" text-anchor="middle" x="651.12" y="-203.46" font-family="Helvetica,sans-Serif" font-size="10.00">hwp_converter</text>
<polyline fill="none" stroke="black" points="691,-188.96 691,-224.96"/>
<text xml:space="preserve" text-anchor="middle" x="720.38" y="-203.46" font-family="Helvetica,sans-Serif" font-size="10.00">Functions</text>
<polyline fill="none" stroke="black" points="749.75,-188.96 749.75,-224.96"/>
<text xml:space="preserve" text-anchor="start" x="757.75" y="-209.46" font-family="Helvetica,sans-Serif" font-size="10.00">convert_hwp_to_hwpx_bytes(hwp_path: str | Path) &#45;&gt; bytes</text>
<text xml:space="preserve" text-anchor="start" x="757.75" y="-197.46" font-family="Helvetica,sans-Serif" font-size="10.00">patch_hwpx_container(hwpx_path: str | Path) &#45;&gt; None</text>
</g>
<!-- document_processor.core.hwpx_structured_exporter -->
<g id="node16" class="node">
<title>document_processor.core.hwpx_structured_exporter</title>
<path fill="none" stroke="black" d="M466.5,-243.96C466.5,-243.96 1170,-243.96 1170,-243.96 1176,-243.96 1182,-249.96 1182,-255.96 1182,-255.96 1182,-267.96 1182,-267.96 1182,-273.96 1176,-279.96 1170,-279.96 1170,-279.96 466.5,-279.96 466.5,-279.96 460.5,-279.96 454.5,-273.96 454.5,-267.96 454.5,-267.96 454.5,-255.96 454.5,-255.96 454.5,-249.96 460.5,-243.96 466.5,-243.96"/>
<text xml:space="preserve" text-anchor="middle" x="518.75" y="-258.46" font-family="Helvetica,sans-Serif" font-size="10.00">hwpx_structured_exporter</text>
<polyline fill="none" stroke="black" points="583,-243.96 583,-279.96"/>
<text xml:space="preserve" text-anchor="middle" x="612.38" y="-258.46" font-family="Helvetica,sans-Serif" font-size="10.00">Functions</text>
<polyline fill="none" stroke="black" points="641.75,-243.96 641.75,-279.96"/>
<text xml:space="preserve" text-anchor="start" x="649.75" y="-264.46" font-family="Helvetica,sans-Serif" font-size="10.00">export_hwpx_structured_mapping(source: &#39;HwpxDocument | str | Path | bytes&#39;, skip_empty: bool = False) &#45;&gt; dict[str, str]</text>
<text xml:space="preserve" text-anchor="start" x="649.75" y="-252.46" font-family="Helvetica,sans-Serif" font-size="10.00">export_structured_mapping(source: &#39;HwpxDocument | str | Path | bytes&#39;, skip_empty: bool = False) &#45;&gt; dict[str, str]</text>
</g>
<!-- document_processor.core.structured_mapping_exporter -->
<g id="node17" class="node">
<title>document_processor.core.structured_mapping_exporter</title>
<path fill="none" stroke="black" d="M311.25,-298.96C311.25,-298.96 1325.25,-298.96 1325.25,-298.96 1331.25,-298.96 1337.25,-304.96 1337.25,-310.96 1337.25,-310.96 1337.25,-322.96 1337.25,-322.96 1337.25,-328.96 1331.25,-334.96 1325.25,-334.96 1325.25,-334.96 311.25,-334.96 311.25,-334.96 305.25,-334.96 299.25,-328.96 299.25,-322.96 299.25,-322.96 299.25,-310.96 299.25,-310.96 299.25,-304.96 305.25,-298.96 311.25,-298.96"/>
<text xml:space="preserve" text-anchor="middle" x="370.25" y="-313.46" font-family="Helvetica,sans-Serif" font-size="10.00">structured_mapping_exporter</text>
<polyline fill="none" stroke="black" points="441.25,-298.96 441.25,-334.96"/>
<text xml:space="preserve" text-anchor="middle" x="470.62" y="-313.46" font-family="Helvetica,sans-Serif" font-size="10.00">Functions</text>
<polyline fill="none" stroke="black" points="500,-298.96 500,-334.96"/>
<text xml:space="preserve" text-anchor="start" x="508" y="-313.46" font-family="Helvetica,sans-Serif" font-size="10.00">export_structured_mapping(source: &#39;HwpxDocument | DocxDocument | str | Path | bytes&#39;, doc_type: DocType = &#39;auto&#39;, skip_empty: bool = False, include_tables: bool = True) &#45;&gt; dict[str, str]</text>
</g>
<!-- document_processor.core.style_extractor -->
<g id="node18" class="node">
<title>document_processor.core.style_extractor</title>
<path fill="none" stroke="black" d="M3457.88,-293.96C3457.88,-293.96 4228.88,-293.96 4228.88,-293.96 4234.88,-293.96 4240.88,-299.96 4240.88,-305.96 4240.88,-305.96 4240.88,-325.96 4240.88,-325.96 4240.88,-331.96 4234.88,-337.96 4228.88,-337.96 4228.88,-337.96 3457.88,-337.96 3457.88,-337.96 3451.88,-337.96 3445.88,-331.96 3445.88,-325.96 3445.88,-325.96 3445.88,-305.96 3445.88,-305.96 3445.88,-299.96 3451.88,-293.96 3457.88,-293.96"/>
<text xml:space="preserve" text-anchor="middle" x="3486.12" y="-312.46" font-family="Helvetica,sans-Serif" font-size="10.00">style_extractor</text>
<polyline fill="none" stroke="black" points="3526.38,-293.96 3526.38,-337.96"/>
<text xml:space="preserve" text-anchor="middle" x="3555.75" y="-312.46" font-family="Helvetica,sans-Serif" font-size="10.00">Functions</text>
<polyline fill="none" stroke="black" points="3585.12,-293.96 3585.12,-337.96"/>
<text xml:space="preserve" text-anchor="start" x="3593.12" y="-324.46" font-family="Helvetica,sans-Serif" font-size="10.00">extract_styles(source: &#39;HwpxDocument | DocxDocument | str | Path | bytes&#39;, doc_type: DocType = &#39;auto&#39;, include_tables: bool = True) &#45;&gt; StyleMap</text>
<text xml:space="preserve" text-anchor="start" x="3593.12" y="-312.46" font-family="Helvetica,sans-Serif" font-size="10.00">extract_styles_docx(source: &#39;DocxDocument | str | Path | bytes&#39;, include_tables: bool = True) &#45;&gt; StyleMap</text>
<text xml:space="preserve" text-anchor="start" x="3593.12" y="-300.46" font-family="Helvetica,sans-Serif" font-size="10.00">extract_styles_hwpx(source: &#39;HwpxDocument | str | Path | bytes&#39;) &#45;&gt; StyleMap</text>
</g>
<!-- document_processor.core.style_extractor&#45;&gt;document_processor.style_types.StyleMap -->
<g id="edge17" class="edge">
<title>document_processor.core.style_extractor&#45;&gt;document_processor.style_types.StyleMap</title>
<path fill="none" stroke="black" stroke-dasharray="5,2" d="M4241.27,-315.96C4347.89,-315.96 4456.47,-315.96 4539.38,-315.96"/>
<polygon fill="black" stroke="black" points="4539.13,-319.46 4549.13,-315.96 4539.13,-312.46 4539.13,-319.46"/>
<text xml:space="preserve" text-anchor="middle" x="4418.5" y="-317.91" font-family="Helvetica,sans-Serif" font-size="9.00">uses styles</text>
</g>
</g>
</svg>
