<?xml version="1.0" encoding="UTF-8" standalone="no"?>
<!DOCTYPE svg PUBLIC "-//W3C//DTD SVG 1.1//EN"
 "http://www.w3.org/Graphics/SVG/1.1/DTD/svg11.dtd">
<!-- Generated by graphviz version 14.1.4 (0)
 -->
<!-- Title: document_processor Pages: 1 -->
<svg width="6231pt" height="631pt"
 viewBox="0.00 0.00 6231.00 631.00" xmlns="http://www.w3.org/2000/svg" xmlns:xlink="http://www.w3.org/1999/xlink">
<g id="graph0" class="graph" transform="scale(1 1) rotate(0) translate(4 626.67)">
<title>document_processor</title>
<polygon fill="white" stroke="none" points="-4,4 -4,-626.67 6227.25,-626.67 6227.25,4 -4,4"/>
<!-- document_processor.models.RunIR -->
<g id="node1" class="node">
<title>document_processor.models.RunIR</title>
<polygon fill="none" stroke="black" points="4596.25,-201.5 4596.25,-269.5 5158.5,-269.5 5158.5,-201.5 4596.25,-201.5"/>
<text xml:space="preserve" text-anchor="middle" x="4618.5" y="-232" font-family="Helvetica,sans-Serif" font-size="10.00">RunIR</text>
<polyline fill="none" stroke="black" points="4640.75,-201.5 4640.75,-269.5"/>
<text xml:space="preserve" text-anchor="middle" x="4661.88" y="-232" font-family="Helvetica,sans-Serif" font-size="10.00">Fields</text>
<polyline fill="none" stroke="black" points="4683,-201.5 4683,-269.5"/>
<text xml:space="preserve" text-anchor="start" x="4691" y="-256" font-family="Helvetica,sans-Serif" font-size="10.00">meta: T | NoneType</text>
<text xml:space="preserve" text-anchor="start" x="4691" y="-244" font-family="Helvetica,sans-Serif" font-size="10.00">node_id: str | NoneType</text>
<text xml:space="preserve" text-anchor="start" x="4691" y="-232" font-family="Helvetica,sans-Serif" font-size="10.00">text: str</text>
<text xml:space="preserve" text-anchor="start" x="4691" y="-220" font-family="Helvetica,sans-Serif" font-size="10.00">run_style: RunStyleInfo | NoneType</text>
<text xml:space="preserve" text-anchor="start" x="4691" y="-208" font-family="Helvetica,sans-Serif" font-size="10.00">native_anchor: NativeAnchor | NoneType</text>
<polyline fill="none" stroke="black" points="4877.5,-201.5 4877.5,-269.5"/>
<text xml:space="preserve" text-anchor="middle" x="4904.25" y="-232" font-family="Helvetica,sans-Serif" font-size="10.00">Methods</text>
<polyline fill="none" stroke="black" points="4931,-201.5 4931,-269.5"/>
<text xml:space="preserve" text-anchor="start" x="4939" y="-232" font-family="Helvetica,sans-Serif" font-size="10.00">model_post_init(_RunIR__context: Any) &#45;&gt; None</text>
</g>
<!-- document_processor.style_types.RunStyleInfo -->
<g id="node8" class="node">
<title>document_processor.style_types.RunStyleInfo</title>
<polygon fill="none" stroke="black" points="5472.38,-123.5 5472.38,-239.5 5712.38,-239.5 5712.38,-123.5 5472.38,-123.5"/>
<text xml:space="preserve" text-anchor="middle" x="5508.88" y="-178" font-family="Helvetica,sans-Serif" font-size="10.00">RunStyleInfo</text>
<polyline fill="none" stroke="black" points="5545.38,-123.5 5545.38,-239.5"/>
<text xml:space="preserve" text-anchor="middle" x="5566.5" y="-178" font-family="Helvetica,sans-Serif" font-size="10.00">Fields</text>
<polyline fill="none" stroke="black" points="5587.62,-123.5 5587.62,-239.5"/>
<text xml:space="preserve" text-anchor="start" x="5595.62" y="-226" font-family="Helvetica,sans-Serif" font-size="10.00">bold: bool</text>
<text xml:space="preserve" text-anchor="start" x="5595.62" y="-214" font-family="Helvetica,sans-Serif" font-size="10.00">italic: bool</text>
<text xml:space="preserve" text-anchor="start" x="5595.62" y="-202" font-family="Helvetica,sans-Serif" font-size="10.00">underline: bool</text>
<text xml:space="preserve" text-anchor="start" x="5595.62" y="-190" font-family="Helvetica,sans-Serif" font-size="10.00">strikethrough: bool</text>
<text xml:space="preserve" text-anchor="start" x="5595.62" y="-178" font-family="Helvetica,sans-Serif" font-size="10.00">superscript: bool</text>
<text xml:space="preserve" text-anchor="start" x="5595.62" y="-166" font-family="Helvetica,sans-Serif" font-size="10.00">subscript: bool</text>
<text xml:space="preserve" text-anchor="start" x="5595.62" y="-154" font-family="Helvetica,sans-Serif" font-size="10.00">color: str | NoneType</text>
<text xml:space="preserve" text-anchor="start" x="5595.62" y="-142" font-family="Helvetica,sans-Serif" font-size="10.00">highlight: str | NoneType</text>
<text xml:space="preserve" text-anchor="start" x="5595.62" y="-130" font-family="Helvetica,sans-Serif" font-size="10.00">size_pt: float | NoneType</text>
</g>
<!-- document_processor.models.RunIR&#45;&gt;document_processor.style_types.RunStyleInfo -->
<g id="edge8" class="edge">
<title>document_processor.models.RunIR&#45;&gt;document_processor.style_types.RunStyleInfo</title>
<path fill="none" stroke="black" d="M5158.89,-214.25C5263.06,-206.37 5376.29,-197.79 5460.76,-191.39"/>
<polygon fill="black" stroke="black" points="5461.01,-194.88 5470.72,-190.64 5460.48,-187.9 5461.01,-194.88"/>
</g>
<!-- document_processor.models.ImageAsset -->
<g id="node2" class="node">
<title>document_processor.models.ImageAsset</title>
<polygon fill="none" stroke="black" points="3352.75,-400.5 3352.75,-480.5 4422,-480.5 4422,-400.5 3352.75,-400.5"/>
<text xml:space="preserve" text-anchor="middle" x="3387" y="-437" font-family="Helvetica,sans-Serif" font-size="10.00">ImageAsset</text>
<polyline fill="none" stroke="black" points="3421.25,-400.5 3421.25,-480.5"/>
<text xml:space="preserve" text-anchor="middle" x="3442.38" y="-437" font-family="Helvetica,sans-Serif" font-size="10.00">Fields</text>
<polyline fill="none" stroke="black" points="3463.5,-400.5 3463.5,-480.5"/>
<text xml:space="preserve" text-anchor="start" x="3471.5" y="-467" font-family="Helvetica,sans-Serif" font-size="10.00">meta: T | NoneType</text>
<text xml:space="preserve" text-anchor="start" x="3471.5" y="-455" font-family="Helvetica,sans-Serif" font-size="10.00">mime_type: str</text>
<text xml:space="preserve" text-anchor="start" x="3471.5" y="-443" font-family="Helvetica,sans-Serif" font-size="10.00">filename: str | NoneType</text>
<text xml:space="preserve" text-anchor="start" x="3471.5" y="-431" font-family="Helvetica,sans-Serif" font-size="10.00">data_base64: str</text>
<text xml:space="preserve" text-anchor="start" x="3471.5" y="-419" font-family="Helvetica,sans-Serif" font-size="10.00">intrinsic_width_px: int | NoneType</text>
<text xml:space="preserve" text-anchor="start" x="3471.5" y="-407" font-family="Helvetica,sans-Serif" font-size="10.00">intrinsic_height_px: int | NoneType</text>
<polyline fill="none" stroke="black" points="3629.5,-400.5 3629.5,-480.5"/>
<text xml:space="preserve" text-anchor="middle" x="3656.25" y="-437" font-family="Helvetica,sans-Serif" font-size="10.00">Methods</text>
<polyline fill="none" stroke="black" points="3683,-400.5 3683,-480.5"/>
<text xml:space="preserve" text-anchor="start" x="3691" y="-449" font-family="Helvetica,sans-Serif" font-size="10.00">from_bytes(data: bytes, mime_type: str, filename: str | None = None, intrinsic_width_px: int | None = None, intrinsic_height_px: int | None = None) &#45;&gt; &#39;ImageAsset[T]&#39;</text>
<text xml:space="preserve" text-anchor="start" x="3691" y="-437" font-family="Helvetica,sans-Serif" font-size="10.00">bytes_data() &#45;&gt; bytes</text>
<text xml:space="preserve" text-anchor="start" x="3691" y="-425" font-family="Helvetica,sans-Serif" font-size="10.00">as_data_url() &#45;&gt; str</text>
</g>
<!-- document_processor.models.ImageIR -->
<g id="node3" class="node">
<title>document_processor.models.ImageIR</title>
<polygon fill="none" stroke="black" points="4587.25,-327.5 4587.25,-419.5 5167.5,-419.5 5167.5,-327.5 4587.25,-327.5"/>
<text xml:space="preserve" text-anchor="middle" x="4614" y="-370" font-family="Helvetica,sans-Serif" font-size="10.00">ImageIR</text>
<polyline fill="none" stroke="black" points="4640.75,-327.5 4640.75,-419.5"/>
<text xml:space="preserve" text-anchor="middle" x="4661.88" y="-370" font-family="Helvetica,sans-Serif" font-size="10.00">Fields</text>
<polyline fill="none" stroke="black" points="4683,-327.5 4683,-419.5"/>
<text xml:space="preserve" text-anchor="start" x="4691" y="-406" font-family="Helvetica,sans-Serif" font-size="10.00">node_id: str | NoneType</text>
<text xml:space="preserve" text-anchor="start" x="4691" y="-394" font-family="Helvetica,sans-Serif" font-size="10.00">image_id: str</text>
<text xml:space="preserve" text-anchor="start" x="4691" y="-382" font-family="Helvetica,sans-Serif" font-size="10.00">alt_text: str | NoneType</text>
<text xml:space="preserve" text-anchor="start" x="4691" y="-370" font-family="Helvetica,sans-Serif" font-size="10.00">title: str | NoneType</text>
<text xml:space="preserve" text-anchor="start" x="4691" y="-358" font-family="Helvetica,sans-Serif" font-size="10.00">display_width_pt: float | NoneType</text>
<text xml:space="preserve" text-anchor="start" x="4691" y="-346" font-family="Helvetica,sans-Serif" font-size="10.00">display_height_pt: float | NoneType</text>
<text xml:space="preserve" text-anchor="start" x="4691" y="-334" font-family="Helvetica,sans-Serif" font-size="10.00">native_anchor: NativeAnchor | NoneType</text>
<polyline fill="none" stroke="black" points="4877.5,-327.5 4877.5,-419.5"/>
<text xml:space="preserve" text-anchor="middle" x="4904.25" y="-370" font-family="Helvetica,sans-Serif" font-size="10.00">Methods</text>
<polyline fill="none" stroke="black" points="4931,-327.5 4931,-419.5"/>
<text xml:space="preserve" text-anchor="start" x="4939" y="-370" font-family="Helvetica,sans-Serif" font-size="10.00">model_post_init(_ImageIR__context: Any) &#45;&gt; None</text>
</g>
<!-- document_processor.models.ParagraphIR -->
<g id="node4" class="node">
<title>document_processor.models.ParagraphIR</title>
<polygon fill="none" stroke="black" points="3483.38,-289.5 3483.38,-381.5 4291.38,-381.5 4291.38,-289.5 3483.38,-289.5"/>
<text xml:space="preserve" text-anchor="middle" x="3518.75" y="-332" font-family="Helvetica,sans-Serif" font-size="10.00">ParagraphIR</text>
<polyline fill="none" stroke="black" points="3554.12,-289.5 3554.12,-381.5"/>
<text xml:space="preserve" text-anchor="middle" x="3575.25" y="-332" font-family="Helvetica,sans-Serif" font-size="10.00">Fields</text>
<polyline fill="none" stroke="black" points="3596.38,-289.5 3596.38,-381.5"/>
<text xml:space="preserve" text-anchor="start" x="3604.38" y="-368" font-family="Helvetica,sans-Serif" font-size="10.00">meta: T | NoneType</text>
<text xml:space="preserve" text-anchor="start" x="3604.38" y="-356" font-family="Helvetica,sans-Serif" font-size="10.00">node_id: str | NoneType</text>
<text xml:space="preserve" text-anchor="start" x="3604.38" y="-344" font-family="Helvetica,sans-Serif" font-size="10.00">text: str</text>
<text xml:space="preserve" text-anchor="start" x="3604.38" y="-332" font-family="Helvetica,sans-Serif" font-size="10.00">page_number: int | NoneType</text>
<text xml:space="preserve" text-anchor="start" x="3604.38" y="-320" font-family="Helvetica,sans-Serif" font-size="10.00">para_style: ParaStyleInfo | NoneType</text>
<text xml:space="preserve" text-anchor="start" x="3604.38" y="-308" font-family="Helvetica,sans-Serif" font-size="10.00">content: list[RunIR | ImageIR | TableIR]</text>
<text xml:space="preserve" text-anchor="start" x="3604.38" y="-296" font-family="Helvetica,sans-Serif" font-size="10.00">native_anchor: NativeAnchor | NoneType</text>
<polyline fill="none" stroke="black" points="3790.88,-289.5 3790.88,-381.5"/>
<text xml:space="preserve" text-anchor="middle" x="3821" y="-332" font-family="Helvetica,sans-Serif" font-size="10.00">Properties</text>
<polyline fill="none" stroke="black" points="3851.12,-289.5 3851.12,-381.5"/>
<text xml:space="preserve" text-anchor="start" x="3859.12" y="-344" font-family="Helvetica,sans-Serif" font-size="10.00">@ runs: property</text>
<text xml:space="preserve" text-anchor="start" x="3859.12" y="-332" font-family="Helvetica,sans-Serif" font-size="10.00">@ images: property</text>
<text xml:space="preserve" text-anchor="start" x="3859.12" y="-320" font-family="Helvetica,sans-Serif" font-size="10.00">@ tables: property</text>
<polyline fill="none" stroke="black" points="3953.38,-289.5 3953.38,-381.5"/>
<text xml:space="preserve" text-anchor="middle" x="3980.12" y="-332" font-family="Helvetica,sans-Serif" font-size="10.00">Methods</text>
<polyline fill="none" stroke="black" points="4006.88,-289.5 4006.88,-381.5"/>
<text xml:space="preserve" text-anchor="start" x="4014.88" y="-362" font-family="Helvetica,sans-Serif" font-size="10.00">model_post_init(_ParagraphIR__context: Any) &#45;&gt; None</text>
<text xml:space="preserve" text-anchor="start" x="4014.88" y="-350" font-family="Helvetica,sans-Serif" font-size="10.00">append_content(node: &#39;ParagraphContentNode&#39;) &#45;&gt; None</text>
<text xml:space="preserve" text-anchor="start" x="4014.88" y="-338" font-family="Helvetica,sans-Serif" font-size="10.00">extend_content(nodes: list[&#39;ParagraphContentNode&#39;]) &#45;&gt; None</text>
<text xml:space="preserve" text-anchor="start" x="4014.88" y="-326" font-family="Helvetica,sans-Serif" font-size="10.00">sort_content(key) &#45;&gt; None</text>
<text xml:space="preserve" text-anchor="start" x="4014.88" y="-314" font-family="Helvetica,sans-Serif" font-size="10.00">iter_all_runs(include_table_runs: bool = True)</text>
<text xml:space="preserve" text-anchor="start" x="4014.88" y="-302" font-family="Helvetica,sans-Serif" font-size="10.00">recompute_text() &#45;&gt; None</text>
</g>
<!-- document_processor.models.ParagraphIR&#45;&gt;document_processor.models.RunIR -->
<g id="edge3" class="edge">
<title>document_processor.models.ParagraphIR&#45;&gt;document_processor.models.RunIR</title>
<path fill="none" stroke="black" d="M4291.66,-294.68C4389.75,-284.75 4492.78,-274.33 4584.56,-265.04"/>
<polygon fill="black" stroke="black" points="4584.88,-268.52 4594.47,-264.03 4584.17,-261.56 4584.88,-268.52"/>
</g>
<!-- document_processor.models.ParagraphIR&#45;&gt;document_processor.models.ImageIR -->
<g id="edge4" class="edge">
<title>document_processor.models.ParagraphIR&#45;&gt;document_processor.models.ImageIR</title>
<path fill="none" stroke="black" d="M4291.66,-351.01C4386.58,-354.66 4486.12,-358.49 4575.62,-361.93"/>
<polygon fill="black" stroke="black" points="4575.41,-365.43 4585.54,-362.31 4575.68,-358.43 4575.41,-365.43"/>
</g>
<!-- document_processor.models.TableIR -->
<g id="node6" class="node">
<title>document_processor.models.TableIR</title>
<polygon fill="none" stroke="black" points="4503,-438.5 4503,-530.5 5251.75,-530.5 5251.75,-438.5 4503,-438.5"/>
<text xml:space="preserve" text-anchor="middle" x="4527.88" y="-481" font-family="Helvetica,sans-Serif" font-size="10.00">TableIR</text>
<polyline fill="none" stroke="black" points="4552.75,-438.5 4552.75,-530.5"/>
<text xml:space="preserve" text-anchor="middle" x="4573.88" y="-481" font-family="Helvetica,sans-Serif" font-size="10.00">Fields</text>
<polyline fill="none" stroke="black" points="4595,-438.5 4595,-530.5"/>
<text xml:space="preserve" text-anchor="start" x="4603" y="-517" font-family="Helvetica,sans-Serif" font-size="10.00">meta: T | NoneType</text>
<text xml:space="preserve" text-anchor="start" x="4603" y="-505" font-family="Helvetica,sans-Serif" font-size="10.00">node_id: str | NoneType</text>
<text xml:space="preserve" text-anchor="start" x="4603" y="-493" font-family="Helvetica,sans-Serif" font-size="10.00">row_count: int</text>
<text xml:space="preserve" text-anchor="start" x="4603" y="-481" font-family="Helvetica,sans-Serif" font-size="10.00">col_count: int</text>
<text xml:space="preserve" text-anchor="start" x="4603" y="-469" font-family="Helvetica,sans-Serif" font-size="10.00">table_style: TableStyleInfo | NoneType</text>
<text xml:space="preserve" text-anchor="start" x="4603" y="-457" font-family="Helvetica,sans-Serif" font-size="10.00">cells: list[TableCellIR]</text>
<text xml:space="preserve" text-anchor="start" x="4603" y="-445" font-family="Helvetica,sans-Serif" font-size="10.00">native_anchor: NativeAnchor | NoneType</text>
<polyline fill="none" stroke="black" points="4789.5,-438.5 4789.5,-530.5"/>
<text xml:space="preserve" text-anchor="middle" x="4819.62" y="-481" font-family="Helvetica,sans-Serif" font-size="10.00">Properties</text>
<polyline fill="none" stroke="black" points="4849.75,-438.5 4849.75,-530.5"/>
<text xml:space="preserve" text-anchor="start" x="4857.75" y="-481" font-family="Helvetica,sans-Serif" font-size="10.00">@ markdown: property</text>
<polyline fill="none" stroke="black" points="4965.5,-438.5 4965.5,-530.5"/>
<text xml:space="preserve" text-anchor="middle" x="4992.25" y="-481" font-family="Helvetica,sans-Serif" font-size="10.00">Methods</text>
<polyline fill="none" stroke="black" points="5019,-438.5 5019,-530.5"/>
<text xml:space="preserve" text-anchor="start" x="5027" y="-481" font-family="Helvetica,sans-Serif" font-size="10.00">model_post_init(_TableIR__context: Any) &#45;&gt; None</text>
</g>
<!-- document_processor.models.ParagraphIR&#45;&gt;document_processor.models.TableIR -->
<g id="edge5" class="edge">
<title>document_processor.models.ParagraphIR&#45;&gt;document_processor.models.TableIR</title>
<path fill="none" stroke="black" d="M4291.74,-363.28C4336.1,-370.63 4380.27,-379.88 4422,-391.5 4460.31,-402.17 4464.92,-418.04 4503,-429.5 4509.59,-431.48 4516.26,-433.4 4523.01,-435.24"/>
<polygon fill="black" stroke="black" points="4521.63,-438.5 4532.2,-437.7 4523.44,-431.74 4521.63,-438.5"/>
</g>
<!-- document_processor.style_types.ParaStyleInfo -->
<g id="node9" class="node">
<title>document_processor.style_types.ParaStyleInfo</title>
<polygon fill="none" stroke="black" points="5425.12,-258.5 5425.12,-338.5 5759.62,-338.5 5759.62,-258.5 5425.12,-258.5"/>
<text xml:space="preserve" text-anchor="middle" x="5462.75" y="-295" font-family="Helvetica,sans-Serif" font-size="10.00">ParaStyleInfo</text>
<polyline fill="none" stroke="black" points="5500.38,-258.5 5500.38,-338.5"/>
<text xml:space="preserve" text-anchor="middle" x="5521.5" y="-295" font-family="Helvetica,sans-Serif" font-size="10.00">Fields</text>
<polyline fill="none" stroke="black" points="5542.62,-258.5 5542.62,-338.5"/>
<text xml:space="preserve" text-anchor="start" x="5550.62" y="-325" font-family="Helvetica,sans-Serif" font-size="10.00">align: str | NoneType</text>
<text xml:space="preserve" text-anchor="start" x="5550.62" y="-313" font-family="Helvetica,sans-Serif" font-size="10.00">left_indent_pt: float | NoneType</text>
<text xml:space="preserve" text-anchor="start" x="5550.62" y="-301" font-family="Helvetica,sans-Serif" font-size="10.00">right_indent_pt: float | NoneType</text>
<text xml:space="preserve" text-anchor="start" x="5550.62" y="-289" font-family="Helvetica,sans-Serif" font-size="10.00">first_line_indent_pt: float | NoneType</text>
<text xml:space="preserve" text-anchor="start" x="5550.62" y="-277" font-family="Helvetica,sans-Serif" font-size="10.00">hanging_indent_pt: float | NoneType</text>
<text xml:space="preserve" text-anchor="start" x="5550.62" y="-265" font-family="Helvetica,sans-Serif" font-size="10.00">column_layout: ColumnLayoutInfo | NoneType</text>
</g>
<!-- document_processor.models.ParagraphIR&#45;&gt;document_processor.style_types.ParaStyleInfo -->
<g id="edge9" class="edge">
<title>document_processor.models.ParagraphIR&#45;&gt;document_processor.style_types.ParaStyleInfo</title>
<path fill="none" stroke="black" d="M4291.71,-323.81C4362.14,-321.92 4434.7,-320.07 4503,-318.5 4823.88,-311.11 5198.03,-304.73 5413.54,-301.26"/>
<polygon fill="black" stroke="black" points="5413.5,-304.76 5423.44,-301.1 5413.38,-297.76 5413.5,-304.76"/>
</g>
<!-- document_processor.models.TableCellIR -->
<g id="node5" class="node">
<title>document_processor.models.TableCellIR</title>
<polygon fill="none" stroke="black" points="5288.75,-432.5 5288.75,-536.5 5896,-536.5 5896,-432.5 5288.75,-432.5"/>
<text xml:space="preserve" text-anchor="middle" x="5322.25" y="-481" font-family="Helvetica,sans-Serif" font-size="10.00">TableCellIR</text>
<polyline fill="none" stroke="black" points="5355.75,-432.5 5355.75,-536.5"/>
<text xml:space="preserve" text-anchor="middle" x="5376.88" y="-481" font-family="Helvetica,sans-Serif" font-size="10.00">Fields</text>
<polyline fill="none" stroke="black" points="5398,-432.5 5398,-536.5"/>
<text xml:space="preserve" text-anchor="start" x="5406" y="-523" font-family="Helvetica,sans-Serif" font-size="10.00">meta: T | NoneType</text>
<text xml:space="preserve" text-anchor="start" x="5406" y="-511" font-family="Helvetica,sans-Serif" font-size="10.00">node_id: str | NoneType</text>
<text xml:space="preserve" text-anchor="start" x="5406" y="-499" font-family="Helvetica,sans-Serif" font-size="10.00">row_index: int</text>
<text xml:space="preserve" text-anchor="start" x="5406" y="-487" font-family="Helvetica,sans-Serif" font-size="10.00">col_index: int</text>
<text xml:space="preserve" text-anchor="start" x="5406" y="-475" font-family="Helvetica,sans-Serif" font-size="10.00">text: str</text>
<text xml:space="preserve" text-anchor="start" x="5406" y="-463" font-family="Helvetica,sans-Serif" font-size="10.00">cell_style: CellStyleInfo | NoneType</text>
<text xml:space="preserve" text-anchor="start" x="5406" y="-451" font-family="Helvetica,sans-Serif" font-size="10.00">paragraphs: list[ParagraphIR]</text>
<text xml:space="preserve" text-anchor="start" x="5406" y="-439" font-family="Helvetica,sans-Serif" font-size="10.00">native_anchor: NativeAnchor | NoneType</text>
<polyline fill="none" stroke="black" points="5592.5,-432.5 5592.5,-536.5"/>
<text xml:space="preserve" text-anchor="middle" x="5619.25" y="-481" font-family="Helvetica,sans-Serif" font-size="10.00">Methods</text>
<polyline fill="none" stroke="black" points="5646,-432.5 5646,-536.5"/>
<text xml:space="preserve" text-anchor="start" x="5654" y="-487" font-family="Helvetica,sans-Serif" font-size="10.00">model_post_init(_TableCellIR__context: Any) &#45;&gt; None</text>
<text xml:space="preserve" text-anchor="start" x="5654" y="-475" font-family="Helvetica,sans-Serif" font-size="10.00">recompute_text() &#45;&gt; None</text>
</g>
<!-- document_processor.models.TableCellIR&#45;&gt;document_processor.models.ParagraphIR -->
<g id="edge7" class="edge">
<title>document_processor.models.TableCellIR&#45;&gt;document_processor.models.ParagraphIR</title>
<path fill="none" stroke="black" d="M5288.47,-536.99C5276.09,-538.33 5263.81,-539.51 5251.75,-540.5 4920.08,-567.66 4789.04,-710.57 4503,-540.5 4502.49,-540.2 4422.49,-391.83 4422,-391.5 4385.76,-367.3 4344.94,-350.07 4302.42,-338.08"/>
<polygon fill="black" stroke="black" points="4303.61,-334.78 4293.04,-335.54 4301.78,-341.53 4303.61,-334.78"/>
</g>
<!-- document_processor.style_types.CellStyleInfo -->
<g id="node10" class="node">
<title>document_processor.style_types.CellStyleInfo</title>
<polygon fill="none" stroke="black" points="5933,-0.5 5933,-212.5 6223.25,-212.5 6223.25,-0.5 5933,-0.5"/>
<text xml:space="preserve" text-anchor="middle" x="5969.12" y="-103" font-family="Helvetica,sans-Serif" font-size="10.00">CellStyleInfo</text>
<polyline fill="none" stroke="black" points="6005.25,-0.5 6005.25,-212.5"/>
<text xml:space="preserve" text-anchor="middle" x="6026.38" y="-103" font-family="Helvetica,sans-Serif" font-size="10.00">Fields</text>
<polyline fill="none" stroke="black" points="6047.5,-0.5 6047.5,-212.5"/>
<text xml:space="preserve" text-anchor="start" x="6055.5" y="-199" font-family="Helvetica,sans-Serif" font-size="10.00">background: str | NoneType</text>
<text xml:space="preserve" text-anchor="start" x="6055.5" y="-187" font-family="Helvetica,sans-Serif" font-size="10.00">vertical_align: str | NoneType</text>
<text xml:space="preserve" text-anchor="start" x="6055.5" y="-175" font-family="Helvetica,sans-Serif" font-size="10.00">horizontal_align: str | NoneType</text>
<text xml:space="preserve" text-anchor="start" x="6055.5" y="-163" font-family="Helvetica,sans-Serif" font-size="10.00">width_pt: float | NoneType</text>
<text xml:space="preserve" text-anchor="start" x="6055.5" y="-151" font-family="Helvetica,sans-Serif" font-size="10.00">height_pt: float | NoneType</text>
<text xml:space="preserve" text-anchor="start" x="6055.5" y="-139" font-family="Helvetica,sans-Serif" font-size="10.00">padding_top_pt: float | NoneType</text>
<text xml:space="preserve" text-anchor="start" x="6055.5" y="-127" font-family="Helvetica,sans-Serif" font-size="10.00">padding_right_pt: float | NoneType</text>
<text xml:space="preserve" text-anchor="start" x="6055.5" y="-115" font-family="Helvetica,sans-Serif" font-size="10.00">padding_bottom_pt: float | NoneType</text>
<text xml:space="preserve" text-anchor="start" x="6055.5" y="-103" font-family="Helvetica,sans-Serif" font-size="10.00">padding_left_pt: float | NoneType</text>
<text xml:space="preserve" text-anchor="start" x="6055.5" y="-91" font-family="Helvetica,sans-Serif" font-size="10.00">border_top: str | NoneType</text>
<text xml:space="preserve" text-anchor="start" x="6055.5" y="-79" font-family="Helvetica,sans-Serif" font-size="10.00">border_bottom: str | NoneType</text>
<text xml:space="preserve" text-anchor="start" x="6055.5" y="-67" font-family="Helvetica,sans-Serif" font-size="10.00">border_left: str | NoneType</text>
<text xml:space="preserve" text-anchor="start" x="6055.5" y="-55" font-family="Helvetica,sans-Serif" font-size="10.00">border_right: str | NoneType</text>
<text xml:space="preserve" text-anchor="start" x="6055.5" y="-43" font-family="Helvetica,sans-Serif" font-size="10.00">diagonal_tl_br: str | NoneType</text>
<text xml:space="preserve" text-anchor="start" x="6055.5" y="-31" font-family="Helvetica,sans-Serif" font-size="10.00">diagonal_tr_bl: str | NoneType</text>
<text xml:space="preserve" text-anchor="start" x="6055.5" y="-19" font-family="Helvetica,sans-Serif" font-size="10.00">rowspan: int</text>
<text xml:space="preserve" text-anchor="start" x="6055.5" y="-7" font-family="Helvetica,sans-Serif" font-size="10.00">colspan: int</text>
</g>
<!-- document_processor.models.TableCellIR&#45;&gt;document_processor.style_types.CellStyleInfo -->
<g id="edge10" class="edge">
<title>document_processor.models.TableCellIR&#45;&gt;document_processor.style_types.CellStyleInfo</title>
<path fill="none" stroke="black" d="M5883.3,-432.04C5887.63,-429.32 5891.87,-426.48 5896,-423.5 5963.82,-374.54 6009.86,-291.81 6038.54,-223.14"/>
<polygon fill="black" stroke="black" points="6041.7,-224.66 6042.24,-214.08 6035.22,-222.01 6041.7,-224.66"/>
</g>
<!-- document_processor.models.TableIR&#45;&gt;document_processor.models.TableCellIR -->
<g id="edge6" class="edge">
<title>document_processor.models.TableIR&#45;&gt;document_processor.models.TableCellIR</title>
<path fill="none" stroke="black" d="M5252.1,-484.5C5260.43,-484.5 5268.75,-484.5 5277.04,-484.5"/>
<polygon fill="black" stroke="black" points="5276.8,-488 5286.8,-484.5 5276.8,-481 5276.8,-488"/>
</g>
<!-- document_processor.style_types.TableStyleInfo -->
<g id="node11" class="node">
<title>document_processor.style_types.TableStyleInfo</title>
<polygon fill="none" stroke="black" points="5465.62,-357.5 5465.62,-413.5 5719.12,-413.5 5719.12,-357.5 5465.62,-357.5"/>
<text xml:space="preserve" text-anchor="middle" x="5504.75" y="-382" font-family="Helvetica,sans-Serif" font-size="10.00">TableStyleInfo</text>
<polyline fill="none" stroke="black" points="5543.88,-357.5 5543.88,-413.5"/>
<text xml:space="preserve" text-anchor="middle" x="5565" y="-382" font-family="Helvetica,sans-Serif" font-size="10.00">Fields</text>
<polyline fill="none" stroke="black" points="5586.12,-357.5 5586.12,-413.5"/>
<text xml:space="preserve" text-anchor="start" x="5594.12" y="-400" font-family="Helvetica,sans-Serif" font-size="10.00">row_count: int</text>
<text xml:space="preserve" text-anchor="start" x="5594.12" y="-388" font-family="Helvetica,sans-Serif" font-size="10.00">col_count: int</text>
<text xml:space="preserve" text-anchor="start" x="5594.12" y="-376" font-family="Helvetica,sans-Serif" font-size="10.00">width_pt: float | NoneType</text>
<text xml:space="preserve" text-anchor="start" x="5594.12" y="-364" font-family="Helvetica,sans-Serif" font-size="10.00">height_pt: float | NoneType</text>
</g>
<!-- document_processor.models.TableIR&#45;&gt;document_processor.style_types.TableStyleInfo -->
<g id="edge11" class="edge">
<title>document_processor.models.TableIR&#45;&gt;document_processor.style_types.TableStyleInfo</title>
<path fill="none" stroke="black" d="M5196.18,-438.01C5214.99,-435.15 5233.62,-432.31 5251.75,-429.5 5268.21,-426.95 5272.26,-425.87 5288.75,-423.5 5342.71,-415.74 5402.21,-408.08 5454.06,-401.69"/>
<polygon fill="black" stroke="black" points="5454.35,-405.18 5463.85,-400.48 5453.5,-398.23 5454.35,-405.18"/>
</g>
<!-- document_processor.models.DocIR -->
<g id="node7" class="node">
<title>document_processor.models.DocIR</title>
<polygon fill="none" stroke="black" points="1724.25,-283.5 1724.25,-387.5 3271.75,-387.5 3271.75,-283.5 1724.25,-283.5"/>
<text xml:space="preserve" text-anchor="middle" x="1746.5" y="-332" font-family="Helvetica,sans-Serif" font-size="10.00">DocIR</text>
<polyline fill="none" stroke="black" points="1768.75,-283.5 1768.75,-387.5"/>
<text xml:space="preserve" text-anchor="middle" x="1789.88" y="-332" font-family="Helvetica,sans-Serif" font-size="10.00">Fields</text>
<polyline fill="none" stroke="black" points="1811,-283.5 1811,-387.5"/>
<text xml:space="preserve" text-anchor="start" x="1819" y="-374" font-family="Helvetica,sans-Serif" font-size="10.00">meta: T | NoneType</text>
<text xml:space="preserve" text-anchor="start" x="1819" y="-362" font-family="Helvetica,sans-Serif" font-size="10.00">identity_version: int</text>
<text xml:space="preserve" text-anchor="start" x="1819" y="-350" font-family="Helvetica,sans-Serif" font-size="10.00">doc_id: str | NoneType</text>
<text xml:space="preserve" text-anchor="start" x="1819" y="-338" font-family="Helvetica,sans-Serif" font-size="10.00">source_path: str | NoneType</text>
<text xml:space="preserve" text-anchor="start" x="1819" y="-326" font-family="Helvetica,sans-Serif" font-size="10.00">source_doc_type: str | NoneType</text>
<text xml:space="preserve" text-anchor="start" x="1819" y="-314" font-family="Helvetica,sans-Serif" font-size="10.00">assets: dict[str, ImageAsset]</text>
<text xml:space="preserve" text-anchor="start" x="1819" y="-302" font-family="Helvetica,sans-Serif" font-size="10.00">pages: list[PageInfo]</text>
<text xml:space="preserve" text-anchor="start" x="1819" y="-290" font-family="Helvetica,sans-Serif" font-size="10.00">paragraphs: list[ParagraphIR]</text>
<polyline fill="none" stroke="black" points="1971,-283.5 1971,-387.5"/>
<text xml:space="preserve" text-anchor="middle" x="2001.12" y="-332" font-family="Helvetica,sans-Serif" font-size="10.00">Properties</text>
<polyline fill="none" stroke="black" points="2031.25,-283.5 2031.25,-387.5"/>
<text xml:space="preserve" text-anchor="start" x="2039.25" y="-332" font-family="Helvetica,sans-Serif" font-size="10.00">@ has_page_metadata: property</text>
<polyline fill="none" stroke="black" points="2189.75,-283.5 2189.75,-387.5"/>
<text xml:space="preserve" text-anchor="middle" x="2216.5" y="-332" font-family="Helvetica,sans-Serif" font-size="10.00">Methods</text>
<polyline fill="none" stroke="black" points="2243.25,-283.5 2243.25,-387.5"/>
<text xml:space="preserve" text-anchor="start" x="2251.25" y="-362" font-family="Helvetica,sans-Serif" font-size="10.00">model_post_init(_DocIR__context: Any) &#45;&gt; None</text>
<text xml:space="preserve" text-anchor="start" x="2251.25" y="-350" font-family="Helvetica,sans-Serif" font-size="10.00">get_image_asset(image_or_id: ImageIR | str) &#45;&gt; ImageAsset[T] | None</text>
<text xml:space="preserve" text-anchor="start" x="2251.25" y="-338" font-family="Helvetica,sans-Serif" font-size="10.00">ensure_node_identity() &#45;&gt; &#39;DocIR&#39;</text>
<text xml:space="preserve" text-anchor="start" x="2251.25" y="-326" font-family="Helvetica,sans-Serif" font-size="10.00">from_file(source: str | Path | bytes | BinaryIO, doc_type: str = &#39;auto&#39;, include_tables: bool = True, skip_empty: bool = False, metadata: dict[str, Any] | None = None, doc_id: str | None = None, **doc_kwargs: Any) &#45;&gt; &#39;DocIR&#39;</text>
<text xml:space="preserve" text-anchor="start" x="2251.25" y="-314" font-family="Helvetica,sans-Serif" font-size="10.00">from_mapping(mapping: dict[str, str], style_map = None, source_path: str | Path | None = None, source_doc_type: str | None = None, metadata: dict[str, Any] | None = None, doc_id: str | None = None, **doc_kwargs: Any) &#45;&gt; &#39;DocIR&#39;</text>
<text xml:space="preserve" text-anchor="start" x="2251.25" y="-302" font-family="Helvetica,sans-Serif" font-size="10.00">to_html(title: str | None = None, debug_layout: bool = False) &#45;&gt; str</text>
</g>
<!-- document_processor.models.DocIR&#45;&gt;document_processor.models.ImageAsset -->
<g id="edge2" class="edge">
<title>document_processor.models.DocIR&#45;&gt;document_processor.models.ImageAsset</title>
<path fill="none" stroke="black" d="M3192.69,-388C3242.49,-391.77 3292.3,-395.54 3341.08,-399.23"/>
<polygon fill="black" stroke="black" points="3340.72,-402.71 3350.95,-399.98 3341.24,-395.73 3340.72,-402.71"/>
</g>
<!-- document_processor.models.DocIR&#45;&gt;document_processor.models.ParagraphIR -->
<g id="edge1" class="edge">
<title>document_processor.models.DocIR&#45;&gt;document_processor.models.ParagraphIR</title>
<path fill="none" stroke="black" d="M3272.05,-335.5C3340.55,-335.5 3408.01,-335.5 3471.71,-335.5"/>
<polygon fill="black" stroke="black" points="3471.62,-339 3481.62,-335.5 3471.62,-332 3471.62,-339"/>
</g>
<!-- document_processor.style_types.StyleMap -->
<g id="node12" class="node">
<title>document_processor.style_types.StyleMap</title>
<polygon fill="none" stroke="black" points="4743.5,-126.5 4743.5,-182.5 5011.25,-182.5 5011.25,-126.5 4743.5,-126.5"/>
<text xml:space="preserve" text-anchor="middle" x="4772.12" y="-151" font-family="Helvetica,sans-Serif" font-size="10.00">StyleMap</text>
<polyline fill="none" stroke="black" points="4800.75,-126.5 4800.75,-182.5"/>
<text xml:space="preserve" text-anchor="middle" x="4821.88" y="-151" font-family="Helvetica,sans-Serif" font-size="10.00">Fields</text>
<polyline fill="none" stroke="black" points="4843,-126.5 4843,-182.5"/>
<text xml:space="preserve" text-anchor="start" x="4851" y="-169" font-family="Helvetica,sans-Serif" font-size="10.00">runs: dict[str, RunStyleInfo]</text>
<text xml:space="preserve" text-anchor="start" x="4851" y="-157" font-family="Helvetica,sans-Serif" font-size="10.00">paragraphs: dict[str, ParaStyleInfo]</text>
<text xml:space="preserve" text-anchor="start" x="4851" y="-145" font-family="Helvetica,sans-Serif" font-size="10.00">cells: dict[str, CellStyleInfo]</text>
<text xml:space="preserve" text-anchor="start" x="4851" y="-133" font-family="Helvetica,sans-Serif" font-size="10.00">tables: dict[str, TableStyleInfo]</text>
</g>
<!-- document_processor.style_types.StyleMap&#45;&gt;document_processor.style_types.RunStyleInfo -->
<g id="edge12" class="edge">
<title>document_processor.style_types.StyleMap&#45;&gt;document_processor.style_types.RunStyleInfo</title>
<path fill="none" stroke="black" d="M5011.65,-159.55C5140.08,-164.41 5333.18,-171.72 5460.72,-176.55"/>
<polygon fill="black" stroke="black" points="5460.45,-180.04 5470.57,-176.93 5460.71,-173.05 5460.45,-180.04"/>
</g>
<!-- document_processor.style_types.StyleMap&#45;&gt;document_processor.style_types.ParaStyleInfo -->
<g id="edge13" class="edge">
<title>document_processor.style_types.StyleMap&#45;&gt;document_processor.style_types.ParaStyleInfo</title>
<path fill="none" stroke="black" d="M5011.68,-140.9C5087.23,-139.53 5180.57,-149.03 5251.75,-192.5 5277.53,-208.24 5263.45,-233 5288.75,-249.5 5325.56,-273.5 5370.1,-287.12 5413.56,-294.55"/>
<polygon fill="black" stroke="black" points="5412.96,-298 5423.39,-296.12 5414.06,-291.09 5412.96,-298"/>
</g>
<!-- document_processor.style_types.StyleMap&#45;&gt;document_processor.style_types.CellStyleInfo -->
<g id="edge14" class="edge">
<title>document_processor.style_types.StyleMap&#45;&gt;document_processor.style_types.CellStyleInfo</title>
<path fill="none" stroke="black" d="M5011.67,-138.09C5091.84,-129 5195.99,-118.54 5288.75,-113.5 5508.14,-101.59 5762.37,-101.86 5921.49,-103.73"/>
<polygon fill="black" stroke="black" points="5921.23,-107.22 5931.27,-103.84 5921.31,-100.22 5921.23,-107.22"/>
</g>
<!-- document_processor.style_types.StyleMap&#45;&gt;document_processor.style_types.TableStyleInfo -->
<g id="edge15" class="edge">
<title>document_processor.style_types.StyleMap&#45;&gt;document_processor.style_types.TableStyleInfo</title>
<path fill="none" stroke="black" d="M5011.69,-132.65C5090.56,-127.54 5187.32,-136.02 5251.75,-192.5 5278.54,-215.98 5262.2,-324.75 5288.75,-348.5 5332.95,-388.04 5396.42,-400.05 5453.83,-401.07"/>
<polygon fill="black" stroke="black" points="5453.69,-404.57 5463.71,-401.12 5453.73,-397.57 5453.69,-404.57"/>
</g>
<!-- document_processor.core.document_ir_parser -->
<g id="node13" class="node">
<title>document_processor.core.document_ir_parser</title>
<path fill="none" stroke="black" d="M12,-152.5C12,-152.5 1624.5,-152.5 1624.5,-152.5 1630.5,-152.5 1636.5,-158.5 1636.5,-164.5 1636.5,-164.5 1636.5,-176.5 1636.5,-176.5 1636.5,-182.5 1630.5,-188.5 1624.5,-188.5 1624.5,-188.5 12,-188.5 12,-188.5 6,-188.5 0,-182.5 0,-176.5 0,-176.5 0,-164.5 0,-164.5 0,-158.5 6,-152.5 12,-152.5"/>
<text xml:space="preserve" text-anchor="middle" x="50.75" y="-167" font-family="Helvetica,sans-Serif" font-size="10.00">document_ir_parser</text>
<polyline fill="none" stroke="black" points="101.5,-152.5 101.5,-188.5"/>
<text xml:space="preserve" text-anchor="middle" x="130.88" y="-167" font-family="Helvetica,sans-Serif" font-size="10.00">Functions</text>
<polyline fill="none" stroke="black" points="160.25,-152.5 160.25,-188.5"/>
<text xml:space="preserve" text-anchor="start" x="168.25" y="-167" font-family="Helvetica,sans-Serif" font-size="10.00">build_doc_ir_from_file(source: &#39;HwpxDocument | DocxDocument | str | Path | bytes&#39;, doc_type: DocType, include_tables: bool = True, skip_empty: bool = False, source_path: str | Path | None = None, metadata: dict[str, Any] | None = None, doc_id: str | None = None, doc_cls: type[DocIR] | None = None, **doc_kwargs: Any) &#45;&gt; DocIR</text>
</g>
<!-- document_processor.core.document_ir_parser&#45;&gt;document_processor.models.DocIR -->
<g id="edge16" class="edge">
<title>document_processor.core.document_ir_parser&#45;&gt;document_processor.models.DocIR</title>
<path fill="none" stroke="black" stroke-dasharray="5,2" d="M1522.03,-188.98C1560.78,-191.74 1599.14,-194.9 1636.5,-198.5 1829.42,-217.09 2044.77,-251.39 2211.78,-281.01"/>
<polygon fill="black" stroke="black" points="2211.01,-284.43 2221.47,-282.74 2212.24,-277.54 2211.01,-284.43"/>
<text xml:space="preserve" text-anchor="middle" x="1680.38" y="-205.2" font-family="Helvetica,sans-Serif" font-size="9.00">uses models</text>
</g>
<!-- document_processor.core.document_ir_parser&#45;&gt;document_processor.style_types.StyleMap -->
<g id="edge17" class="edge">
<title>document_processor.core.document_ir_parser&#45;&gt;document_processor.style_types.StyleMap</title>
<path fill="none" stroke="black" stroke-dasharray="5,2" d="M1636.91,-167.28C2633.24,-163.35 4244.23,-156.99 4731.95,-155.07"/>
<polygon fill="black" stroke="black" points="4731.76,-158.57 4741.75,-155.03 4731.73,-151.57 4731.76,-158.57"/>
<text xml:space="preserve" text-anchor="middle" x="3312.25" y="-162.62" font-family="Helvetica,sans-Serif" font-size="9.00">uses styles</text>
</g>
<!-- document_processor.core.docx_structured_exporter -->
<g id="node14" class="node">
<title>document_processor.core.docx_structured_exporter</title>
<path fill="none" stroke="black" d="M408.38,-207.5C408.38,-207.5 1228.12,-207.5 1228.12,-207.5 1234.12,-207.5 1240.12,-213.5 1240.12,-219.5 1240.12,-219.5 1240.12,-231.5 1240.12,-231.5 1240.12,-237.5 1234.12,-243.5 1228.12,-243.5 1228.12,-243.5 408.38,-243.5 408.38,-243.5 402.38,-243.5 396.38,-237.5 396.38,-231.5 396.38,-231.5 396.38,-219.5 396.38,-219.5 396.38,-213.5 402.38,-207.5 408.38,-207.5"/>
<text xml:space="preserve" text-anchor="middle" x="459.5" y="-222" font-family="Helvetica,sans-Serif" font-size="10.00">docx_structured_exporter</text>
<polyline fill="none" stroke="black" points="522.62,-207.5 522.62,-243.5"/>
<text xml:space="preserve" text-anchor="middle" x="552" y="-222" font-family="Helvetica,sans-Serif" font-size="10.00">Functions</text>
<polyline fill="none" stroke="black" points="581.38,-207.5 581.38,-243.5"/>
<text xml:space="preserve" text-anchor="start" x="589.38" y="-228" font-family="Helvetica,sans-Serif" font-size="10.00">export_docx_structured_mapping(source: &#39;DocxDocument | str | Path | bytes&#39;, include_tables: bool = True, skip_empty: bool = False) &#45;&gt; dict[str, str]</text>
<text xml:space="preserve" text-anchor="start" x="589.38" y="-216" font-family="Helvetica,sans-Serif" font-size="10.00">export_structured_mapping(source: &#39;DocxDocument | str | Path | bytes&#39;, include_tables: bool = True, skip_empty: bool = False) &#45;&gt; dict[str, str]</text>
</g>
<!-- document_processor.core.hwp_converter -->
<g id="node15" class="node">
<title>document_processor.core.hwp_converter</title>
<path fill="none" stroke="black" d="M623.25,-262.5C623.25,-262.5 1013.25,-262.5 1013.25,-262.5 1019.25,-262.5 1025.25,-268.5 1025.25,-274.5 1025.25,-274.5 1025.25,-286.5 1025.25,-286.5 1025.25,-292.5 1019.25,-298.5 1013.25,-298.5 1013.25,-298.5 623.25,-298.5 623.25,-298.5 617.25,-298.5 611.25,-292.5 611.25,-286.5 611.25,-286.5 611.25,-274.5 611.25,-274.5 611.25,-268.5 617.25,-262.5 623.25,-262.5"/>
<text xml:space="preserve" text-anchor="middle" x="651.12" y="-277" font-family="Helvetica,sans-Serif" font-size="10.00">hwp_converter</text>
<polyline fill="none" stroke="black" points="691,-262.5 691,-298.5"/>
<text xml:space="preserve" text-anchor="middle" x="720.38" y="-277" font-family="Helvetica,sans-Serif" font-size="10.00">Functions</text>
<polyline fill="none" stroke="black" points="749.75,-262.5 749.75,-298.5"/>
<text xml:space="preserve" text-anchor="start" x="757.75" y="-283" font-family="Helvetica,sans-Serif" font-size="10.00">convert_hwp_to_hwpx_bytes(hwp_path: str | Path) &#45;&gt; bytes</text>
<text xml:space="preserve" text-anchor="start" x="757.75" y="-271" font-family="Helvetica,sans-Serif" font-size="10.00">patch_hwpx_container(hwpx_path: str | Path) &#45;&gt; None</text>
</g>
<!-- document_processor.core.hwpx_structured_exporter -->
<g id="node16" class="node">
<title>document_processor.core.hwpx_structured_exporter</title>
<path fill="none" stroke="black" d="M466.5,-317.5C466.5,-317.5 1170,-317.5 1170,-317.5 1176,-317.5 1182,-323.5 1182,-329.5 1182,-329.5 1182,-341.5 1182,-341.5 1182,-347.5 1176,-353.5 1170,-353.5 1170,-353.5 466.5,-353.5 466.5,-353.5 460.5,-353.5 454.5,-347.5 454.5,-341.5 454.5,-341.5 454.5,-329.5 454.5,-329.5 454.5,-323.5 460.5,-317.5 466.5,-317.5"/>
<text xml:space="preserve" text-anchor="middle" x="518.75" y="-332" font-family="Helvetica,sans-Serif" font-size="10.00">hwpx_structured_exporter</text>
<polyline fill="none" stroke="black" points="583,-317.5 583,-353.5"/>
<text xml:space="preserve" text-anchor="middle" x="612.38" y="-332" font-family="Helvetica,sans-Serif" font-size="10.00">Functions</text>
<polyline fill="none" stroke="black" points="641.75,-317.5 641.75,-353.5"/>
<text xml:space="preserve" text-anchor="start" x="649.75" y="-338" font-family="Helvetica,sans-Serif" font-size="10.00">export_hwpx_structured_mapping(source: &#39;HwpxDocument | str | Path | bytes&#39;, skip_empty: bool = False) &#45;&gt; dict[str, str]</text>
<text xml:space="preserve" text-anchor="start" x="649.75" y="-326" font-family="Helvetica,sans-Serif" font-size="10.00">export_structured_mapping(source: &#39;HwpxDocument | str | Path | bytes&#39;, skip_empty: bool = False) &#45;&gt; dict[str, str]</text>
</g>
<!-- document_processor.core.structured_mapping_exporter -->
<g id="node17" class="node">
<title>document_processor.core.structured_mapping_exporter</title>
<path fill="none" stroke="black" d="M311.25,-372.5C311.25,-372.5 1325.25,-372.5 1325.25,-372.5 1331.25,-372.5 1337.25,-378.5 1337.25,-384.5 1337.25,-384.5 1337.25,-396.5 1337.25,-396.5 1337.25,-402.5 1331.25,-408.5 1325.25,-408.5 1325.25,-408.5 311.25,-408.5 311.25,-408.5 305.25,-408.5 299.25,-402.5 299.25,-396.5 299.25,-396.5 299.25,-384.5 299.25,-384.5 299.25,-378.5 305.25,-372.5 311.25,-372.5"/>
<text xml:space="preserve" text-anchor="middle" x="370.25" y="-387" font-family="Helvetica,sans-Serif" font-size="10.00">structured_mapping_exporter</text>
<polyline fill="none" stroke="black" points="441.25,-372.5 441.25,-408.5"/>
<text xml:space="preserve" text-anchor="middle" x="470.62" y="-387" font-family="Helvetica,sans-Serif" font-size="10.00">Functions</text>
<polyline fill="none" stroke="black" points="500,-372.5 500,-408.5"/>
<text xml:space="preserve" text-anchor="start" x="508" y="-387" font-family="Helvetica,sans-Serif" font-size="10.00">export_structured_mapping(source: &#39;HwpxDocument | DocxDocument | str | Path | bytes&#39;, doc_type: DocType = &#39;auto&#39;, skip_empty: bool = False, include_tables: bool = True) &#45;&gt; dict[str, str]</text>
</g>
<!-- document_processor.core.style_extractor -->
<g id="node18" class="node">
<title>document_processor.core.style_extractor</title>
<path fill="none" stroke="black" d="M3501.88,-183.5C3501.88,-183.5 4272.88,-183.5 4272.88,-183.5 4278.88,-183.5 4284.88,-189.5 4284.88,-195.5 4284.88,-195.5 4284.88,-215.5 4284.88,-215.5 4284.88,-221.5 4278.88,-227.5 4272.88,-227.5 4272.88,-227.5 3501.88,-227.5 3501.88,-227.5 3495.88,-227.5 3489.88,-221.5 3489.88,-215.5 3489.88,-215.5 3489.88,-195.5 3489.88,-195.5 3489.88,-189.5 3495.88,-183.5 3501.88,-183.5"/>
<text xml:space="preserve" text-anchor="middle" x="3530.12" y="-202" font-family="Helvetica,sans-Serif" font-size="10.00">style_extractor</text>
<polyline fill="none" stroke="black" points="3570.38,-183.5 3570.38,-227.5"/>
<text xml:space="preserve" text-anchor="middle" x="3599.75" y="-202" font-family="Helvetica,sans-Serif" font-size="10.00">Functions</text>
<polyline fill="none" stroke="black" points="3629.12,-183.5 3629.12,-227.5"/>
<text xml:space="preserve" text-anchor="start" x="3637.12" y="-214" font-family="Helvetica,sans-Serif" font-size="10.00">extract_styles(source: &#39;HwpxDocument | DocxDocument | str | Path | bytes&#39;, doc_type: DocType = &#39;auto&#39;, include_tables: bool = True) &#45;&gt; StyleMap</text>
<text xml:space="preserve" text-anchor="start" x="3637.12" y="-202" font-family="Helvetica,sans-Serif" font-size="10.00">extract_styles_docx(source: &#39;DocxDocument | str | Path | bytes&#39;, include_tables: bool = True) &#45;&gt; StyleMap</text>
<text xml:space="preserve" text-anchor="start" x="3637.12" y="-190" font-family="Helvetica,sans-Serif" font-size="10.00">extract_styles_hwpx(source: &#39;HwpxDocument | str | Path | bytes&#39;) &#45;&gt; StyleMap</text>
</g>
<!-- document_processor.core.style_extractor&#45;&gt;document_processor.style_types.StyleMap -->
<g id="edge18" class="edge">
<title>document_processor.core.style_extractor&#45;&gt;document_processor.style_types.StyleMap</title>
<path fill="none" stroke="black" stroke-dasharray="5,2" d="M4285.25,-185.01C4443,-176.87 4614.5,-168.02 4731.95,-161.96"/>
<polygon fill="black" stroke="black" points="4731.82,-165.47 4741.63,-161.46 4731.46,-158.48 4731.82,-165.47"/>
<text xml:space="preserve" text-anchor="middle" x="4462.5" y="-178.9" font-family="Helvetica,sans-Serif" font-size="9.00">uses styles</text>
</g>
</g>
</svg>
