<?xml version="1.0" encoding="UTF-8" standalone="no"?>
<!DOCTYPE svg PUBLIC "-//W3C//DTD SVG 1.1//EN"
 "http://www.w3.org/Graphics/SVG/1.1/DTD/svg11.dtd">
<!-- Generated by graphviz version 14.1.4 (0)
 -->
<!-- Title: document_processor Pages: 1 -->
<svg width="5492pt" height="529pt"
 viewBox="0.00 0.00 5492.00 529.00" xmlns="http://www.w3.org/2000/svg" xmlns:xlink="http://www.w3.org/1999/xlink">
<g id="graph0" class="graph" transform="scale(1 1) rotate(0) translate(4 524.51)">
<title>document_processor</title>
<polygon fill="white" stroke="none" points="-4,4 -4,-524.51 5487.75,-524.51 5487.75,4 -4,4"/>
<!-- document_processor.models.RunIR -->
<g id="node1" class="node">
<title>document_processor.models.RunIR</title>
<polygon fill="none" stroke="black" points="4324.88,-378.94 4324.88,-434.94 4582.88,-434.94 4582.88,-378.94 4324.88,-378.94"/>
<text xml:space="preserve" text-anchor="middle" x="4347.12" y="-403.44" font-family="Helvetica,sans-Serif" font-size="10.00">RunIR</text>
<polyline fill="none" stroke="black" points="4369.38,-378.94 4369.38,-434.94"/>
<text xml:space="preserve" text-anchor="middle" x="4390.5" y="-403.44" font-family="Helvetica,sans-Serif" font-size="10.00">Fields</text>
<polyline fill="none" stroke="black" points="4411.62,-378.94 4411.62,-434.94"/>
<text xml:space="preserve" text-anchor="start" x="4419.62" y="-421.44" font-family="Helvetica,sans-Serif" font-size="10.00">meta: T | NoneType</text>
<text xml:space="preserve" text-anchor="start" x="4419.62" y="-409.44" font-family="Helvetica,sans-Serif" font-size="10.00">unit_id: str</text>
<text xml:space="preserve" text-anchor="start" x="4419.62" y="-397.44" font-family="Helvetica,sans-Serif" font-size="10.00">text: str</text>
<text xml:space="preserve" text-anchor="start" x="4419.62" y="-385.44" font-family="Helvetica,sans-Serif" font-size="10.00">run_style: RunStyleInfo | NoneType</text>
</g>
<!-- document_processor.style_types.RunStyleInfo -->
<g id="node8" class="node">
<title>document_processor.style_types.RunStyleInfo</title>
<polygon fill="none" stroke="black" points="4827.75,-322.94 4827.75,-438.94 5067.75,-438.94 5067.75,-322.94 4827.75,-322.94"/>
<text xml:space="preserve" text-anchor="middle" x="4864.25" y="-377.44" font-family="Helvetica,sans-Serif" font-size="10.00">RunStyleInfo</text>
<polyline fill="none" stroke="black" points="4900.75,-322.94 4900.75,-438.94"/>
<text xml:space="preserve" text-anchor="middle" x="4921.88" y="-377.44" font-family="Helvetica,sans-Serif" font-size="10.00">Fields</text>
<polyline fill="none" stroke="black" points="4943,-322.94 4943,-438.94"/>
<text xml:space="preserve" text-anchor="start" x="4951" y="-425.44" font-family="Helvetica,sans-Serif" font-size="10.00">bold: bool</text>
<text xml:space="preserve" text-anchor="start" x="4951" y="-413.44" font-family="Helvetica,sans-Serif" font-size="10.00">italic: bool</text>
<text xml:space="preserve" text-anchor="start" x="4951" y="-401.44" font-family="Helvetica,sans-Serif" font-size="10.00">underline: bool</text>
<text xml:space="preserve" text-anchor="start" x="4951" y="-389.44" font-family="Helvetica,sans-Serif" font-size="10.00">strikethrough: bool</text>
<text xml:space="preserve" text-anchor="start" x="4951" y="-377.44" font-family="Helvetica,sans-Serif" font-size="10.00">superscript: bool</text>
<text xml:space="preserve" text-anchor="start" x="4951" y="-365.44" font-family="Helvetica,sans-Serif" font-size="10.00">subscript: bool</text>
<text xml:space="preserve" text-anchor="start" x="4951" y="-353.44" font-family="Helvetica,sans-Serif" font-size="10.00">color: str | NoneType</text>
<text xml:space="preserve" text-anchor="start" x="4951" y="-341.44" font-family="Helvetica,sans-Serif" font-size="10.00">highlight: str | NoneType</text>
<text xml:space="preserve" text-anchor="start" x="4951" y="-329.44" font-family="Helvetica,sans-Serif" font-size="10.00">size_pt: float | NoneType</text>
</g>
<!-- document_processor.models.RunIR&#45;&gt;document_processor.style_types.RunStyleInfo -->
<g id="edge8" class="edge">
<title>document_processor.models.RunIR&#45;&gt;document_processor.style_types.RunStyleInfo</title>
<path fill="none" stroke="black" d="M4583.15,-400.16C4654.88,-396.37 4744.09,-391.65 4816.2,-387.84"/>
<polygon fill="black" stroke="black" points="4816.3,-391.34 4826.1,-387.32 4815.93,-384.35 4816.3,-391.34"/>
</g>
<!-- document_processor.models.ImageAsset -->
<g id="node2" class="node">
<title>document_processor.models.ImageAsset</title>
<polygon fill="none" stroke="black" points="3090,-78.94 3090,-146.94 4147.25,-146.94 4147.25,-78.94 3090,-78.94"/>
<text xml:space="preserve" text-anchor="middle" x="3124.25" y="-109.44" font-family="Helvetica,sans-Serif" font-size="10.00">ImageAsset</text>
<polyline fill="none" stroke="black" points="3158.5,-78.94 3158.5,-146.94"/>
<text xml:space="preserve" text-anchor="middle" x="3179.62" y="-109.44" font-family="Helvetica,sans-Serif" font-size="10.00">Fields</text>
<polyline fill="none" stroke="black" points="3200.75,-78.94 3200.75,-146.94"/>
<text xml:space="preserve" text-anchor="start" x="3208.75" y="-133.44" font-family="Helvetica,sans-Serif" font-size="10.00">mime_type: str</text>
<text xml:space="preserve" text-anchor="start" x="3208.75" y="-121.44" font-family="Helvetica,sans-Serif" font-size="10.00">filename: str | NoneType</text>
<text xml:space="preserve" text-anchor="start" x="3208.75" y="-109.44" font-family="Helvetica,sans-Serif" font-size="10.00">data_base64: str</text>
<text xml:space="preserve" text-anchor="start" x="3208.75" y="-97.44" font-family="Helvetica,sans-Serif" font-size="10.00">intrinsic_width_px: int | NoneType</text>
<text xml:space="preserve" text-anchor="start" x="3208.75" y="-85.44" font-family="Helvetica,sans-Serif" font-size="10.00">intrinsic_height_px: int | NoneType</text>
<polyline fill="none" stroke="black" points="3366.75,-78.94 3366.75,-146.94"/>
<text xml:space="preserve" text-anchor="middle" x="3393.5" y="-109.44" font-family="Helvetica,sans-Serif" font-size="10.00">Methods</text>
<polyline fill="none" stroke="black" points="3420.25,-78.94 3420.25,-146.94"/>
<text xml:space="preserve" text-anchor="start" x="3428.25" y="-121.44" font-family="Helvetica,sans-Serif" font-size="10.00">from_bytes(data: bytes, mime_type: str, filename: str | None = None, intrinsic_width_px: int | None = None, intrinsic_height_px: int | None = None) &#45;&gt; &#39;ImageAsset&#39;</text>
<text xml:space="preserve" text-anchor="start" x="3428.25" y="-109.44" font-family="Helvetica,sans-Serif" font-size="10.00">bytes_data() &#45;&gt; bytes</text>
<text xml:space="preserve" text-anchor="start" x="3428.25" y="-97.44" font-family="Helvetica,sans-Serif" font-size="10.00">as_data_url() &#45;&gt; str</text>
</g>
<!-- document_processor.models.ImageIR -->
<g id="node3" class="node">
<title>document_processor.models.ImageIR</title>
<polygon fill="none" stroke="black" points="4321.5,-153.94 4321.5,-245.94 4586.25,-245.94 4586.25,-153.94 4321.5,-153.94"/>
<text xml:space="preserve" text-anchor="middle" x="4348.25" y="-196.44" font-family="Helvetica,sans-Serif" font-size="10.00">ImageIR</text>
<polyline fill="none" stroke="black" points="4375,-153.94 4375,-245.94"/>
<text xml:space="preserve" text-anchor="middle" x="4396.12" y="-196.44" font-family="Helvetica,sans-Serif" font-size="10.00">Fields</text>
<polyline fill="none" stroke="black" points="4417.25,-153.94 4417.25,-245.94"/>
<text xml:space="preserve" text-anchor="start" x="4425.25" y="-232.44" font-family="Helvetica,sans-Serif" font-size="10.00">meta: T | NoneType</text>
<text xml:space="preserve" text-anchor="start" x="4425.25" y="-220.44" font-family="Helvetica,sans-Serif" font-size="10.00">unit_id: str</text>
<text xml:space="preserve" text-anchor="start" x="4425.25" y="-208.44" font-family="Helvetica,sans-Serif" font-size="10.00">image_id: str</text>
<text xml:space="preserve" text-anchor="start" x="4425.25" y="-196.44" font-family="Helvetica,sans-Serif" font-size="10.00">alt_text: str | NoneType</text>
<text xml:space="preserve" text-anchor="start" x="4425.25" y="-184.44" font-family="Helvetica,sans-Serif" font-size="10.00">title: str | NoneType</text>
<text xml:space="preserve" text-anchor="start" x="4425.25" y="-172.44" font-family="Helvetica,sans-Serif" font-size="10.00">display_width_pt: float | NoneType</text>
<text xml:space="preserve" text-anchor="start" x="4425.25" y="-160.44" font-family="Helvetica,sans-Serif" font-size="10.00">display_height_pt: float | NoneType</text>
</g>
<!-- document_processor.models.ParagraphIR -->
<g id="node4" class="node">
<title>document_processor.models.ParagraphIR</title>
<polygon fill="none" stroke="black" points="3217.62,-165.94 3217.62,-233.94 4019.62,-233.94 4019.62,-165.94 3217.62,-165.94"/>
<text xml:space="preserve" text-anchor="middle" x="3253" y="-196.44" font-family="Helvetica,sans-Serif" font-size="10.00">ParagraphIR</text>
<polyline fill="none" stroke="black" points="3288.38,-165.94 3288.38,-233.94"/>
<text xml:space="preserve" text-anchor="middle" x="3309.5" y="-196.44" font-family="Helvetica,sans-Serif" font-size="10.00">Fields</text>
<polyline fill="none" stroke="black" points="3330.62,-165.94 3330.62,-233.94"/>
<text xml:space="preserve" text-anchor="start" x="3338.62" y="-220.44" font-family="Helvetica,sans-Serif" font-size="10.00">meta: T | NoneType</text>
<text xml:space="preserve" text-anchor="start" x="3338.62" y="-208.44" font-family="Helvetica,sans-Serif" font-size="10.00">unit_id: str</text>
<text xml:space="preserve" text-anchor="start" x="3338.62" y="-196.44" font-family="Helvetica,sans-Serif" font-size="10.00">text: str</text>
<text xml:space="preserve" text-anchor="start" x="3338.62" y="-184.44" font-family="Helvetica,sans-Serif" font-size="10.00">para_style: ParaStyleInfo | NoneType</text>
<text xml:space="preserve" text-anchor="start" x="3338.62" y="-172.44" font-family="Helvetica,sans-Serif" font-size="10.00">content: list[RunIR | ImageIR | TableIR]</text>
<polyline fill="none" stroke="black" points="3519.12,-165.94 3519.12,-233.94"/>
<text xml:space="preserve" text-anchor="middle" x="3549.25" y="-196.44" font-family="Helvetica,sans-Serif" font-size="10.00">Properties</text>
<polyline fill="none" stroke="black" points="3579.38,-165.94 3579.38,-233.94"/>
<text xml:space="preserve" text-anchor="start" x="3587.38" y="-208.44" font-family="Helvetica,sans-Serif" font-size="10.00">@ runs: property</text>
<text xml:space="preserve" text-anchor="start" x="3587.38" y="-196.44" font-family="Helvetica,sans-Serif" font-size="10.00">@ images: property</text>
<text xml:space="preserve" text-anchor="start" x="3587.38" y="-184.44" font-family="Helvetica,sans-Serif" font-size="10.00">@ tables: property</text>
<polyline fill="none" stroke="black" points="3681.62,-165.94 3681.62,-233.94"/>
<text xml:space="preserve" text-anchor="middle" x="3708.38" y="-196.44" font-family="Helvetica,sans-Serif" font-size="10.00">Methods</text>
<polyline fill="none" stroke="black" points="3735.12,-165.94 3735.12,-233.94"/>
<text xml:space="preserve" text-anchor="start" x="3743.12" y="-220.44" font-family="Helvetica,sans-Serif" font-size="10.00">append_content(node: &#39;ParagraphContentNode&#39;) &#45;&gt; None</text>
<text xml:space="preserve" text-anchor="start" x="3743.12" y="-208.44" font-family="Helvetica,sans-Serif" font-size="10.00">extend_content(nodes: list[&#39;ParagraphContentNode&#39;]) &#45;&gt; None</text>
<text xml:space="preserve" text-anchor="start" x="3743.12" y="-196.44" font-family="Helvetica,sans-Serif" font-size="10.00">sort_content(key) &#45;&gt; None</text>
<text xml:space="preserve" text-anchor="start" x="3743.12" y="-184.44" font-family="Helvetica,sans-Serif" font-size="10.00">iter_all_runs(include_table_runs: bool = True)</text>
<text xml:space="preserve" text-anchor="start" x="3743.12" y="-172.44" font-family="Helvetica,sans-Serif" font-size="10.00">recompute_text() &#45;&gt; None</text>
</g>
<!-- document_processor.models.ParagraphIR&#45;&gt;document_processor.models.RunIR -->
<g id="edge3" class="edge">
<title>document_processor.models.ParagraphIR&#45;&gt;document_processor.models.RunIR</title>
<path fill="none" stroke="black" d="M4020.07,-231.19C4066.25,-247.48 4110.04,-270.02 4147.25,-300.94 4164.13,-314.97 4149.55,-331.6 4165.25,-346.94 4186.57,-367.78 4199.42,-362.38 4228.25,-369.94 4255.5,-377.09 4284.99,-383.13 4313.37,-388.12"/>
<polygon fill="black" stroke="black" points="4312.66,-391.55 4323.11,-389.8 4313.84,-384.65 4312.66,-391.55"/>
</g>
<!-- document_processor.models.ParagraphIR&#45;&gt;document_processor.models.ImageIR -->
<g id="edge4" class="edge">
<title>document_processor.models.ParagraphIR&#45;&gt;document_processor.models.ImageIR</title>
<path fill="none" stroke="black" d="M4020.08,-199.94C4124.06,-199.94 4229.38,-199.94 4310.09,-199.94"/>
<polygon fill="black" stroke="black" points="4309.79,-203.44 4319.79,-199.94 4309.79,-196.44 4309.79,-203.44"/>
</g>
<!-- document_processor.models.TableIR -->
<g id="node6" class="node">
<title>document_processor.models.TableIR</title>
<polygon fill="none" stroke="black" points="4228.25,-54.94 4228.25,-134.94 4679.5,-134.94 4679.5,-54.94 4228.25,-54.94"/>
<text xml:space="preserve" text-anchor="middle" x="4253.12" y="-91.44" font-family="Helvetica,sans-Serif" font-size="10.00">TableIR</text>
<polyline fill="none" stroke="black" points="4278,-54.94 4278,-134.94"/>
<text xml:space="preserve" text-anchor="middle" x="4299.12" y="-91.44" font-family="Helvetica,sans-Serif" font-size="10.00">Fields</text>
<polyline fill="none" stroke="black" points="4320.25,-54.94 4320.25,-134.94"/>
<text xml:space="preserve" text-anchor="start" x="4328.25" y="-121.44" font-family="Helvetica,sans-Serif" font-size="10.00">meta: T | NoneType</text>
<text xml:space="preserve" text-anchor="start" x="4328.25" y="-109.44" font-family="Helvetica,sans-Serif" font-size="10.00">unit_id: str</text>
<text xml:space="preserve" text-anchor="start" x="4328.25" y="-97.44" font-family="Helvetica,sans-Serif" font-size="10.00">row_count: int</text>
<text xml:space="preserve" text-anchor="start" x="4328.25" y="-85.44" font-family="Helvetica,sans-Serif" font-size="10.00">col_count: int</text>
<text xml:space="preserve" text-anchor="start" x="4328.25" y="-73.44" font-family="Helvetica,sans-Serif" font-size="10.00">table_style: TableStyleInfo | NoneType</text>
<text xml:space="preserve" text-anchor="start" x="4328.25" y="-61.44" font-family="Helvetica,sans-Serif" font-size="10.00">cells: list[TableCellIR]</text>
<polyline fill="none" stroke="black" points="4503.5,-54.94 4503.5,-134.94"/>
<text xml:space="preserve" text-anchor="middle" x="4533.62" y="-91.44" font-family="Helvetica,sans-Serif" font-size="10.00">Properties</text>
<polyline fill="none" stroke="black" points="4563.75,-54.94 4563.75,-134.94"/>
<text xml:space="preserve" text-anchor="start" x="4571.75" y="-91.44" font-family="Helvetica,sans-Serif" font-size="10.00">@ markdown: property</text>
</g>
<!-- document_processor.models.ParagraphIR&#45;&gt;document_processor.models.TableIR -->
<g id="edge5" class="edge">
<title>document_processor.models.ParagraphIR&#45;&gt;document_processor.models.TableIR</title>
<path fill="none" stroke="black" d="M4019.88,-171.39C4062.95,-166.88 4106.06,-161.75 4147.25,-155.94 4182.69,-150.94 4220.23,-144.45 4256.41,-137.58"/>
<polygon fill="black" stroke="black" points="4256.94,-141.04 4266.1,-135.72 4255.62,-134.17 4256.94,-141.04"/>
</g>
<!-- document_processor.style_types.ParaStyleInfo -->
<g id="node9" class="node">
<title>document_processor.style_types.ParaStyleInfo</title>
<polygon fill="none" stroke="black" points="4801.5,-235.94 4801.5,-303.94 5094,-303.94 5094,-235.94 4801.5,-235.94"/>
<text xml:space="preserve" text-anchor="middle" x="4839.12" y="-266.44" font-family="Helvetica,sans-Serif" font-size="10.00">ParaStyleInfo</text>
<polyline fill="none" stroke="black" points="4876.75,-235.94 4876.75,-303.94"/>
<text xml:space="preserve" text-anchor="middle" x="4897.88" y="-266.44" font-family="Helvetica,sans-Serif" font-size="10.00">Fields</text>
<polyline fill="none" stroke="black" points="4919,-235.94 4919,-303.94"/>
<text xml:space="preserve" text-anchor="start" x="4927" y="-290.44" font-family="Helvetica,sans-Serif" font-size="10.00">align: str | NoneType</text>
<text xml:space="preserve" text-anchor="start" x="4927" y="-278.44" font-family="Helvetica,sans-Serif" font-size="10.00">left_indent_pt: float | NoneType</text>
<text xml:space="preserve" text-anchor="start" x="4927" y="-266.44" font-family="Helvetica,sans-Serif" font-size="10.00">right_indent_pt: float | NoneType</text>
<text xml:space="preserve" text-anchor="start" x="4927" y="-254.44" font-family="Helvetica,sans-Serif" font-size="10.00">first_line_indent_pt: float | NoneType</text>
<text xml:space="preserve" text-anchor="start" x="4927" y="-242.44" font-family="Helvetica,sans-Serif" font-size="10.00">hanging_indent_pt: float | NoneType</text>
</g>
<!-- document_processor.models.ParagraphIR&#45;&gt;document_processor.style_types.ParaStyleInfo -->
<g id="edge9" class="edge">
<title>document_processor.models.ParagraphIR&#45;&gt;document_processor.style_types.ParaStyleInfo</title>
<path fill="none" stroke="black" d="M3946.62,-234.41C4037.69,-242.81 4136.74,-250.85 4228.25,-255.94 4421.44,-266.7 4644.25,-269.56 4789.89,-270.14"/>
<polygon fill="black" stroke="black" points="4789.58,-273.64 4799.6,-270.18 4789.61,-266.64 4789.58,-273.64"/>
</g>
<!-- document_processor.models.TableCellIR -->
<g id="node5" class="node">
<title>document_processor.models.TableCellIR</title>
<polygon fill="none" stroke="black" points="4716.5,-48.94 4716.5,-140.94 5179,-140.94 5179,-48.94 4716.5,-48.94"/>
<text xml:space="preserve" text-anchor="middle" x="4750" y="-91.44" font-family="Helvetica,sans-Serif" font-size="10.00">TableCellIR</text>
<polyline fill="none" stroke="black" points="4783.5,-48.94 4783.5,-140.94"/>
<text xml:space="preserve" text-anchor="middle" x="4804.62" y="-91.44" font-family="Helvetica,sans-Serif" font-size="10.00">Fields</text>
<polyline fill="none" stroke="black" points="4825.75,-48.94 4825.75,-140.94"/>
<text xml:space="preserve" text-anchor="start" x="4833.75" y="-127.44" font-family="Helvetica,sans-Serif" font-size="10.00">meta: T | NoneType</text>
<text xml:space="preserve" text-anchor="start" x="4833.75" y="-115.44" font-family="Helvetica,sans-Serif" font-size="10.00">unit_id: str</text>
<text xml:space="preserve" text-anchor="start" x="4833.75" y="-103.44" font-family="Helvetica,sans-Serif" font-size="10.00">row_index: int</text>
<text xml:space="preserve" text-anchor="start" x="4833.75" y="-91.44" font-family="Helvetica,sans-Serif" font-size="10.00">col_index: int</text>
<text xml:space="preserve" text-anchor="start" x="4833.75" y="-79.44" font-family="Helvetica,sans-Serif" font-size="10.00">text: str</text>
<text xml:space="preserve" text-anchor="start" x="4833.75" y="-67.44" font-family="Helvetica,sans-Serif" font-size="10.00">cell_style: CellStyleInfo | NoneType</text>
<text xml:space="preserve" text-anchor="start" x="4833.75" y="-55.44" font-family="Helvetica,sans-Serif" font-size="10.00">paragraphs: list[ParagraphIR]</text>
<polyline fill="none" stroke="black" points="4997.75,-48.94 4997.75,-140.94"/>
<text xml:space="preserve" text-anchor="middle" x="5024.5" y="-91.44" font-family="Helvetica,sans-Serif" font-size="10.00">Methods</text>
<polyline fill="none" stroke="black" points="5051.25,-48.94 5051.25,-140.94"/>
<text xml:space="preserve" text-anchor="start" x="5059.25" y="-91.44" font-family="Helvetica,sans-Serif" font-size="10.00">recompute_text() &#45;&gt; None</text>
</g>
<!-- document_processor.models.TableCellIR&#45;&gt;document_processor.models.ParagraphIR -->
<g id="edge7" class="edge">
<title>document_processor.models.TableCellIR&#45;&gt;document_processor.models.ParagraphIR</title>
<path fill="none" stroke="black" d="M4716.08,-49.03C4703.73,-47.44 4691.49,-46.05 4679.5,-44.94 4479.8,-26.42 4407.04,45.92 4228.25,-44.94 4173.81,-72.61 4200.5,-126.03 4147.25,-155.94 4111.29,-176.14 4071.74,-190.61 4030.94,-200.74"/>
<polygon fill="black" stroke="black" points="4030.36,-197.28 4021.45,-203 4031.99,-204.09 4030.36,-197.28"/>
</g>
<!-- document_processor.style_types.CellStyleInfo -->
<g id="node10" class="node">
<title>document_processor.style_types.CellStyleInfo</title>
<polygon fill="none" stroke="black" points="5216,-199.94 5216,-363.94 5483.75,-363.94 5483.75,-199.94 5216,-199.94"/>
<text xml:space="preserve" text-anchor="middle" x="5252.12" y="-278.44" font-family="Helvetica,sans-Serif" font-size="10.00">CellStyleInfo</text>
<polyline fill="none" stroke="black" points="5288.25,-199.94 5288.25,-363.94"/>
<text xml:space="preserve" text-anchor="middle" x="5309.38" y="-278.44" font-family="Helvetica,sans-Serif" font-size="10.00">Fields</text>
<polyline fill="none" stroke="black" points="5330.5,-199.94 5330.5,-363.94"/>
<text xml:space="preserve" text-anchor="start" x="5338.5" y="-350.44" font-family="Helvetica,sans-Serif" font-size="10.00">background: str | NoneType</text>
<text xml:space="preserve" text-anchor="start" x="5338.5" y="-338.44" font-family="Helvetica,sans-Serif" font-size="10.00">vertical_align: str | NoneType</text>
<text xml:space="preserve" text-anchor="start" x="5338.5" y="-326.44" font-family="Helvetica,sans-Serif" font-size="10.00">horizontal_align: str | NoneType</text>
<text xml:space="preserve" text-anchor="start" x="5338.5" y="-314.44" font-family="Helvetica,sans-Serif" font-size="10.00">width_pt: float | NoneType</text>
<text xml:space="preserve" text-anchor="start" x="5338.5" y="-302.44" font-family="Helvetica,sans-Serif" font-size="10.00">height_pt: float | NoneType</text>
<text xml:space="preserve" text-anchor="start" x="5338.5" y="-290.44" font-family="Helvetica,sans-Serif" font-size="10.00">border_top: str | NoneType</text>
<text xml:space="preserve" text-anchor="start" x="5338.5" y="-278.44" font-family="Helvetica,sans-Serif" font-size="10.00">border_bottom: str | NoneType</text>
<text xml:space="preserve" text-anchor="start" x="5338.5" y="-266.44" font-family="Helvetica,sans-Serif" font-size="10.00">border_left: str | NoneType</text>
<text xml:space="preserve" text-anchor="start" x="5338.5" y="-254.44" font-family="Helvetica,sans-Serif" font-size="10.00">border_right: str | NoneType</text>
<text xml:space="preserve" text-anchor="start" x="5338.5" y="-242.44" font-family="Helvetica,sans-Serif" font-size="10.00">diagonal_tl_br: str | NoneType</text>
<text xml:space="preserve" text-anchor="start" x="5338.5" y="-230.44" font-family="Helvetica,sans-Serif" font-size="10.00">diagonal_tr_bl: str | NoneType</text>
<text xml:space="preserve" text-anchor="start" x="5338.5" y="-218.44" font-family="Helvetica,sans-Serif" font-size="10.00">rowspan: int</text>
<text xml:space="preserve" text-anchor="start" x="5338.5" y="-206.44" font-family="Helvetica,sans-Serif" font-size="10.00">colspan: int</text>
</g>
<!-- document_processor.models.TableCellIR&#45;&gt;document_processor.style_types.CellStyleInfo -->
<g id="edge10" class="edge">
<title>document_processor.models.TableCellIR&#45;&gt;document_processor.style_types.CellStyleInfo</title>
<path fill="none" stroke="black" d="M5157.27,-141.36C5164.69,-144.37 5171.95,-147.56 5179,-150.94 5202.5,-162.23 5225.85,-177.14 5247.37,-192.84"/>
<polygon fill="black" stroke="black" points="5245.15,-195.55 5255.27,-198.71 5249.33,-189.94 5245.15,-195.55"/>
</g>
<!-- document_processor.models.TableIR&#45;&gt;document_processor.models.TableCellIR -->
<g id="edge6" class="edge">
<title>document_processor.models.TableIR&#45;&gt;document_processor.models.TableCellIR</title>
<path fill="none" stroke="black" d="M4679.94,-94.94C4688.2,-94.94 4696.49,-94.94 4704.78,-94.94"/>
<polygon fill="black" stroke="black" points="4704.56,-98.44 4714.56,-94.94 4704.56,-91.44 4704.56,-98.44"/>
</g>
<!-- document_processor.style_types.TableStyleInfo -->
<g id="node11" class="node">
<title>document_processor.style_types.TableStyleInfo</title>
<polygon fill="none" stroke="black" points="4821,-160.94 4821,-216.94 5074.5,-216.94 5074.5,-160.94 4821,-160.94"/>
<text xml:space="preserve" text-anchor="middle" x="4860.12" y="-185.44" font-family="Helvetica,sans-Serif" font-size="10.00">TableStyleInfo</text>
<polyline fill="none" stroke="black" points="4899.25,-160.94 4899.25,-216.94"/>
<text xml:space="preserve" text-anchor="middle" x="4920.38" y="-185.44" font-family="Helvetica,sans-Serif" font-size="10.00">Fields</text>
<polyline fill="none" stroke="black" points="4941.5,-160.94 4941.5,-216.94"/>
<text xml:space="preserve" text-anchor="start" x="4949.5" y="-203.44" font-family="Helvetica,sans-Serif" font-size="10.00">row_count: int</text>
<text xml:space="preserve" text-anchor="start" x="4949.5" y="-191.44" font-family="Helvetica,sans-Serif" font-size="10.00">col_count: int</text>
<text xml:space="preserve" text-anchor="start" x="4949.5" y="-179.44" font-family="Helvetica,sans-Serif" font-size="10.00">width_pt: float | NoneType</text>
<text xml:space="preserve" text-anchor="start" x="4949.5" y="-167.44" font-family="Helvetica,sans-Serif" font-size="10.00">height_pt: float | NoneType</text>
</g>
<!-- document_processor.models.TableIR&#45;&gt;document_processor.style_types.TableStyleInfo -->
<g id="edge11" class="edge">
<title>document_processor.models.TableIR&#45;&gt;document_processor.style_types.TableStyleInfo</title>
<path fill="none" stroke="black" d="M4642.97,-135.41C4667.67,-140.45 4692.67,-145.42 4716.5,-149.94 4746.48,-155.63 4778.73,-161.34 4809.32,-166.58"/>
<polygon fill="black" stroke="black" points="4808.58,-170 4819.02,-168.23 4809.75,-163.1 4808.58,-170"/>
</g>
<!-- document_processor.models.DocIR -->
<g id="node7" class="node">
<title>document_processor.models.DocIR</title>
<polygon fill="none" stroke="black" points="1724.25,-78.94 1724.25,-170.94 3053,-170.94 3053,-78.94 1724.25,-78.94"/>
<text xml:space="preserve" text-anchor="middle" x="1746.5" y="-121.44" font-family="Helvetica,sans-Serif" font-size="10.00">DocIR</text>
<polyline fill="none" stroke="black" points="1768.75,-78.94 1768.75,-170.94"/>
<text xml:space="preserve" text-anchor="middle" x="1789.88" y="-121.44" font-family="Helvetica,sans-Serif" font-size="10.00">Fields</text>
<polyline fill="none" stroke="black" points="1811,-78.94 1811,-170.94"/>
<text xml:space="preserve" text-anchor="start" x="1819" y="-157.44" font-family="Helvetica,sans-Serif" font-size="10.00">meta: T | NoneType</text>
<text xml:space="preserve" text-anchor="start" x="1819" y="-145.44" font-family="Helvetica,sans-Serif" font-size="10.00">doc_id: str | NoneType</text>
<text xml:space="preserve" text-anchor="start" x="1819" y="-133.44" font-family="Helvetica,sans-Serif" font-size="10.00">source_path: str | NoneType</text>
<text xml:space="preserve" text-anchor="start" x="1819" y="-121.44" font-family="Helvetica,sans-Serif" font-size="10.00">source_doc_type: str | NoneType</text>
<text xml:space="preserve" text-anchor="start" x="1819" y="-109.44" font-family="Helvetica,sans-Serif" font-size="10.00">metadata: dict[str, Any]</text>
<text xml:space="preserve" text-anchor="start" x="1819" y="-97.44" font-family="Helvetica,sans-Serif" font-size="10.00">assets: dict[str, ImageAsset]</text>
<text xml:space="preserve" text-anchor="start" x="1819" y="-85.44" font-family="Helvetica,sans-Serif" font-size="10.00">paragraphs: list[ParagraphIR]</text>
<polyline fill="none" stroke="black" points="1971,-78.94 1971,-170.94"/>
<text xml:space="preserve" text-anchor="middle" x="1997.75" y="-121.44" font-family="Helvetica,sans-Serif" font-size="10.00">Methods</text>
<polyline fill="none" stroke="black" points="2024.5,-78.94 2024.5,-170.94"/>
<text xml:space="preserve" text-anchor="start" x="2032.5" y="-133.44" font-family="Helvetica,sans-Serif" font-size="10.00">from_file(source: str | Path | bytes | BinaryIO, doc_type: str = &#39;auto&#39;, include_tables: bool = True, skip_empty: bool = False, metadata: dict[str, Any] | None = None, doc_id: str | None = None, **doc_kwargs: Any) &#45;&gt; &#39;DocIR&#39;</text>
<text xml:space="preserve" text-anchor="start" x="2032.5" y="-121.44" font-family="Helvetica,sans-Serif" font-size="10.00">from_mapping(mapping: dict[str, str], style_map = None, source_path: str | Path | None = None, source_doc_type: str | None = None, metadata: dict[str, Any] | None = None, doc_id: str | None = None, **doc_kwargs: Any) &#45;&gt; &#39;DocIR&#39;</text>
<text xml:space="preserve" text-anchor="start" x="2032.5" y="-109.44" font-family="Helvetica,sans-Serif" font-size="10.00">to_html(title: str | None = None) &#45;&gt; str</text>
</g>
<!-- document_processor.models.DocIR&#45;&gt;document_processor.models.ImageAsset -->
<g id="edge2" class="edge">
<title>document_processor.models.DocIR&#45;&gt;document_processor.models.ImageAsset</title>
<path fill="none" stroke="black" d="M3053.49,-118.45C3061.85,-118.37 3070.2,-118.29 3078.52,-118.21"/>
<polygon fill="black" stroke="black" points="3078.39,-121.71 3088.35,-118.11 3078.32,-114.71 3078.39,-121.71"/>
</g>
<!-- document_processor.models.DocIR&#45;&gt;document_processor.models.ParagraphIR -->
<g id="edge1" class="edge">
<title>document_processor.models.DocIR&#45;&gt;document_processor.models.ParagraphIR</title>
<path fill="none" stroke="black" d="M3053.49,-165.49C3105.41,-168.66 3156.84,-171.8 3206.3,-174.82"/>
<polygon fill="black" stroke="black" points="3205.78,-178.29 3215.97,-175.41 3206.2,-171.31 3205.78,-178.29"/>
</g>
<!-- document_processor.style_types.StyleMap -->
<g id="node12" class="node">
<title>document_processor.style_types.StyleMap</title>
<polygon fill="none" stroke="black" points="4320,-303.94 4320,-359.94 4587.75,-359.94 4587.75,-303.94 4320,-303.94"/>
<text xml:space="preserve" text-anchor="middle" x="4348.62" y="-328.44" font-family="Helvetica,sans-Serif" font-size="10.00">StyleMap</text>
<polyline fill="none" stroke="black" points="4377.25,-303.94 4377.25,-359.94"/>
<text xml:space="preserve" text-anchor="middle" x="4398.38" y="-328.44" font-family="Helvetica,sans-Serif" font-size="10.00">Fields</text>
<polyline fill="none" stroke="black" points="4419.5,-303.94 4419.5,-359.94"/>
<text xml:space="preserve" text-anchor="start" x="4427.5" y="-346.44" font-family="Helvetica,sans-Serif" font-size="10.00">runs: dict[str, RunStyleInfo]</text>
<text xml:space="preserve" text-anchor="start" x="4427.5" y="-334.44" font-family="Helvetica,sans-Serif" font-size="10.00">paragraphs: dict[str, ParaStyleInfo]</text>
<text xml:space="preserve" text-anchor="start" x="4427.5" y="-322.44" font-family="Helvetica,sans-Serif" font-size="10.00">cells: dict[str, CellStyleInfo]</text>
<text xml:space="preserve" text-anchor="start" x="4427.5" y="-310.44" font-family="Helvetica,sans-Serif" font-size="10.00">tables: dict[str, TableStyleInfo]</text>
</g>
<!-- document_processor.style_types.StyleMap&#45;&gt;document_processor.style_types.RunStyleInfo -->
<g id="edge12" class="edge">
<title>document_processor.style_types.StyleMap&#45;&gt;document_processor.style_types.RunStyleInfo</title>
<path fill="none" stroke="black" d="M4587.98,-345.2C4658.88,-352.26 4745.74,-360.92 4816.23,-367.94"/>
<polygon fill="black" stroke="black" points="4815.6,-371.39 4825.9,-368.9 4816.29,-364.43 4815.6,-371.39"/>
</g>
<!-- document_processor.style_types.StyleMap&#45;&gt;document_processor.style_types.ParaStyleInfo -->
<g id="edge13" class="edge">
<title>document_processor.style_types.StyleMap&#45;&gt;document_processor.style_types.ParaStyleInfo</title>
<path fill="none" stroke="black" d="M4587.98,-315.16C4650.25,-307.32 4724.83,-297.91 4789.82,-289.72"/>
<polygon fill="black" stroke="black" points="4790.01,-293.23 4799.5,-288.5 4789.14,-286.28 4790.01,-293.23"/>
</g>
<!-- document_processor.style_types.StyleMap&#45;&gt;document_processor.style_types.CellStyleInfo -->
<g id="edge14" class="edge">
<title>document_processor.style_types.StyleMap&#45;&gt;document_processor.style_types.CellStyleInfo</title>
<path fill="none" stroke="black" d="M4588.18,-333.32C4620.57,-339.09 4653.37,-350.07 4679.5,-369.94 4710.36,-393.41 4683.78,-428.14 4716.5,-448.94 4889.96,-559.24 4988.76,-526.79 5179,-448.94 5218.18,-432.91 5253.2,-402.99 5281.11,-372.86"/>
<polygon fill="black" stroke="black" points="5283.66,-375.25 5287.77,-365.49 5278.47,-370.56 5283.66,-375.25"/>
</g>
<!-- document_processor.style_types.StyleMap&#45;&gt;document_processor.style_types.TableStyleInfo -->
<g id="edge15" class="edge">
<title>document_processor.style_types.StyleMap&#45;&gt;document_processor.style_types.TableStyleInfo</title>
<path fill="none" stroke="black" d="M4563.11,-303.48C4601.08,-291.4 4643.28,-275.52 4679.5,-255.94 4697.88,-246.01 4697.37,-235.35 4716.5,-226.94 4745.45,-214.22 4778.15,-205.72 4809.62,-200.05"/>
<polygon fill="black" stroke="black" points="4809.93,-203.55 4819.2,-198.42 4808.75,-196.65 4809.93,-203.55"/>
</g>
<!-- document_processor.core.document_ir_parser -->
<g id="node13" class="node">
<title>document_processor.core.document_ir_parser</title>
<path fill="none" stroke="black" d="M12,-106.94C12,-106.94 1624.5,-106.94 1624.5,-106.94 1630.5,-106.94 1636.5,-112.94 1636.5,-118.94 1636.5,-118.94 1636.5,-130.94 1636.5,-130.94 1636.5,-136.94 1630.5,-142.94 1624.5,-142.94 1624.5,-142.94 12,-142.94 12,-142.94 6,-142.94 0,-136.94 0,-130.94 0,-130.94 0,-118.94 0,-118.94 0,-112.94 6,-106.94 12,-106.94"/>
<text xml:space="preserve" text-anchor="middle" x="50.75" y="-121.44" font-family="Helvetica,sans-Serif" font-size="10.00">document_ir_parser</text>
<polyline fill="none" stroke="black" points="101.5,-106.94 101.5,-142.94"/>
<text xml:space="preserve" text-anchor="middle" x="130.88" y="-121.44" font-family="Helvetica,sans-Serif" font-size="10.00">Functions</text>
<polyline fill="none" stroke="black" points="160.25,-106.94 160.25,-142.94"/>
<text xml:space="preserve" text-anchor="start" x="168.25" y="-121.44" font-family="Helvetica,sans-Serif" font-size="10.00">build_doc_ir_from_file(source: &#39;HwpxDocument | DocxDocument | str | Path | bytes&#39;, doc_type: DocType, include_tables: bool = True, skip_empty: bool = False, source_path: str | Path | None = None, metadata: dict[str, Any] | None = None, doc_id: str | None = None, doc_cls: type[DocIR] | None = None, **doc_kwargs: Any) &#45;&gt; DocIR</text>
</g>
<!-- document_processor.core.document_ir_parser&#45;&gt;document_processor.models.DocIR -->
<g id="edge16" class="edge">
<title>document_processor.core.document_ir_parser&#45;&gt;document_processor.models.DocIR</title>
<path fill="none" stroke="black" stroke-dasharray="5,2" d="M1636.74,-124.94C1662.16,-124.94 1687.54,-124.94 1712.76,-124.94"/>
<polygon fill="black" stroke="black" points="1712.43,-128.44 1722.43,-124.94 1712.43,-121.44 1712.43,-128.44"/>
<text xml:space="preserve" text-anchor="middle" x="1680.38" y="-126.89" font-family="Helvetica,sans-Serif" font-size="9.00">uses models</text>
</g>
<!-- document_processor.core.docx_structured_exporter -->
<g id="node14" class="node">
<title>document_processor.core.docx_structured_exporter</title>
<path fill="none" stroke="black" d="M408.38,-161.94C408.38,-161.94 1228.12,-161.94 1228.12,-161.94 1234.12,-161.94 1240.12,-167.94 1240.12,-173.94 1240.12,-173.94 1240.12,-185.94 1240.12,-185.94 1240.12,-191.94 1234.12,-197.94 1228.12,-197.94 1228.12,-197.94 408.38,-197.94 408.38,-197.94 402.38,-197.94 396.38,-191.94 396.38,-185.94 396.38,-185.94 396.38,-173.94 396.38,-173.94 396.38,-167.94 402.38,-161.94 408.38,-161.94"/>
<text xml:space="preserve" text-anchor="middle" x="459.5" y="-176.44" font-family="Helvetica,sans-Serif" font-size="10.00">docx_structured_exporter</text>
<polyline fill="none" stroke="black" points="522.62,-161.94 522.62,-197.94"/>
<text xml:space="preserve" text-anchor="middle" x="552" y="-176.44" font-family="Helvetica,sans-Serif" font-size="10.00">Functions</text>
<polyline fill="none" stroke="black" points="581.38,-161.94 581.38,-197.94"/>
<text xml:space="preserve" text-anchor="start" x="589.38" y="-182.44" font-family="Helvetica,sans-Serif" font-size="10.00">export_docx_structured_mapping(source: &#39;DocxDocument | str | Path | bytes&#39;, include_tables: bool = True, skip_empty: bool = False) &#45;&gt; dict[str, str]</text>
<text xml:space="preserve" text-anchor="start" x="589.38" y="-170.44" font-family="Helvetica,sans-Serif" font-size="10.00">export_structured_mapping(source: &#39;DocxDocument | str | Path | bytes&#39;, include_tables: bool = True, skip_empty: bool = False) &#45;&gt; dict[str, str]</text>
</g>
<!-- document_processor.core.hwp_converter -->
<g id="node15" class="node">
<title>document_processor.core.hwp_converter</title>
<path fill="none" stroke="black" d="M623.25,-216.94C623.25,-216.94 1013.25,-216.94 1013.25,-216.94 1019.25,-216.94 1025.25,-222.94 1025.25,-228.94 1025.25,-228.94 1025.25,-240.94 1025.25,-240.94 1025.25,-246.94 1019.25,-252.94 1013.25,-252.94 1013.25,-252.94 623.25,-252.94 623.25,-252.94 617.25,-252.94 611.25,-246.94 611.25,-240.94 611.25,-240.94 611.25,-228.94 611.25,-228.94 611.25,-222.94 617.25,-216.94 623.25,-216.94"/>
<text xml:space="preserve" text-anchor="middle" x="651.12" y="-231.44" font-family="Helvetica,sans-Serif" font-size="10.00">hwp_converter</text>
<polyline fill="none" stroke="black" points="691,-216.94 691,-252.94"/>
<text xml:space="preserve" text-anchor="middle" x="720.38" y="-231.44" font-family="Helvetica,sans-Serif" font-size="10.00">Functions</text>
<polyline fill="none" stroke="black" points="749.75,-216.94 749.75,-252.94"/>
<text xml:space="preserve" text-anchor="start" x="757.75" y="-237.44" font-family="Helvetica,sans-Serif" font-size="10.00">convert_hwp_to_hwpx_bytes(hwp_path: str | Path) &#45;&gt; bytes</text>
<text xml:space="preserve" text-anchor="start" x="757.75" y="-225.44" font-family="Helvetica,sans-Serif" font-size="10.00">patch_hwpx_container(hwpx_path: str | Path) &#45;&gt; None</text>
</g>
<!-- document_processor.core.hwpx_structured_exporter -->
<g id="node16" class="node">
<title>document_processor.core.hwpx_structured_exporter</title>
<path fill="none" stroke="black" d="M466.5,-271.94C466.5,-271.94 1170,-271.94 1170,-271.94 1176,-271.94 1182,-277.94 1182,-283.94 1182,-283.94 1182,-295.94 1182,-295.94 1182,-301.94 1176,-307.94 1170,-307.94 1170,-307.94 466.5,-307.94 466.5,-307.94 460.5,-307.94 454.5,-301.94 454.5,-295.94 454.5,-295.94 454.5,-283.94 454.5,-283.94 454.5,-277.94 460.5,-271.94 466.5,-271.94"/>
<text xml:space="preserve" text-anchor="middle" x="518.75" y="-286.44" font-family="Helvetica,sans-Serif" font-size="10.00">hwpx_structured_exporter</text>
<polyline fill="none" stroke="black" points="583,-271.94 583,-307.94"/>
<text xml:space="preserve" text-anchor="middle" x="612.38" y="-286.44" font-family="Helvetica,sans-Serif" font-size="10.00">Functions</text>
<polyline fill="none" stroke="black" points="641.75,-271.94 641.75,-307.94"/>
<text xml:space="preserve" text-anchor="start" x="649.75" y="-292.44" font-family="Helvetica,sans-Serif" font-size="10.00">export_hwpx_structured_mapping(source: &#39;HwpxDocument | str | Path | bytes&#39;, skip_empty: bool = False) &#45;&gt; dict[str, str]</text>
<text xml:space="preserve" text-anchor="start" x="649.75" y="-280.44" font-family="Helvetica,sans-Serif" font-size="10.00">export_structured_mapping(source: &#39;HwpxDocument | str | Path | bytes&#39;, skip_empty: bool = False) &#45;&gt; dict[str, str]</text>
</g>
<!-- document_processor.core.structured_mapping_exporter -->
<g id="node17" class="node">
<title>document_processor.core.structured_mapping_exporter</title>
<path fill="none" stroke="black" d="M311.25,-326.94C311.25,-326.94 1325.25,-326.94 1325.25,-326.94 1331.25,-326.94 1337.25,-332.94 1337.25,-338.94 1337.25,-338.94 1337.25,-350.94 1337.25,-350.94 1337.25,-356.94 1331.25,-362.94 1325.25,-362.94 1325.25,-362.94 311.25,-362.94 311.25,-362.94 305.25,-362.94 299.25,-356.94 299.25,-350.94 299.25,-350.94 299.25,-338.94 299.25,-338.94 299.25,-332.94 305.25,-326.94 311.25,-326.94"/>
<text xml:space="preserve" text-anchor="middle" x="370.25" y="-341.44" font-family="Helvetica,sans-Serif" font-size="10.00">structured_mapping_exporter</text>
<polyline fill="none" stroke="black" points="441.25,-326.94 441.25,-362.94"/>
<text xml:space="preserve" text-anchor="middle" x="470.62" y="-341.44" font-family="Helvetica,sans-Serif" font-size="10.00">Functions</text>
<polyline fill="none" stroke="black" points="500,-326.94 500,-362.94"/>
<text xml:space="preserve" text-anchor="start" x="508" y="-341.44" font-family="Helvetica,sans-Serif" font-size="10.00">export_structured_mapping(source: &#39;HwpxDocument | DocxDocument | str | Path | bytes&#39;, doc_type: DocType = &#39;auto&#39;, skip_empty: bool = False, include_tables: bool = True) &#45;&gt; dict[str, str]</text>
</g>
<!-- document_processor.core.style_extractor -->
<g id="node18" class="node">
<title>document_processor.core.style_extractor</title>
<path fill="none" stroke="black" d="M3233.12,-309.94C3233.12,-309.94 4004.12,-309.94 4004.12,-309.94 4010.12,-309.94 4016.12,-315.94 4016.12,-321.94 4016.12,-321.94 4016.12,-341.94 4016.12,-341.94 4016.12,-347.94 4010.12,-353.94 4004.12,-353.94 4004.12,-353.94 3233.12,-353.94 3233.12,-353.94 3227.12,-353.94 3221.12,-347.94 3221.12,-341.94 3221.12,-341.94 3221.12,-321.94 3221.12,-321.94 3221.12,-315.94 3227.12,-309.94 3233.12,-309.94"/>
<text xml:space="preserve" text-anchor="middle" x="3261.38" y="-328.44" font-family="Helvetica,sans-Serif" font-size="10.00">style_extractor</text>
<polyline fill="none" stroke="black" points="3301.62,-309.94 3301.62,-353.94"/>
<text xml:space="preserve" text-anchor="middle" x="3331" y="-328.44" font-family="Helvetica,sans-Serif" font-size="10.00">Functions</text>
<polyline fill="none" stroke="black" points="3360.38,-309.94 3360.38,-353.94"/>
<text xml:space="preserve" text-anchor="start" x="3368.38" y="-340.44" font-family="Helvetica,sans-Serif" font-size="10.00">extract_styles(source: &#39;HwpxDocument | DocxDocument | str | Path | bytes&#39;, doc_type: DocType = &#39;auto&#39;, include_tables: bool = True) &#45;&gt; StyleMap</text>
<text xml:space="preserve" text-anchor="start" x="3368.38" y="-328.44" font-family="Helvetica,sans-Serif" font-size="10.00">extract_styles_docx(source: &#39;DocxDocument | str | Path | bytes&#39;, include_tables: bool = True) &#45;&gt; StyleMap</text>
<text xml:space="preserve" text-anchor="start" x="3368.38" y="-316.44" font-family="Helvetica,sans-Serif" font-size="10.00">extract_styles_hwpx(source: &#39;HwpxDocument | str | Path | bytes&#39;) &#45;&gt; StyleMap</text>
</g>
<!-- document_processor.core.style_extractor&#45;&gt;document_processor.style_types.StyleMap -->
<g id="edge17" class="edge">
<title>document_processor.core.style_extractor&#45;&gt;document_processor.style_types.StyleMap</title>
<path fill="none" stroke="black" stroke-dasharray="5,2" d="M4016.42,-331.94C4120.96,-331.94 4227.16,-331.94 4308.63,-331.94"/>
<polygon fill="black" stroke="black" points="4308.44,-335.44 4318.44,-331.94 4308.44,-328.44 4308.44,-335.44"/>
<text xml:space="preserve" text-anchor="middle" x="4187.75" y="-333.89" font-family="Helvetica,sans-Serif" font-size="9.00">uses styles</text>
</g>
</g>
</svg>
