<?xml version="1.0" encoding="UTF-8" standalone="no"?>
<!DOCTYPE svg PUBLIC "-//W3C//DTD SVG 1.1//EN"
 "http://www.w3.org/Graphics/SVG/1.1/DTD/svg11.dtd">
<!-- Generated by graphviz version 14.1.5 (20260411.2331)
 -->
<!-- Title: Entity Relationship Diagram created by erdantic Pages: 1 -->
<svg width="936pt" height="482pt"
 viewBox="0.00 0.00 936.00 482.00" xmlns="http://www.w3.org/2000/svg" xmlns:xlink="http://www.w3.org/1999/xlink">
<g id="graph0" class="graph" transform="scale(1 1) rotate(0) translate(4 477.5)">
<title>Entity Relationship Diagram created by erdantic</title>
<polygon fill="white" stroke="none" points="-4,4 -4,-477.5 931.75,-477.5 931.75,4 -4,4"/>
<text xml:space="preserve" text-anchor="middle" x="463.88" y="-5.95" font-family="Times New Roman,Times,Liberation Serif,serif" font-size="9.00" fill="#a8a8a8">Created by erdantic v1.2.1 &lt;https://github.com/drivendataorg/erdantic&gt;</text>
<!-- document_processor.models.BoundingBox -->
<g id="node1" class="node">
<title>document_processor.models.BoundingBox</title>
<g id="a_node1"><a xlink:title="document_processor.models.BoundingBox&#10;&#10;Generic layout bounding box in page coordinates.&#10;">
<polygon fill="none" stroke="black" points="834.75,-171 834.75,-193.5 927.75,-193.5 927.75,-171 834.75,-171"/>
<text xml:space="preserve" text-anchor="start" x="841.88" y="-178.2" font-family="Times New Roman,Times,Liberation Serif,serif" font-weight="bold" font-size="14.00">BoundingBox</text>
<polygon fill="none" stroke="black" points="834.75,-148.5 834.75,-171 897,-171 897,-148.5 834.75,-148.5"/>
<text xml:space="preserve" text-anchor="start" x="848.25" y="-155.25" font-family="Times New Roman,Times,Liberation Serif,serif" font-size="14.00">left_pt</text>
<polygon fill="none" stroke="black" points="897,-148.5 897,-171 927.75,-171 927.75,-148.5 897,-148.5"/>
<text xml:space="preserve" text-anchor="start" x="900" y="-155.25" font-family="Times New Roman,Times,Liberation Serif,serif" font-size="14.00">float</text>
<polygon fill="none" stroke="black" points="834.75,-126 834.75,-148.5 897,-148.5 897,-126 834.75,-126"/>
<text xml:space="preserve" text-anchor="start" x="837.75" y="-132.75" font-family="Times New Roman,Times,Liberation Serif,serif" font-size="14.00">bottom_pt</text>
<polygon fill="none" stroke="black" points="897,-126 897,-148.5 927.75,-148.5 927.75,-126 897,-126"/>
<text xml:space="preserve" text-anchor="start" x="900" y="-132.75" font-family="Times New Roman,Times,Liberation Serif,serif" font-size="14.00">float</text>
<polygon fill="none" stroke="black" points="834.75,-103.5 834.75,-126 897,-126 897,-103.5 834.75,-103.5"/>
<text xml:space="preserve" text-anchor="start" x="844.5" y="-110.25" font-family="Times New Roman,Times,Liberation Serif,serif" font-size="14.00">right_pt</text>
<polygon fill="none" stroke="black" points="897,-103.5 897,-126 927.75,-126 927.75,-103.5 897,-103.5"/>
<text xml:space="preserve" text-anchor="start" x="900" y="-110.25" font-family="Times New Roman,Times,Liberation Serif,serif" font-size="14.00">float</text>
<polygon fill="none" stroke="black" points="834.75,-81 834.75,-103.5 897,-103.5 897,-81 834.75,-81"/>
<text xml:space="preserve" text-anchor="start" x="848.62" y="-87.75" font-family="Times New Roman,Times,Liberation Serif,serif" font-size="14.00">top_pt</text>
<polygon fill="none" stroke="black" points="897,-81 897,-103.5 927.75,-103.5 927.75,-81 897,-81"/>
<text xml:space="preserve" text-anchor="start" x="900" y="-87.75" font-family="Times New Roman,Times,Liberation Serif,serif" font-size="14.00">float</text>
</a>
</g>
</g>
<!-- document_processor.pdf.preview.models.PdfLayoutRegion -->
<g id="node2" class="node">
<title>document_processor.pdf.preview.models.PdfLayoutRegion</title>
<g id="a_node2"><a xlink:title="document_processor.pdf.preview.models.PdfLayoutRegion&#10;&#10;!!! abstract &quot;Usage Documentation&quot;&#10; &#160;&#160;&#160;[Models](../concepts/models.md)&#10;&#10;A base class for creating Pydantic models.&#10;&#10;Attributes:&#10; &#160;&#160;&#160;__class_vars__: The names of the class variables defined on the model.&#10; &#160;&#160;&#160;__private_attributes__: Metadata about the private attributes of the model.&#10; &#160;&#160;&#160;__signature__: The synthesized `__init__` [`Signature`][inspect.Signature] of the model.&#10;&#10; &#160;&#160;&#160;__pydantic_complete__: Whether model building is completed, or if there are still undefined fields.&#10; &#160;&#160;&#160;__pydantic_core_schema__: The core schema of the model.&#10; &#160;&#160;&#160;__pydantic_custom_init__: Whether the model has a custom `__init__` function.&#10; &#160;&#160;&#160;__pydantic_decorators__: Metadata containing the decorators defined on the model.&#10; &#160;&#160;&#160;&#160;&#160;&#160;&#160;This replaces `Model.__validators__` and `Model.__root_validators__` from Pydantic V1.&#10; &#160;&#160;&#160;__pydantic_generic_metadata__: Metadata for generic models; contains data used for a similar purpose to&#10; &#160;&#160;&#160;&#160;&#160;&#160;&#160;__args__, __origin__, __parameters__ in typing&#45;module generics. May eventually be replaced by these.&#10; &#160;&#160;&#160;__pydantic_parent_namespace__: Parent namespace of the model, used for automatic rebuilding of models.&#10; &#160;&#160;&#160;__pydantic_post_init__: The name of the post&#45;init method for the model, if defined.&#10; &#160;&#160;&#160;__pydantic_root_model__: Whether the model is a [`RootModel`][pydantic.root_model.RootModel].&#10; &#160;&#160;&#160;__pydantic_serializer__: The `pydantic&#45;core` `SchemaSerializer` used to dump instances of the model.&#10; &#160;&#160;&#160;__pydantic_validator__: The `pydantic&#45;core` `SchemaValidator` used to validate instances of the model.&#10;&#10; &#160;&#160;&#160;__pydantic_fields__: A dictionary of field names and their corresponding [`FieldInfo`][pydantic.fields.FieldInfo] objects.&#10; &#160;&#160;&#160;__pydantic_computed_fields__: A dictionary of computed field names and their corresponding [`ComputedFieldInfo`][pydantic.fields.ComputedFieldInfo] objects.&#10;&#10; &#160;&#160;&#160;__pydantic_extra__: A dictionary containing extra values, if [`extra`][pydantic.config.ConfigDict.extra]&#10; &#160;&#160;&#160;&#160;&#160;&#160;&#160;is set to `&#39;allow&#39;`.&#10; &#160;&#160;&#160;__pydantic_fields_set__: The names of fields explicitly set during instantiation.&#10; &#160;&#160;&#160;__pydantic_private__: Values of private attributes set on the model instance.&#10;">
<polygon fill="none" stroke="black" points="492.38,-451 492.38,-473.5 697.88,-473.5 697.88,-451 492.38,-451"/>
<text xml:space="preserve" text-anchor="start" x="544.12" y="-458.2" font-family="Times New Roman,Times,Liberation Serif,serif" font-weight="bold" font-size="14.00">PdfLayoutRegion</text>
<polygon fill="none" stroke="black" points="492.38,-428.5 492.38,-451 576.38,-451 576.38,-428.5 492.38,-428.5"/>
<text xml:space="preserve" text-anchor="start" x="508.5" y="-435.25" font-family="Times New Roman,Times,Liberation Serif,serif" font-size="14.00">region_id</text>
<polygon fill="none" stroke="black" points="576.38,-428.5 576.38,-451 697.88,-451 697.88,-428.5 576.38,-428.5"/>
<text xml:space="preserve" text-anchor="start" x="630.38" y="-435.25" font-family="Times New Roman,Times,Liberation Serif,serif" font-size="14.00">str</text>
<polygon fill="none" stroke="black" points="492.38,-406 492.38,-428.5 576.38,-428.5 576.38,-406 492.38,-406"/>
<text xml:space="preserve" text-anchor="start" x="502.12" y="-412.75" font-family="Times New Roman,Times,Liberation Serif,serif" font-size="14.00">region_type</text>
<polygon fill="none" stroke="black" points="576.38,-406 576.38,-428.5 697.88,-428.5 697.88,-406 576.38,-406"/>
<text xml:space="preserve" text-anchor="start" x="630.38" y="-412.75" font-family="Times New Roman,Times,Liberation Serif,serif" font-size="14.00">str</text>
<polygon fill="none" stroke="black" points="492.38,-383.5 492.38,-406 576.38,-406 576.38,-383.5 492.38,-383.5"/>
<text xml:space="preserve" text-anchor="start" x="497.25" y="-390.25" font-family="Times New Roman,Times,Liberation Serif,serif" font-size="14.00">page_number</text>
<polygon fill="none" stroke="black" points="576.38,-383.5 576.38,-406 697.88,-406 697.88,-383.5 576.38,-383.5"/>
<text xml:space="preserve" text-anchor="start" x="630" y="-390.25" font-family="Times New Roman,Times,Liberation Serif,serif" font-size="14.00">int</text>
<polygon fill="none" stroke="black" points="492.38,-361 492.38,-383.5 576.38,-383.5 576.38,-361 492.38,-361"/>
<text xml:space="preserve" text-anchor="start" x="495.38" y="-367.75" font-family="Times New Roman,Times,Liberation Serif,serif" font-size="14.00">bounding_box</text>
<polygon fill="none" stroke="black" points="576.38,-361 576.38,-383.5 697.88,-383.5 697.88,-361 576.38,-361"/>
<text xml:space="preserve" text-anchor="start" x="579.38" y="-367.75" font-family="Times New Roman,Times,Liberation Serif,serif" font-size="14.00">BoundingBox | None</text>
</a>
</g>
</g>
<!-- document_processor.pdf.preview.models.PdfLayoutRegion&#45;&gt;document_processor.models.BoundingBox -->
<g id="edge1" class="edge">
<title>document_processor.pdf.preview.models.PdfLayoutRegion:e&#45;&gt;document_processor.models.BoundingBox:w</title>
<path fill="none" stroke="black" d="M708.65,-371.64C793.4,-360.46 740.68,-200.52 820.19,-183.68"/>
<polyline fill="none" stroke="black" points="698.88,-372.25 703.87,-371.94"/>
<polyline fill="none" stroke="black" points="703.87,-371.94 708.86,-371.62"/>
<polyline fill="none" stroke="black" points="834.75,-182.25 829.77,-182.74"/>
<polygon fill="black" stroke="black" points="828.29,-177.86 829.27,-187.81 827.28,-188.01 826.3,-178.06 828.29,-177.86"/>
<polyline fill="none" stroke="black" points="829.77,-182.74 824.8,-183.23"/>
<polygon fill="black" stroke="black" points="823.31,-178.35 824.29,-188.3 822.3,-188.5 821.32,-178.55 823.31,-178.35"/>
<polyline fill="none" stroke="black" points="824.8,-183.23 819.82,-183.72"/>
</g>
<!-- document_processor.pdf.preview.models.PdfPreviewContext -->
<g id="node3" class="node">
<title>document_processor.pdf.preview.models.PdfPreviewContext</title>
<g id="a_node3"><a xlink:title="document_processor.pdf.preview.models.PdfPreviewContext&#10;&#10;!!! abstract &quot;Usage Documentation&quot;&#10; &#160;&#160;&#160;[Models](../concepts/models.md)&#10;&#10;A base class for creating Pydantic models.&#10;&#10;Attributes:&#10; &#160;&#160;&#160;__class_vars__: The names of the class variables defined on the model.&#10; &#160;&#160;&#160;__private_attributes__: Metadata about the private attributes of the model.&#10; &#160;&#160;&#160;__signature__: The synthesized `__init__` [`Signature`][inspect.Signature] of the model.&#10;&#10; &#160;&#160;&#160;__pydantic_complete__: Whether model building is completed, or if there are still undefined fields.&#10; &#160;&#160;&#160;__pydantic_core_schema__: The core schema of the model.&#10; &#160;&#160;&#160;__pydantic_custom_init__: Whether the model has a custom `__init__` function.&#10; &#160;&#160;&#160;__pydantic_decorators__: Metadata containing the decorators defined on the model.&#10; &#160;&#160;&#160;&#160;&#160;&#160;&#160;This replaces `Model.__validators__` and `Model.__root_validators__` from Pydantic V1.&#10; &#160;&#160;&#160;__pydantic_generic_metadata__: Metadata for generic models; contains data used for a similar purpose to&#10; &#160;&#160;&#160;&#160;&#160;&#160;&#160;__args__, __origin__, __parameters__ in typing&#45;module generics. May eventually be replaced by these.&#10; &#160;&#160;&#160;__pydantic_parent_namespace__: Parent namespace of the model, used for automatic rebuilding of models.&#10; &#160;&#160;&#160;__pydantic_post_init__: The name of the post&#45;init method for the model, if defined.&#10; &#160;&#160;&#160;__pydantic_root_model__: Whether the model is a [`RootModel`][pydantic.root_model.RootModel].&#10; &#160;&#160;&#160;__pydantic_serializer__: The `pydantic&#45;core` `SchemaSerializer` used to dump instances of the model.&#10; &#160;&#160;&#160;__pydantic_validator__: The `pydantic&#45;core` `SchemaValidator` used to validate instances of the model.&#10;&#10; &#160;&#160;&#160;__pydantic_fields__: A dictionary of field names and their corresponding [`FieldInfo`][pydantic.fields.FieldInfo] objects.&#10; &#160;&#160;&#160;__pydantic_computed_fields__: A dictionary of computed field names and their corresponding [`ComputedFieldInfo`][pydantic.fields.ComputedFieldInfo] objects.&#10;&#10; &#160;&#160;&#160;__pydantic_extra__: A dictionary containing extra values, if [`extra`][pydantic.config.ConfigDict.extra]&#10; &#160;&#160;&#160;&#160;&#160;&#160;&#160;is set to `&#39;allow&#39;`.&#10; &#160;&#160;&#160;__pydantic_fields_set__: The names of fields explicitly set during instantiation.&#10; &#160;&#160;&#160;__pydantic_private__: Values of private attributes set on the model instance.&#10;">
<polygon fill="none" stroke="black" points="0,-346.75 0,-369.25 355.5,-369.25 355.5,-346.75 0,-346.75"/>
<text xml:space="preserve" text-anchor="start" x="121.5" y="-353.95" font-family="Times New Roman,Times,Liberation Serif,serif" font-weight="bold" font-size="14.00">PdfPreviewContext</text>
<polygon fill="none" stroke="black" points="0,-324.25 0,-346.75 138.75,-346.75 138.75,-324.25 0,-324.25"/>
<text xml:space="preserve" text-anchor="start" x="29.25" y="-331" font-family="Times New Roman,Times,Liberation Serif,serif" font-size="14.00">layout_regions</text>
<polygon fill="none" stroke="black" points="138.75,-324.25 138.75,-346.75 355.5,-346.75 355.5,-324.25 138.75,-324.25"/>
<text xml:space="preserve" text-anchor="start" x="186.38" y="-331" font-family="Times New Roman,Times,Liberation Serif,serif" font-size="14.00">list[PdfLayoutRegion]</text>
<polygon fill="none" stroke="black" points="0,-301.75 0,-324.25 138.75,-324.25 138.75,-301.75 0,-301.75"/>
<text xml:space="preserve" text-anchor="start" x="53.62" y="-308.5" font-family="Times New Roman,Times,Liberation Serif,serif" font-size="14.00">tables</text>
<polygon fill="none" stroke="black" points="138.75,-301.75 138.75,-324.25 355.5,-324.25 355.5,-301.75 138.75,-301.75"/>
<text xml:space="preserve" text-anchor="start" x="166.12" y="-308.5" font-family="Times New Roman,Times,Liberation Serif,serif" font-size="14.00">list[PdfPreviewTableContext]</text>
<polygon fill="none" stroke="black" points="0,-279.25 0,-301.75 138.75,-301.75 138.75,-279.25 0,-279.25"/>
<text xml:space="preserve" text-anchor="start" x="3" y="-286" font-family="Times New Roman,Times,Liberation Serif,serif" font-size="14.00">visual_block_candidates</text>
<polygon fill="none" stroke="black" points="138.75,-279.25 138.75,-301.75 355.5,-301.75 355.5,-279.25 138.75,-279.25"/>
<text xml:space="preserve" text-anchor="start" x="141.75" y="-286" font-family="Times New Roman,Times,Liberation Serif,serif" font-size="14.00">list[PdfPreviewVisualBlockCandidate]</text>
</a>
</g>
</g>
<!-- document_processor.pdf.preview.models.PdfPreviewContext&#45;&gt;document_processor.pdf.preview.models.PdfLayoutRegion -->
<g id="edge2" class="edge">
<title>document_processor.pdf.preview.models.PdfPreviewContext:e&#45;&gt;document_processor.pdf.preview.models.PdfLayoutRegion:w</title>
<path fill="none" stroke="black" d="M365.11,-336.12C430.89,-345.01 415.04,-446.39 476.13,-460.6"/>
<polyline fill="none" stroke="black" points="355.5,-335.5 360.49,-335.82"/>
<polyline fill="none" stroke="black" points="360.49,-335.82 365.48,-336.15"/>
<polygon fill="black" stroke="black" points="481.1,-461.14 490.56,-466.69 486.4,-461.71 490.71,-462.18 490.71,-462.18 490.71,-462.18 486.4,-461.71 491.53,-457.74 481.1,-461.14"/>
<polyline fill="none" stroke="black" points="479.89,-461.01 474.92,-460.47"/>
</g>
<!-- document_processor.pdf.preview.models.PdfPreviewTableContext -->
<g id="node4" class="node">
<title>document_processor.pdf.preview.models.PdfPreviewTableContext</title>
<g id="a_node4"><a xlink:title="document_processor.pdf.preview.models.PdfPreviewTableContext&#10;&#10;!!! abstract &quot;Usage Documentation&quot;&#10; &#160;&#160;&#160;[Models](../concepts/models.md)&#10;&#10;A base class for creating Pydantic models.&#10;&#10;Attributes:&#10; &#160;&#160;&#160;__class_vars__: The names of the class variables defined on the model.&#10; &#160;&#160;&#160;__private_attributes__: Metadata about the private attributes of the model.&#10; &#160;&#160;&#160;__signature__: The synthesized `__init__` [`Signature`][inspect.Signature] of the model.&#10;&#10; &#160;&#160;&#160;__pydantic_complete__: Whether model building is completed, or if there are still undefined fields.&#10; &#160;&#160;&#160;__pydantic_core_schema__: The core schema of the model.&#10; &#160;&#160;&#160;__pydantic_custom_init__: Whether the model has a custom `__init__` function.&#10; &#160;&#160;&#160;__pydantic_decorators__: Metadata containing the decorators defined on the model.&#10; &#160;&#160;&#160;&#160;&#160;&#160;&#160;This replaces `Model.__validators__` and `Model.__root_validators__` from Pydantic V1.&#10; &#160;&#160;&#160;__pydantic_generic_metadata__: Metadata for generic models; contains data used for a similar purpose to&#10; &#160;&#160;&#160;&#160;&#160;&#160;&#160;__args__, __origin__, __parameters__ in typing&#45;module generics. May eventually be replaced by these.&#10; &#160;&#160;&#160;__pydantic_parent_namespace__: Parent namespace of the model, used for automatic rebuilding of models.&#10; &#160;&#160;&#160;__pydantic_post_init__: The name of the post&#45;init method for the model, if defined.&#10; &#160;&#160;&#160;__pydantic_root_model__: Whether the model is a [`RootModel`][pydantic.root_model.RootModel].&#10; &#160;&#160;&#160;__pydantic_serializer__: The `pydantic&#45;core` `SchemaSerializer` used to dump instances of the model.&#10; &#160;&#160;&#160;__pydantic_validator__: The `pydantic&#45;core` `SchemaValidator` used to validate instances of the model.&#10;&#10; &#160;&#160;&#160;__pydantic_fields__: A dictionary of field names and their corresponding [`FieldInfo`][pydantic.fields.FieldInfo] objects.&#10; &#160;&#160;&#160;__pydantic_computed_fields__: A dictionary of computed field names and their corresponding [`ComputedFieldInfo`][pydantic.fields.ComputedFieldInfo] objects.&#10;&#10; &#160;&#160;&#160;__pydantic_extra__: A dictionary containing extra values, if [`extra`][pydantic.config.ConfigDict.extra]&#10; &#160;&#160;&#160;&#160;&#160;&#160;&#160;is set to `&#39;allow&#39;`.&#10; &#160;&#160;&#160;__pydantic_fields_set__: The names of fields explicitly set during instantiation.&#10; &#160;&#160;&#160;__pydantic_private__: Values of private attributes set on the model instance.&#10;">
<polygon fill="none" stroke="black" points="463.5,-302 463.5,-324.5 726.75,-324.5 726.75,-302 463.5,-302"/>
<text xml:space="preserve" text-anchor="start" x="522.75" y="-309.2" font-family="Times New Roman,Times,Liberation Serif,serif" font-weight="bold" font-size="14.00">PdfPreviewTableContext</text>
<polygon fill="none" stroke="black" points="463.5,-279.5 463.5,-302 605.25,-302 605.25,-279.5 463.5,-279.5"/>
<text xml:space="preserve" text-anchor="start" x="497.25" y="-286.25" font-family="Times New Roman,Times,Liberation Serif,serif" font-size="14.00">page_number</text>
<polygon fill="none" stroke="black" points="605.25,-279.5 605.25,-302 726.75,-302 726.75,-279.5 605.25,-279.5"/>
<text xml:space="preserve" text-anchor="start" x="639" y="-286.25" font-family="Times New Roman,Times,Liberation Serif,serif" font-size="14.00">int | None</text>
<polygon fill="none" stroke="black" points="463.5,-257 463.5,-279.5 605.25,-279.5 605.25,-257 463.5,-257"/>
<text xml:space="preserve" text-anchor="start" x="495.38" y="-263.75" font-family="Times New Roman,Times,Liberation Serif,serif" font-size="14.00">bounding_box</text>
<polygon fill="none" stroke="black" points="605.25,-257 605.25,-279.5 726.75,-279.5 726.75,-257 605.25,-257"/>
<text xml:space="preserve" text-anchor="start" x="608.25" y="-263.75" font-family="Times New Roman,Times,Liberation Serif,serif" font-size="14.00">BoundingBox | None</text>
<polygon fill="none" stroke="black" points="463.5,-234.5 463.5,-257 605.25,-257 605.25,-234.5 463.5,-234.5"/>
<text xml:space="preserve" text-anchor="start" x="476.62" y="-241.25" font-family="Times New Roman,Times,Liberation Serif,serif" font-size="14.00">grid_row_boundaries</text>
<polygon fill="none" stroke="black" points="605.25,-234.5 605.25,-257 726.75,-257 726.75,-234.5 605.25,-234.5"/>
<text xml:space="preserve" text-anchor="start" x="640.88" y="-241.25" font-family="Times New Roman,Times,Liberation Serif,serif" font-size="14.00">list[float]</text>
<polygon fill="none" stroke="black" points="463.5,-212 463.5,-234.5 605.25,-234.5 605.25,-212 463.5,-212"/>
<text xml:space="preserve" text-anchor="start" x="466.5" y="-218.75" font-family="Times New Roman,Times,Liberation Serif,serif" font-size="14.00">grid_column_boundaries</text>
<polygon fill="none" stroke="black" points="605.25,-212 605.25,-234.5 726.75,-234.5 726.75,-212 605.25,-212"/>
<text xml:space="preserve" text-anchor="start" x="640.88" y="-218.75" font-family="Times New Roman,Times,Liberation Serif,serif" font-size="14.00">list[float]</text>
</a>
</g>
</g>
<!-- document_processor.pdf.preview.models.PdfPreviewContext&#45;&gt;document_processor.pdf.preview.models.PdfPreviewTableContext -->
<g id="edge3" class="edge">
<title>document_processor.pdf.preview.models.PdfPreviewContext:e&#45;&gt;document_processor.pdf.preview.models.PdfPreviewTableContext:w</title>
<path fill="none" stroke="black" d="M365.37,-313C400.42,-313.03 415.17,-313.2 448.14,-313.24"/>
<polyline fill="none" stroke="black" points="355.5,-313 360.5,-313"/>
<polyline fill="none" stroke="black" points="360.5,-313 365.5,-313"/>
<polygon fill="black" stroke="black" points="453.17,-313.24 463.16,-317.75 458.5,-313.25 462.83,-313.25 462.83,-313.25 462.83,-313.25 458.5,-313.25 463.17,-308.75 453.17,-313.24"/>
<polyline fill="none" stroke="black" points="451.95,-313.24 446.95,-313.24"/>
</g>
<!-- document_processor.pdf.preview.models.PdfPreviewVisualBlockCandidate -->
<g id="node5" class="node">
<title>document_processor.pdf.preview.models.PdfPreviewVisualBlockCandidate</title>
<g id="a_node5"><a xlink:title="document_processor.pdf.preview.models.PdfPreviewVisualBlockCandidate&#10;&#10;!!! abstract &quot;Usage Documentation&quot;&#10; &#160;&#160;&#160;[Models](../concepts/models.md)&#10;&#10;A base class for creating Pydantic models.&#10;&#10;Attributes:&#10; &#160;&#160;&#160;__class_vars__: The names of the class variables defined on the model.&#10; &#160;&#160;&#160;__private_attributes__: Metadata about the private attributes of the model.&#10; &#160;&#160;&#160;__signature__: The synthesized `__init__` [`Signature`][inspect.Signature] of the model.&#10;&#10; &#160;&#160;&#160;__pydantic_complete__: Whether model building is completed, or if there are still undefined fields.&#10; &#160;&#160;&#160;__pydantic_core_schema__: The core schema of the model.&#10; &#160;&#160;&#160;__pydantic_custom_init__: Whether the model has a custom `__init__` function.&#10; &#160;&#160;&#160;__pydantic_decorators__: Metadata containing the decorators defined on the model.&#10; &#160;&#160;&#160;&#160;&#160;&#160;&#160;This replaces `Model.__validators__` and `Model.__root_validators__` from Pydantic V1.&#10; &#160;&#160;&#160;__pydantic_generic_metadata__: Metadata for generic models; contains data used for a similar purpose to&#10; &#160;&#160;&#160;&#160;&#160;&#160;&#160;__args__, __origin__, __parameters__ in typing&#45;module generics. May eventually be replaced by these.&#10; &#160;&#160;&#160;__pydantic_parent_namespace__: Parent namespace of the model, used for automatic rebuilding of models.&#10; &#160;&#160;&#160;__pydantic_post_init__: The name of the post&#45;init method for the model, if defined.&#10; &#160;&#160;&#160;__pydantic_root_model__: Whether the model is a [`RootModel`][pydantic.root_model.RootModel].&#10; &#160;&#160;&#160;__pydantic_serializer__: The `pydantic&#45;core` `SchemaSerializer` used to dump instances of the model.&#10; &#160;&#160;&#160;__pydantic_validator__: The `pydantic&#45;core` `SchemaValidator` used to validate instances of the model.&#10;&#10; &#160;&#160;&#160;__pydantic_fields__: A dictionary of field names and their corresponding [`FieldInfo`][pydantic.fields.FieldInfo] objects.&#10; &#160;&#160;&#160;__pydantic_computed_fields__: A dictionary of computed field names and their corresponding [`ComputedFieldInfo`][pydantic.fields.ComputedFieldInfo] objects.&#10;&#10; &#160;&#160;&#160;__pydantic_extra__: A dictionary containing extra values, if [`extra`][pydantic.config.ConfigDict.extra]&#10; &#160;&#160;&#160;&#160;&#160;&#160;&#160;is set to `&#39;allow&#39;`.&#10; &#160;&#160;&#160;__pydantic_fields_set__: The names of fields explicitly set during instantiation.&#10; &#160;&#160;&#160;__pydantic_private__: Values of private attributes set on the model instance.&#10;">
<polygon fill="none" stroke="black" points="476.25,-153.5 476.25,-176 714,-176 714,-153.5 476.25,-153.5"/>
<text xml:space="preserve" text-anchor="start" x="496.88" y="-160.7" font-family="Times New Roman,Times,Liberation Serif,serif" font-weight="bold" font-size="14.00">PdfPreviewVisualBlockCandidate</text>
<polygon fill="none" stroke="black" points="476.25,-131 476.25,-153.5 606.75,-153.5 606.75,-131 476.25,-131"/>
<text xml:space="preserve" text-anchor="start" x="504.38" y="-137.75" font-family="Times New Roman,Times,Liberation Serif,serif" font-size="14.00">page_number</text>
<polygon fill="none" stroke="black" points="606.75,-131 606.75,-153.5 714,-153.5 714,-131 606.75,-131"/>
<text xml:space="preserve" text-anchor="start" x="653.25" y="-137.75" font-family="Times New Roman,Times,Liberation Serif,serif" font-size="14.00">int</text>
<polygon fill="none" stroke="black" points="476.25,-108.5 476.25,-131 606.75,-131 606.75,-108.5 476.25,-108.5"/>
<text xml:space="preserve" text-anchor="start" x="500.62" y="-115.25" font-family="Times New Roman,Times,Liberation Serif,serif" font-size="14.00">candidate_type</text>
<polygon fill="none" stroke="black" points="606.75,-108.5 606.75,-131 714,-131 714,-108.5 606.75,-108.5"/>
<text xml:space="preserve" text-anchor="start" x="653.62" y="-115.25" font-family="Times New Roman,Times,Liberation Serif,serif" font-size="14.00">str</text>
<polygon fill="none" stroke="black" points="476.25,-86 476.25,-108.5 606.75,-108.5 606.75,-86 476.25,-86"/>
<text xml:space="preserve" text-anchor="start" x="502.5" y="-92.75" font-family="Times New Roman,Times,Liberation Serif,serif" font-size="14.00">bounding_box</text>
<polygon fill="none" stroke="black" points="606.75,-86 606.75,-108.5 714,-108.5 714,-86 606.75,-86"/>
<text xml:space="preserve" text-anchor="start" x="622.5" y="-92.75" font-family="Times New Roman,Times,Liberation Serif,serif" font-size="14.00">BoundingBox</text>
<polygon fill="none" stroke="black" points="476.25,-63.5 476.25,-86 606.75,-86 606.75,-63.5 476.25,-63.5"/>
<text xml:space="preserve" text-anchor="start" x="479.25" y="-70.25" font-family="Times New Roman,Times,Liberation Serif,serif" font-size="14.00">primitive_draw_orders</text>
<polygon fill="none" stroke="black" points="606.75,-63.5 606.75,-86 714,-86 714,-63.5 606.75,-63.5"/>
<text xml:space="preserve" text-anchor="start" x="640.5" y="-70.25" font-family="Times New Roman,Times,Liberation Serif,serif" font-size="14.00">list[int]</text>
<polygon fill="none" stroke="black" points="476.25,-41 476.25,-63.5 606.75,-63.5 606.75,-41 476.25,-41"/>
<text xml:space="preserve" text-anchor="start" x="507.38" y="-47.75" font-family="Times New Roman,Times,Liberation Serif,serif" font-size="14.00">source_roles</text>
<polygon fill="none" stroke="black" points="606.75,-41 606.75,-63.5 714,-63.5 714,-41 606.75,-41"/>
<text xml:space="preserve" text-anchor="start" x="640.88" y="-47.75" font-family="Times New Roman,Times,Liberation Serif,serif" font-size="14.00">list[str]</text>
<polygon fill="none" stroke="black" points="476.25,-18.5 476.25,-41 606.75,-41 606.75,-18.5 476.25,-18.5"/>
<text xml:space="preserve" text-anchor="start" x="512.25" y="-25.25" font-family="Times New Roman,Times,Liberation Serif,serif" font-size="14.00">child_cells</text>
<polygon fill="none" stroke="black" points="606.75,-18.5 606.75,-41 714,-41 714,-18.5 606.75,-18.5"/>
<text xml:space="preserve" text-anchor="start" x="609.75" y="-25.25" font-family="Times New Roman,Times,Liberation Serif,serif" font-size="14.00">list[BoundingBox]</text>
</a>
</g>
</g>
<!-- document_processor.pdf.preview.models.PdfPreviewContext&#45;&gt;document_processor.pdf.preview.models.PdfPreviewVisualBlockCandidate -->
<g id="edge4" class="edge">
<title>document_processor.pdf.preview.models.PdfPreviewContext:e&#45;&gt;document_processor.pdf.preview.models.PdfPreviewVisualBlockCandidate:w</title>
<path fill="none" stroke="black" d="M365.24,-289.76C424.88,-280.24 405.31,-181.62 460.09,-166.65"/>
<polyline fill="none" stroke="black" points="355.5,-290.5 360.49,-290.12"/>
<polyline fill="none" stroke="black" points="360.49,-290.12 365.47,-289.74"/>
<polygon fill="black" stroke="black" points="465,-166.04 475.48,-169.26 470.29,-165.37 474.59,-164.83 474.59,-164.83 474.59,-164.83 470.29,-165.37 474.36,-160.33 465,-166.04"/>
<polyline fill="none" stroke="black" points="463.79,-166.19 458.83,-166.81"/>
</g>
<!-- document_processor.pdf.preview.models.PdfPreviewTableContext&#45;&gt;document_processor.models.BoundingBox -->
<g id="edge5" class="edge">
<title>document_processor.pdf.preview.models.PdfPreviewTableContext:e&#45;&gt;document_processor.models.BoundingBox:w</title>
<path fill="none" stroke="black" d="M736.47,-267.45C781.98,-259.6 778.18,-196 820.15,-184.15"/>
<polyline fill="none" stroke="black" points="726.75,-268.25 731.73,-267.84"/>
<polyline fill="none" stroke="black" points="731.73,-267.84 736.72,-267.43"/>
<polyline fill="none" stroke="black" points="834.75,-182.25 829.79,-182.89"/>
<polygon fill="black" stroke="black" points="828.16,-178.07 829.45,-187.98 827.46,-188.24 826.17,-178.32 828.16,-178.07"/>
<polyline fill="none" stroke="black" points="829.79,-182.89 824.83,-183.54"/>
<polygon fill="black" stroke="black" points="823.2,-178.71 824.49,-188.63 822.5,-188.89 821.21,-178.97 823.2,-178.71"/>
<polyline fill="none" stroke="black" points="824.83,-183.54 819.88,-184.18"/>
</g>
<!-- document_processor.pdf.preview.models.PdfPreviewVisualBlockCandidate&#45;&gt;document_processor.models.BoundingBox -->
<g id="edge6" class="edge">
<title>document_processor.pdf.preview.models.PdfPreviewVisualBlockCandidate:e&#45;&gt;document_processor.models.BoundingBox:w</title>
<path fill="none" stroke="black" d="M724.71,-97.93C774.54,-105.27 773.58,-169.37 819.94,-180.58"/>
<polyline fill="none" stroke="black" points="715,-97.25 719.99,-97.6"/>
<polyline fill="none" stroke="black" points="719.99,-97.6 724.98,-97.95"/>
<polyline fill="none" stroke="black" points="834.75,-182.25 829.78,-181.69"/>
<polygon fill="black" stroke="black" points="829.35,-176.61 828.23,-186.55 826.24,-186.32 827.36,-176.39 829.35,-176.61"/>
<polyline fill="none" stroke="black" points="829.78,-181.69 824.81,-181.13"/>
<polygon fill="black" stroke="black" points="824.38,-176.05 823.26,-185.99 821.27,-185.76 822.39,-175.83 824.38,-176.05"/>
<polyline fill="none" stroke="black" points="824.81,-181.13 819.84,-180.57"/>
</g>
<!-- document_processor.pdf.preview.models.PdfPreviewVisualBlockCandidate&#45;&gt;document_processor.models.BoundingBox -->
<g id="edge7" class="edge">
<title>document_processor.pdf.preview.models.PdfPreviewVisualBlockCandidate:e&#45;&gt;document_processor.models.BoundingBox:w</title>
<path fill="none" stroke="black" d="M724.92,-30.5C792.16,-41.22 757.71,-163.68 819.51,-180.37"/>
<polyline fill="none" stroke="black" points="715,-29.75 719.99,-30.13"/>
<polyline fill="none" stroke="black" points="719.99,-30.13 724.97,-30.5"/>
<polygon fill="black" stroke="black" points="824.49,-180.98 833.87,-186.68 829.79,-181.64 834.09,-182.17 834.09,-182.17 834.09,-182.17 829.79,-181.64 834.97,-177.74 824.49,-180.98"/>
<polyline fill="none" stroke="black" points="823.28,-180.84 818.32,-180.22"/>
</g>
</g>
</svg>
